<svg xmlns="http://www.w3.org/2000/svg" viewBox="0 0 192.03 192.03"><defs><style>.cls-1{isolation:isolate;}.cls-2,.cls-3{fill:#ffd970;}.cls-3,.cls-6{mix-blend-mode:multiply;}.cls-4{fill:#ff595c;}.cls-5,.cls-6{fill:#475fea;}.cls-6{opacity:0.85;}</style></defs><g class="cls-1"><g id="Layer_18" data-name="Layer 18"><polygon class="cls-2" points="0 192.03 0 0 192.03 0 0 192.03"/><path class="cls-3" d="M67.77.53H.2v192H64.73c1,0,2-.05,3-.08l0,.08c55.53,0,100.54-43,100.54-96S123.3.53,67.77.53Z" transform="translate(-0.2 -0.53)"/><polygon class="cls-4" points="0 192.03 0 0 95.71 96.02 0 192.03"/><polygon class="cls-5" points="192.03 192.03 0 192.03 192.03 0 192.03 192.03"/><path class="cls-6" d="M.2,192.56H64.73c1,0,2-.05,3-.08l0,.08c55.53,0,100.54-43,100.54-96a92.55,92.55,0,0,0-17.69-54.4Z" transform="translate(-0.2 -0.53)"/></g></g></svg>