<svg id="Слой_1" data-name="Слой 1" xmlns="http://www.w3.org/2000/svg" viewBox="0 0 185.18 102.77"><defs><style>.cls-1{fill:#12100b;}</style></defs><path class="cls-1" d="M73.87,91.1l42.89-44H120L86.56,82,120,119.56h-3L84.72,83.83,73.87,94.68v24.88H71.31V47.08h2.56Z" transform="translate(-49.92 -47.08)"/><path class="cls-1" d="M134.37,82.09h37.47v2.76H134.37V117h40.54v2.56h-43.1V47.08h43.1v2.56H134.37Z" transform="translate(-49.92 -47.08)"/><path class="cls-1" d="M209.41,119.56h-2.56V90.79L182.08,47.08h3.07l23,40.84,23.75-40.84h3.18l-25.7,43.71Z" transform="translate(-49.92 -47.08)"/><path class="cls-1" d="M49.92,54.94l70.15,25.72v4L50,110.94v-2.87L117.2,82.84v-.5L49.92,57.71Z" transform="translate(-49.92 -47.08)"/><path class="cls-1" d="M80.73,144.71a14.8,14.8,0,0,1-4.74.86c-2.31-.07-4.63-1.3-4.63-4v-4.49c0-2.62,2.34-4,4.68-4a5,5,0,0,1,2.82.75V129h1.87Zm-1.87-1.14v-8.2a6.22,6.22,0,0,0-2.82-.68,2.5,2.5,0,0,0-2.78,2.38v4.46A2.6,2.6,0,0,0,76,143.91,10,10,0,0,0,78.86,143.57Z" transform="translate(-49.92 -47.08)"/><path class="cls-1" d="M98.56,128.57a1.28,1.28,0,0,1,1.31,1.31,1.31,1.31,0,1,1-1.31-1.31Zm1,4.67v12.1H97.68v-12.1Z" transform="translate(-49.92 -47.08)"/><path class="cls-1" d="M117.73,146.93a4.19,4.19,0,0,0,2.94,1.19c1.45,0,2.9-.42,2.9-2.17v-1a5.83,5.83,0,0,1-2.76.63c-2.33,0-4.64-1.37-4.64-4V137c0-2.64,2.24-4,4.55-4a11.3,11.3,0,0,1,4.7,1v12c0,2.71-2.29,3.9-4.58,3.9a5.72,5.72,0,0,1-4.25-1.78Zm5.84-11.73a7.25,7.25,0,0,0-2.85-.49A2.51,2.51,0,0,0,118,137v4.63c0,1.4,1.24,2.26,2.74,2.26a7.45,7.45,0,0,0,2.8-.51Z" transform="translate(-49.92 -47.08)"/><path class="cls-1" d="M143.25,128.57a1.28,1.28,0,0,1,1.31,1.31,1.31,1.31,0,1,1-1.31-1.31Zm1,4.67v12.1h-1.87v-12.1Z" transform="translate(-49.92 -47.08)"/><path class="cls-1" d="M166.08,145.53c-.25,0-.47,0-.72,0-2.45,0-4.23-1.47-4.23-4V130.18H163v3.06h2.48V135H163v6.63a2.42,2.42,0,0,0,3.11,2.31Z" transform="translate(-49.92 -47.08)"/><path class="cls-1" d="M188.59,136.91c0-1.4-1.43-2.17-2.85-2.17a3.78,3.78,0,0,0-3,1.3l-1.17-1.14a5.91,5.91,0,0,1,4.3-1.89c2.34,0,4.58,1.28,4.58,3.9v7.85a14.57,14.57,0,0,1-5,.81c-2.43,0-4.32-1.21-4.32-3.78s2.22-3.86,4.55-3.86a7.16,7.16,0,0,1,2.9.59Zm0,3a8.76,8.76,0,0,0-2.71-.46c-1.5,0-2.9.63-2.9,2.38,0,1.56,1.1,2.17,2.53,2.19a13.25,13.25,0,0,0,3.08-.23Z" transform="translate(-49.92 -47.08)"/><path class="cls-1" d="M211.28,145.57c-2.64,0-4.11-1.44-4.11-3.94V129H209v12.62a2,2,0,0,0,2.24,2.19Z" transform="translate(-49.92 -47.08)"/></svg>