<svg width="96" height="58" viewBox="0 0 96 58" fill="none" xmlns="http://www.w3.org/2000/svg">
<g clip-path="url(#clip0_1_14118)">
<path d="M14.7888 14.2031H18.4344L22.788 26.3059C23.1064 27.2962 23.4248 28.7471 23.4248 28.7471H23.4952C23.4952 28.7471 23.7784 27.2962 24.0968 26.3059L28.4504 14.2031H32.06L25.4416 32.1082H21.5136L14.7896 14.2031H14.7888Z" fill="black"/>
<path d="M43.4288 39.2439C43.4288 41.5475 41.5544 43.4224 39.2496 43.4224H7.5976C5.2936 43.4224 3.4184 41.5483 3.4184 39.2439V7.59714C3.4184 5.29352 5.2928 3.41863 7.5976 3.41863H39.2496C41.4536 3.41863 43.2848 5.13915 43.4192 7.33479L43.4288 7.49076V10.4047H46.848V7.12602H46.832C46.5888 3.14988 43.288 0 39.2496 0H7.5976C3.4016 0 0 3.40104 0 7.59714V39.2439C0 43.4392 3.4016 46.8402 7.5976 46.8402H39.2496C43.4456 46.8402 46.8472 43.4392 46.8472 39.2439V35.9077H43.428V39.2439H43.4288ZM52.192 22.0947L58.1376 14.2041H54.2448L49.396 20.7862H46.8472V14.2041H43.428V32.1091H46.8472V23.7233H49.4664L54.8104 32.1091H58.8096L52.1912 22.1659V22.0947H52.192ZM69 13.7793C63.904 13.7793 60.0104 17.4595 60.0104 23.157C60.0104 28.4641 63.904 32.5338 69.5312 32.5338C72.0088 32.5338 74.7336 31.5796 76.468 29.9862L75.0168 27.4747C73.6008 28.748 71.6544 29.5623 69.7432 29.5623C66.5224 29.5623 63.7624 27.4747 63.5848 23.6169H76.6088C76.6792 23.1218 76.7504 22.6267 76.7504 22.1659C76.7504 17.5659 74.0608 13.7793 69 13.7793ZM63.692 21.1389C64.1872 18.1666 66.2752 16.4333 68.9296 16.4333C71.2656 16.4333 73.1768 18.061 73.2832 21.1389H63.692ZM92.2848 14.2033L87.9312 25.9517C87.6128 26.8716 87.3296 28.0738 87.3296 28.0738H87.2592C87.2592 28.0738 86.9408 26.8004 86.5872 25.9157L82.0928 14.2024H78.2352L85.7384 31.8955L84.8536 33.948C84.1816 35.5757 83.0136 36.6019 81.5976 36.6019C80.536 36.6019 79.5456 35.8229 79.5456 35.8229L78.3416 38.4424C78.3416 38.4424 79.7928 39.5391 81.7752 39.5391C84.288 39.5391 86.5176 38.1233 87.5792 35.3278L96.0024 14.2024H92.2864L92.2848 14.2033Z" fill="black"/>
<path d="M4.71117 56.3802C4.31037 56.1626 3.99677 55.8611 3.76957 55.4771C3.54237 55.0932 3.42877 54.6597 3.42877 54.1765C3.42877 53.6934 3.54397 53.2607 3.77357 52.8759C4.00317 52.492 4.31837 52.1905 4.71917 51.9729C5.11997 51.7553 5.56877 51.6458 6.06557 51.6458C6.46877 51.6458 6.83677 51.7161 7.16957 51.8569C7.50237 51.9977 7.78317 52.2017 8.01277 52.468L7.42237 53.0231C7.06637 52.6392 6.62797 52.4464 6.10797 52.4464C5.77037 52.4464 5.46797 52.52 5.20077 52.668C4.93357 52.8152 4.72477 53.0207 4.57517 53.2831C4.42477 53.5454 4.35037 53.843 4.35037 54.1757C4.35037 54.5085 4.42557 54.806 4.57517 55.0684C4.72477 55.3307 4.93357 55.5355 5.20077 55.6835C5.46797 55.8307 5.77037 55.905 6.10797 55.905C6.62797 55.905 7.06637 55.7107 7.42237 55.3219L8.01277 55.8842C7.78317 56.1514 7.50077 56.3554 7.16557 56.4953C6.83037 56.6361 6.46157 56.7065 6.05837 56.7065C5.56157 56.7065 5.11277 56.5977 4.71197 56.3794L4.71117 56.3802Z" fill="black"/>
<path d="M10.9784 52.8408V53.6775C10.9032 53.6631 10.8352 53.6567 10.7744 53.6567C10.432 53.6567 10.1648 53.7567 9.9728 53.955C9.7808 54.1542 9.6848 54.4414 9.6848 54.8157V56.6362H8.8064V52.8832H9.6432V53.4311C9.896 53.0376 10.3416 52.8408 10.9792 52.8408H10.9784Z" fill="black"/>
<path d="M15.2032 55.0413H12.2576C12.3088 55.3181 12.444 55.5372 12.6616 55.6988C12.8792 55.8604 13.1504 55.9412 13.4736 55.9412C13.8856 55.9412 14.2256 55.8052 14.4928 55.5332L14.964 56.0748C14.7952 56.2763 14.5816 56.4283 14.324 56.5315C14.0664 56.6347 13.776 56.6859 13.452 56.6859C13.0392 56.6859 12.676 56.6043 12.3624 56.4395C12.048 56.2755 11.8056 56.0468 11.6352 55.754C11.464 55.4613 11.3784 55.1301 11.3784 54.7598C11.3784 54.3894 11.4616 54.0655 11.628 53.7719C11.7944 53.4792 12.0248 53.2504 12.3208 53.0864C12.616 52.9225 12.9488 52.8401 13.3192 52.8401C13.6896 52.8401 14.012 52.9209 14.3 53.0825C14.588 53.244 14.8128 53.4712 14.9752 53.7639C15.1368 54.0567 15.2176 54.395 15.2176 54.7798C15.2176 54.8406 15.2128 54.9277 15.2032 55.0397V55.0413ZM12.6056 53.7935C12.4112 53.9599 12.2928 54.1815 12.2504 54.4574H14.38C14.3424 54.1855 14.228 53.9655 14.0352 53.7967C13.8432 53.628 13.604 53.544 13.3184 53.544C13.0328 53.544 12.7992 53.6272 12.6048 53.7935H12.6056Z" fill="black"/>
<path d="M18.6583 53.2384C18.9511 53.5031 19.0975 53.9022 19.0975 54.4366V56.6362H18.2679V56.1795C18.1599 56.3434 18.0063 56.469 17.8071 56.5554C17.6079 56.6418 17.3679 56.6858 17.0863 56.6858C16.8047 56.6858 16.5591 56.6378 16.3479 56.5418C16.1367 56.4458 15.9743 56.3122 15.8591 56.1411C15.7439 55.9699 15.6871 55.7771 15.6871 55.5612C15.6871 55.2236 15.8127 54.9533 16.0631 54.7493C16.3135 54.5453 16.7087 54.4438 17.2479 54.4438H18.2183V54.3878C18.2183 54.1254 18.1399 53.9238 17.9831 53.7831C17.8263 53.6423 17.5927 53.5719 17.2839 53.5719C17.0727 53.5719 16.8655 53.6047 16.6615 53.6703C16.4575 53.7359 16.2855 53.8271 16.1447 53.9446L15.7999 53.3047C15.9967 53.1552 16.2335 53.04 16.5103 52.96C16.7871 52.88 17.0799 52.8408 17.3887 52.8408C17.9415 52.8408 18.3647 52.9736 18.6575 53.2376L18.6583 53.2384ZM17.8567 55.8955C18.0279 55.7947 18.1487 55.6508 18.2191 55.4636V55.0277H17.3119C16.8055 55.0277 16.5527 55.194 16.5527 55.5268C16.5527 55.686 16.6159 55.8123 16.7423 55.9067C16.8687 56.0003 17.0447 56.0475 17.2695 56.0475C17.4943 56.0475 17.6855 55.9971 17.8567 55.8963V55.8955Z" fill="black"/>
<path d="M22.4792 56.433C22.376 56.517 22.2504 56.5802 22.1032 56.6226C21.9552 56.6649 21.8 56.6857 21.636 56.6857C21.2232 56.6857 20.9048 56.5778 20.68 56.3626C20.4552 56.1474 20.3424 55.8331 20.3424 55.4204V53.6142H19.724V52.9112H20.3424V52.0537H21.2208V52.9112H22.2264V53.6142H21.2208V55.3996C21.2208 55.5827 21.2656 55.7219 21.3544 55.8179C21.4432 55.9139 21.572 55.9619 21.7408 55.9619C21.9376 55.9619 22.1016 55.9107 22.2328 55.8075L22.4792 56.433Z" fill="black"/>
<path d="M26.5913 55.0413H23.6457C23.6969 55.3181 23.8321 55.5372 24.0497 55.6988C24.2673 55.8604 24.5385 55.9412 24.8617 55.9412C25.2737 55.9412 25.6137 55.8052 25.8809 55.5332L26.3521 56.0748C26.1833 56.2763 25.9697 56.4283 25.7121 56.5315C25.4545 56.6347 25.1641 56.6859 24.8401 56.6859C24.4273 56.6859 24.0641 56.6043 23.7505 56.4395C23.4361 56.2755 23.1937 56.0468 23.0233 55.754C22.8521 55.4613 22.7665 55.1301 22.7665 54.7598C22.7665 54.3894 22.8497 54.0655 23.0161 53.7719C23.1825 53.4792 23.4129 53.2504 23.7089 53.0864C24.0041 52.9225 24.3369 52.8401 24.7073 52.8401C25.0777 52.8401 25.4001 52.9209 25.6881 53.0825C25.9761 53.244 26.2009 53.4712 26.3633 53.7639C26.5249 54.0567 26.6057 54.395 26.6057 54.7798C26.6057 54.8406 26.6009 54.9277 26.5913 55.0397V55.0413ZM23.9937 53.7935C23.7993 53.9599 23.6809 54.1815 23.6385 54.4574H25.7681C25.7305 54.1855 25.6161 53.9655 25.4233 53.7967C25.2313 53.628 24.9921 53.544 24.7065 53.544C24.4209 53.544 24.1873 53.6272 23.9929 53.7935H23.9937Z" fill="black"/>
<path d="M32.9038 55.0413H29.9582C30.0094 55.3181 30.1446 55.5372 30.3622 55.6988C30.5798 55.8604 30.851 55.9412 31.1742 55.9412C31.5862 55.9412 31.9262 55.8052 32.1934 55.5332L32.6646 56.0748C32.4958 56.2763 32.2822 56.4283 32.0246 56.5315C31.767 56.6347 31.4766 56.6859 31.1526 56.6859C30.7398 56.6859 30.3766 56.6043 30.063 56.4395C29.7486 56.2755 29.5062 56.0468 29.3358 55.754C29.1646 55.4613 29.079 55.1301 29.079 54.7598C29.079 54.3894 29.1622 54.0655 29.3286 53.7719C29.495 53.4792 29.7254 53.2504 30.0214 53.0864C30.3166 52.9225 30.6494 52.8401 31.0198 52.8401C31.3902 52.8401 31.7126 52.9209 32.0006 53.0825C32.2886 53.244 32.5134 53.4712 32.6758 53.7639C32.8374 54.0567 32.9182 54.395 32.9182 54.7798C32.9182 54.8406 32.9134 54.9277 32.9038 55.0397V55.0413ZM30.3062 53.7935C30.1118 53.9599 29.9934 54.1815 29.951 54.4574H32.0806C32.043 54.1855 31.9286 53.9655 31.7358 53.7967C31.5438 53.628 31.3046 53.544 31.019 53.544C30.7334 53.544 30.4998 53.6272 30.3054 53.7935H30.3062Z" fill="black"/>
<path d="M36.0463 56.6363L35.0831 55.3357L34.1127 56.6363H33.1423L34.6047 54.7318L33.2055 52.8833H34.1823L35.1031 54.1135L36.0239 52.8833H36.9727L35.5671 54.7174L37.0367 56.6363H36.0455H36.0463Z" fill="black"/>
<path d="M40.7456 53.0799C41.0336 53.2391 41.26 53.4638 41.424 53.755C41.588 54.0454 41.6704 54.3805 41.6704 54.7604C41.6704 55.1404 41.588 55.4763 41.424 55.7691C41.26 56.0618 41.0336 56.2882 40.7456 56.4474C40.4576 56.6065 40.1304 56.6865 39.7648 56.6865C39.2584 56.6865 38.8576 56.5177 38.5624 56.1802V58.0007H37.684V52.8839H38.5208V53.3759C38.6664 53.1975 38.8456 53.0639 39.0584 52.9751C39.272 52.8863 39.5072 52.8416 39.7648 52.8416C40.1304 52.8416 40.4576 52.9215 40.7456 53.0807V53.0799ZM40.4648 55.6099C40.6736 55.3947 40.7776 55.1108 40.7776 54.7596C40.7776 54.4085 40.6736 54.1245 40.4648 53.9094C40.256 53.6942 39.9904 53.5862 39.6672 53.5862C39.456 53.5862 39.2664 53.6342 39.0976 53.7302C38.9288 53.8262 38.7952 53.9638 38.6968 54.1413C38.5984 54.3197 38.5488 54.5253 38.5488 54.7596C38.5488 54.994 38.5984 55.2004 38.6968 55.3779C38.7952 55.5563 38.9288 55.6931 39.0976 55.7891C39.2664 55.885 39.456 55.933 39.6672 55.933C39.9904 55.933 40.2568 55.8251 40.4648 55.6099Z" fill="black"/>
<path d="M46.0216 55.0413H43.076C43.1272 55.3181 43.2624 55.5372 43.48 55.6988C43.6976 55.8604 43.9688 55.9412 44.292 55.9412C44.704 55.9412 45.044 55.8052 45.3112 55.5332L45.7824 56.0748C45.6136 56.2763 45.4 56.4283 45.1424 56.5315C44.8848 56.6347 44.5944 56.6859 44.2704 56.6859C43.8576 56.6859 43.4944 56.6043 43.1808 56.4395C42.8664 56.2755 42.624 56.0468 42.4536 55.754C42.2824 55.4613 42.1968 55.1301 42.1968 54.7598C42.1968 54.3894 42.28 54.0655 42.4464 53.7719C42.6128 53.4792 42.8432 53.2504 43.1392 53.0864C43.4344 52.9225 43.7672 52.8401 44.1376 52.8401C44.508 52.8401 44.8304 52.9209 45.1184 53.0825C45.4064 53.244 45.6312 53.4712 45.7936 53.7639C45.9552 54.0567 46.036 54.395 46.036 54.7798C46.036 54.8406 46.0312 54.9277 46.0216 55.0397V55.0413ZM43.424 53.7935C43.2296 53.9599 43.1112 54.1815 43.0688 54.4574H45.1984C45.1608 54.1855 45.0464 53.9655 44.8536 53.7967C44.6616 53.628 44.4224 53.544 44.1368 53.544C43.8512 53.544 43.6176 53.6272 43.4232 53.7935H43.424Z" fill="black"/>
<path d="M49.0511 52.8408V53.6775C48.9759 53.6631 48.9079 53.6567 48.8471 53.6567C48.5047 53.6567 48.2375 53.7567 48.0455 53.955C47.8535 54.1542 47.7575 54.4414 47.7575 54.8157V56.6362H46.8791V52.8832H47.7159V53.4311C47.9687 53.0376 48.4143 52.8408 49.0519 52.8408H49.0511Z" fill="black"/>
<path d="M49.8385 52.1137C49.7305 52.013 49.6769 51.8874 49.6769 51.7378C49.6769 51.5882 49.7305 51.4627 49.8385 51.3619C49.9465 51.2611 50.0801 51.2107 50.2393 51.2107C50.3985 51.2107 50.5321 51.2587 50.6401 51.3547C50.7481 51.4507 50.8017 51.5714 50.8017 51.717C50.8017 51.8714 50.7489 52.0018 50.6433 52.1073C50.5377 52.2129 50.4033 52.2657 50.2393 52.2657C50.0753 52.2657 49.9465 52.2153 49.8385 52.1145V52.1137ZM49.7961 52.8832H50.6745V56.6362H49.7961V52.8832Z" fill="black"/>
<path d="M55.3424 55.0413H52.3968C52.448 55.3181 52.5832 55.5372 52.8008 55.6988C53.0184 55.8604 53.2896 55.9412 53.6128 55.9412C54.0248 55.9412 54.3648 55.8052 54.632 55.5332L55.1032 56.0748C54.9344 56.2763 54.7216 56.4283 54.4632 56.5315C54.2056 56.6347 53.9152 56.6859 53.5912 56.6859C53.1784 56.6859 52.8152 56.6043 52.5016 56.4395C52.1872 56.2755 51.9448 56.0468 51.7744 55.754C51.6032 55.4613 51.5176 55.1301 51.5176 54.7598C51.5176 54.3894 51.6008 54.0655 51.7672 53.7719C51.9336 53.4792 52.164 53.2504 52.46 53.0864C52.7552 52.9225 53.088 52.8401 53.4584 52.8401C53.8288 52.8401 54.1512 52.9209 54.4392 53.0825C54.7272 53.244 54.9528 53.4712 55.1144 53.7639C55.276 54.0567 55.3568 54.395 55.3568 54.7798C55.3568 54.8406 55.352 54.9277 55.3424 55.0397V55.0413ZM52.7448 53.7935C52.5504 53.9599 52.432 54.1815 52.3896 54.4574H54.5192C54.4816 54.1855 54.3672 53.9655 54.1744 53.7967C53.9824 53.628 53.7432 53.544 53.4576 53.544C53.172 53.544 52.9384 53.6272 52.744 53.7935H52.7448Z" fill="black"/>
<path d="M59.4697 53.2561C59.7553 53.5328 59.8985 53.9423 59.8985 54.4863V56.6371H59.0201V54.599C59.0201 54.2711 58.9425 54.0239 58.7881 53.8576C58.6337 53.6912 58.4129 53.608 58.1273 53.608C57.8041 53.608 57.5481 53.7056 57.3609 53.9C57.1737 54.0943 57.0801 54.3743 57.0801 54.7398V56.6379H56.2017V52.8849H57.0385V53.3696C57.1841 53.1961 57.3665 53.0649 57.5865 52.9761C57.8065 52.8873 58.0553 52.8425 58.3313 52.8425C58.8049 52.8425 59.1841 52.9809 59.4705 53.2569L59.4697 53.2561Z" fill="black"/>
<path d="M61.7256 56.4394C61.416 56.2755 61.1752 56.0467 61.0016 55.7539C60.828 55.4612 60.7416 55.13 60.7416 54.7597C60.7416 54.3894 60.828 54.059 61.0016 53.7687C61.1752 53.4783 61.4152 53.2512 61.7224 53.0872C62.0296 52.9232 62.38 52.8408 62.7736 52.8408C63.144 52.8408 63.468 52.916 63.7472 53.0656C64.0256 53.216 64.236 53.4311 64.376 53.7119L63.7008 54.1054C63.5928 53.9318 63.4584 53.8023 63.2968 53.7151C63.1352 53.6287 62.9584 53.5847 62.7664 53.5847C62.4384 53.5847 62.1664 53.6911 61.9512 53.9046C61.7352 54.1182 61.628 54.403 61.628 54.7589C61.628 55.1148 61.7344 55.3996 61.948 55.6132C62.1616 55.8267 62.4344 55.9331 62.7672 55.9331C62.9592 55.9331 63.136 55.8899 63.2976 55.8027C63.4592 55.7163 63.5944 55.586 63.7016 55.4124L64.3768 55.8059C64.2312 56.0867 64.0192 56.3042 63.7408 56.4562C63.4616 56.609 63.14 56.685 62.7744 56.685C62.3856 56.685 62.036 56.6034 61.7272 56.4386L61.7256 56.4394Z" fill="black"/>
<path d="M68.5936 55.0413H65.648C65.6992 55.3181 65.8344 55.5372 66.052 55.6988C66.2696 55.8604 66.5408 55.9412 66.864 55.9412C67.276 55.9412 67.616 55.8052 67.8832 55.5332L68.3544 56.0748C68.1856 56.2763 67.9728 56.4283 67.7144 56.5315C67.4568 56.6347 67.1664 56.6859 66.8424 56.6859C66.4296 56.6859 66.0664 56.6043 65.7528 56.4395C65.4384 56.2755 65.196 56.0468 65.0256 55.754C64.8544 55.4613 64.7688 55.1301 64.7688 54.7598C64.7688 54.3894 64.852 54.0655 65.0184 53.7719C65.1848 53.4792 65.4152 53.2504 65.7112 53.0864C66.0064 52.9225 66.3392 52.8401 66.7096 52.8401C67.08 52.8401 67.4024 52.9209 67.6904 53.0825C67.9784 53.244 68.204 53.4712 68.3656 53.7639C68.5272 54.0567 68.608 54.395 68.608 54.7798C68.608 54.8406 68.6032 54.9277 68.5936 55.0397V55.0413ZM65.996 53.7935C65.8016 53.9599 65.6832 54.1815 65.6408 54.4574H67.7704C67.7328 54.1855 67.6184 53.9655 67.4256 53.7967C67.2336 53.628 66.9944 53.544 66.7088 53.544C66.4232 53.544 66.1896 53.6272 65.9952 53.7935H65.996Z" fill="black"/>
<path d="M75.1664 56.7137L74.5479 56.1162C74.0887 56.5098 73.5384 56.7065 72.896 56.7065C72.5536 56.7065 72.2472 56.6505 71.9752 56.5378C71.7032 56.425 71.4904 56.2698 71.3352 56.0706C71.1808 55.8715 71.1031 55.6451 71.1031 55.3923C71.1031 55.0876 71.192 54.8196 71.3704 54.5877C71.5488 54.3557 71.8392 54.127 72.2424 53.9022C72.0456 53.7054 71.9048 53.5214 71.8208 53.3503C71.7368 53.1791 71.6944 53.0023 71.6944 52.82C71.6944 52.4736 71.824 52.1937 72.0848 51.9801C72.3448 51.7665 72.6904 51.6602 73.1216 51.6602C73.52 51.6602 73.8383 51.7577 74.0775 51.9521C74.3167 52.1465 74.436 52.4104 74.436 52.7432C74.436 52.9959 74.3576 53.2207 74.2008 53.4183C74.044 53.615 73.7872 53.8142 73.4312 54.0158L74.4927 55.0276C74.6095 54.798 74.7016 54.5213 74.7672 54.1981L75.4775 54.4301C75.3839 54.866 75.236 55.2412 75.0344 55.5547L75.6527 56.145L75.1679 56.7145L75.1664 56.7137ZM74.0272 55.6171L72.7264 54.3733C72.4456 54.5277 72.2472 54.6765 72.132 54.8196C72.0168 54.9628 71.96 55.1228 71.96 55.3012C71.96 55.5075 72.0512 55.6739 72.2344 55.8003C72.4176 55.9267 72.6583 55.9898 72.9583 55.9898C73.3663 55.9898 73.7224 55.8659 74.0272 55.6171ZM72.6631 52.4296C72.5503 52.5256 72.4944 52.6512 72.4944 52.8056C72.4944 52.9183 72.5248 53.0247 72.5856 53.1255C72.6464 53.2263 72.764 53.3631 72.9368 53.5366C73.2176 53.3823 73.4136 53.2471 73.524 53.1327C73.6344 53.0175 73.6888 52.8928 73.6888 52.7568C73.6888 52.6112 73.6383 52.4968 73.5375 52.412C73.4367 52.328 73.2976 52.2857 73.1192 52.2857C72.9272 52.2857 72.7744 52.3336 72.6624 52.4296H72.6631Z" fill="black"/>
<path d="M78.2944 51.4211H79.1728V56.6363H78.2944V51.4211Z" fill="black"/>
<path d="M80.9865 56.4394C80.6817 56.2755 80.4441 56.0467 80.2729 55.7539C80.1017 55.4612 80.0161 55.13 80.0161 54.7597C80.0161 54.3894 80.1017 54.059 80.2729 53.7687C80.4441 53.4783 80.6817 53.2512 80.9865 53.0872C81.2913 52.9232 81.6329 52.8408 82.0129 52.8408C82.3929 52.8408 82.7417 52.9232 83.0465 53.0872C83.3513 53.2512 83.5889 53.4783 83.7601 53.7687C83.9313 54.059 84.0169 54.3894 84.0169 54.7597C84.0169 55.13 83.9313 55.4612 83.7601 55.7539C83.5889 56.0467 83.3513 56.2755 83.0465 56.4394C82.7417 56.6034 82.3977 56.6858 82.0129 56.6858C81.6281 56.6858 81.2913 56.6042 80.9865 56.4394ZM82.8145 55.61C83.0257 55.3948 83.1305 55.1108 83.1305 54.7597C83.1305 54.4086 83.0249 54.1246 82.8145 53.9094C82.6033 53.6943 82.3361 53.5863 82.0129 53.5863C81.6897 53.5863 81.4233 53.6943 81.2153 53.9094C81.0065 54.1254 80.9025 54.4086 80.9025 54.7597C80.9025 55.1108 81.0065 55.3948 81.2153 55.61C81.4241 55.8259 81.6897 55.9331 82.0129 55.9331C82.3361 55.9331 82.6033 55.8251 82.8145 55.61Z" fill="black"/>
<path d="M88.2698 52.8833L86.6602 56.6363H85.7538L84.1442 52.8833H85.0578L86.225 55.6668L87.4274 52.8833H88.2706H88.2698Z" fill="black"/>
<path d="M92.2271 55.0413H89.2815C89.3327 55.3181 89.4679 55.5372 89.6855 55.6988C89.9031 55.8604 90.1743 55.9412 90.4975 55.9412C90.9095 55.9412 91.2495 55.8052 91.5167 55.5332L91.9879 56.0748C91.8191 56.2763 91.6063 56.4283 91.3479 56.5315C91.0903 56.6347 90.7999 56.6859 90.4759 56.6859C90.0631 56.6859 89.6999 56.6043 89.3863 56.4395C89.0719 56.2755 88.8295 56.0468 88.6591 55.754C88.4879 55.4613 88.4023 55.1301 88.4023 54.7598C88.4023 54.3894 88.4855 54.0655 88.6519 53.7719C88.8183 53.4792 89.0487 53.2504 89.3447 53.0864C89.6399 52.9225 89.9727 52.8401 90.3431 52.8401C90.7135 52.8401 91.0359 52.9209 91.3239 53.0825C91.6119 53.244 91.8375 53.4712 91.9991 53.7639C92.1607 54.0567 92.2415 54.395 92.2415 54.7798C92.2415 54.8406 92.2367 54.9277 92.2271 55.0397V55.0413ZM89.6295 53.7935C89.4351 53.9599 89.3167 54.1815 89.2743 54.4574H91.4039C91.3663 54.1855 91.2519 53.9655 91.0591 53.7967C90.8671 53.628 90.6279 53.544 90.3423 53.544C90.0567 53.544 89.8231 53.6272 89.6287 53.7935H89.6295Z" fill="black"/>
</g>
<defs>
<clipPath id="clip0_1_14118">
<rect width="96" height="58" fill="white"/>
</clipPath>
</defs>
</svg>
