<svg width="320" height="52" viewBox="0 0 320 52" fill="none" xmlns="http://www.w3.org/2000/svg">
<path d="M12.7769 43.1143C11.3572 43.1143 10.1479 42.9039 9.04371 42.5359C7.99211 42.1153 7.09826 41.5369 6.36214 40.8008C5.62603 40.0647 5.10023 39.1183 4.73217 38.0667C4.36411 37.0152 4.1538 35.8059 4.1538 34.4914V19.2963H1.62997C1.15675 19.2963 0.788695 19.1385 0.473217 18.8756C0.157739 18.5602 0 18.1395 0 17.5612V14.1436L4.67959 13.2497L6.41472 6.04651C6.62504 5.15268 7.30858 4.67947 8.36017 4.67947H12.9346V13.3023H20.2432V19.2963H12.9346V33.913C12.9346 34.5966 13.0923 35.1749 13.4078 35.5955C13.7233 36.0162 14.2491 36.2265 14.8801 36.2265C15.1955 36.2265 15.4584 36.1739 15.6687 36.1213C15.8791 36.0688 16.0894 35.9636 16.2471 35.911C16.4049 35.8059 16.5626 35.7533 16.7203 35.7007C16.8781 35.6481 17.0358 35.5955 17.2461 35.5955C17.509 35.5955 17.7194 35.6481 17.8771 35.8059C18.0348 35.911 18.1926 36.1213 18.4029 36.3842L21.0845 40.5379C19.9277 41.3792 18.6658 42.0101 17.2461 42.4833C15.7739 42.9039 14.3017 43.1143 12.7769 43.1143ZM24.0289 42.6936V0.157735H32.8097V15.8261C33.8613 14.9323 35.0181 14.1962 36.2274 13.6178C37.4893 13.0394 38.9616 12.7765 40.6967 12.7765C42.3267 12.7765 43.7463 13.0394 44.9556 13.6178C46.2176 14.1436 47.2691 14.9323 48.1104 15.9312C48.9517 16.9302 49.5826 18.087 50.0559 19.454C50.4765 20.821 50.6868 22.2932 50.6868 23.9232V42.6411H41.906V23.9757C41.906 22.5561 41.5905 21.3994 40.907 20.6107C40.2235 19.822 39.277 19.4014 37.9625 19.4014C37.0161 19.4014 36.0697 19.6117 35.2284 20.0324C34.3871 20.453 33.5458 21.0313 32.8097 21.7149V42.6936H24.0289ZM69.4052 12.7765C71.3506 12.7765 73.1384 13.092 74.7683 13.6704C76.3983 14.3013 77.7654 15.1426 78.9221 16.2993C80.0789 17.456 81.0253 18.8756 81.6563 20.5581C82.3398 22.2406 82.6553 24.1335 82.6553 26.2366C82.6553 26.9201 82.6027 27.4459 82.5501 27.8665C82.4975 28.2872 82.3924 28.6026 82.2346 28.8655C82.0769 29.1284 81.8666 29.2861 81.6037 29.3913C81.3408 29.4965 81.0253 29.549 80.6572 29.549H63.674C63.9369 32.0202 64.7256 33.8079 65.9349 34.912C67.1443 36.0162 68.7217 36.542 70.6145 36.542C71.6135 36.542 72.5074 36.4368 73.2435 36.1739C73.9796 35.911 74.6106 35.6481 75.189 35.3327C75.7673 35.0172 76.2931 34.7543 76.7664 34.4914C77.2396 34.2285 77.7654 34.1234 78.2912 34.1234C78.9747 34.1234 79.5005 34.3862 79.8686 34.912L82.445 38.0667C81.5511 39.1183 80.5521 39.9596 79.5005 40.6431C78.4489 41.274 77.3973 41.7998 76.2406 42.1678C75.1364 42.5359 74.0322 42.7988 72.928 42.9039C71.8239 43.0617 70.7723 43.1143 69.7733 43.1143C67.7226 43.1143 65.7772 42.7988 63.9369 42.1153C62.1492 41.4317 60.5718 40.4328 59.2047 39.1183C57.8377 37.8038 56.7861 36.1213 55.9974 34.1759C55.2087 32.2305 54.8406 29.9171 54.8406 27.2882C54.8406 25.3428 55.1561 23.4499 55.8396 21.7149C56.5232 19.9798 57.4696 18.4024 58.7315 17.088C59.9934 15.7735 61.5182 14.7219 63.306 13.9333C65.1462 13.1446 67.1443 12.7765 69.4052 12.7765ZM69.5629 18.8756C67.8804 18.8756 66.5659 19.3488 65.6195 20.3478C64.673 21.2942 64.0421 22.6613 63.7266 24.4489H74.7158C74.7158 23.7654 74.6106 23.0819 74.4529 22.3984C74.2951 21.7149 73.9796 21.1365 73.559 20.6633C73.1384 20.1375 72.6126 19.7169 71.9816 19.4014C71.2981 19.0334 70.5094 18.8756 69.5629 18.8756ZM121.407 42.6936C120.302 42.6936 119.566 42.2204 119.251 41.2214L118.567 38.9606C117.989 39.5915 117.358 40.1699 116.727 40.6431C116.096 41.1163 115.36 41.5895 114.624 41.9575C113.888 42.3256 113.099 42.5885 112.205 42.7988C111.364 43.0091 110.417 43.1143 109.418 43.1143C107.894 43.1143 106.474 42.7988 105.159 42.1153C103.845 41.4317 102.741 40.4328 101.794 39.1709C100.848 37.909 100.112 36.3316 99.5334 34.4388C99.0076 32.546 98.7447 30.4429 98.7447 28.0768C98.7447 25.8686 99.0602 23.8706 99.6385 21.9778C100.269 20.0849 101.111 18.455 102.215 17.088C103.319 15.7209 104.686 14.6168 106.211 13.8281C107.788 13.0394 109.471 12.6714 111.364 12.6714C112.889 12.6714 114.151 12.8817 115.202 13.3549C116.254 13.7755 117.2 14.3539 118.094 15.09V0.157735H126.875V42.6411H121.407V42.6936ZM112.468 36.3842C113.099 36.3842 113.677 36.3316 114.203 36.2265C114.729 36.0688 115.202 35.911 115.675 35.7007C116.149 35.4904 116.517 35.1749 116.885 34.8595C117.305 34.544 117.673 34.1234 118.041 33.6502V21.1365C117.358 20.4004 116.622 19.8746 115.833 19.6117C115.097 19.2963 114.256 19.1385 113.414 19.1385C112.626 19.1385 111.837 19.2963 111.153 19.6117C110.47 19.9272 109.892 20.453 109.366 21.1891C108.893 21.8726 108.472 22.819 108.209 23.9232C107.946 25.0799 107.788 26.4469 107.788 28.0243C107.788 29.6016 107.894 30.8635 108.104 31.9676C108.314 33.0192 108.63 33.913 109.05 34.544C109.471 35.1749 109.944 35.6481 110.523 35.911C111.153 36.2265 111.784 36.3842 112.468 36.3842ZM141.807 13.2497V42.6936H133.027V13.2497H141.807ZM142.701 5.15268C142.701 5.8362 142.544 6.51972 142.281 7.15066C142.018 7.7816 141.597 8.30738 141.124 8.78059C140.651 9.25379 140.072 9.62184 139.389 9.88473C138.758 10.1476 138.074 10.3054 137.338 10.3054C136.602 10.3054 135.971 10.1476 135.34 9.88473C134.709 9.62184 134.131 9.25379 133.658 8.78059C133.184 8.30738 132.816 7.7816 132.501 7.15066C132.238 6.51972 132.08 5.88878 132.08 5.15268C132.08 4.41658 132.238 3.78564 132.501 3.1547C132.764 2.52376 133.184 1.99798 133.658 1.52477C134.131 1.05157 134.709 0.683519 135.34 0.420627C135.971 0.157735 136.655 0 137.338 0C138.074 0 138.758 0.157735 139.389 0.420627C140.072 0.683519 140.651 1.05157 141.124 1.52477C141.597 1.99798 142.018 2.52376 142.281 3.1547C142.544 3.78564 142.701 4.46916 142.701 5.15268ZM164.259 42.6936H156.267L144.857 13.2497H152.166C152.797 13.2497 153.322 13.4075 153.743 13.723C154.164 13.9858 154.479 14.3539 154.637 14.8271L158.738 28.0243C159.106 29.1284 159.422 30.18 159.685 31.179C159.947 32.178 160.21 33.2295 160.421 34.2285C160.631 33.2295 160.894 32.178 161.157 31.179C161.42 30.18 161.788 29.1284 162.156 28.0243L166.415 14.8271C166.572 14.4065 166.835 14.0384 167.256 13.723C167.677 13.4075 168.15 13.2497 168.728 13.2497H175.721L164.259 42.6936ZM190.496 12.7765C192.442 12.7765 194.229 13.092 195.859 13.6704C197.489 14.3013 198.856 15.1426 200.013 16.2993C201.17 17.456 202.116 18.8756 202.747 20.5581C203.431 22.2406 203.746 24.1335 203.746 26.2366C203.746 26.9201 203.694 27.4459 203.641 27.8665C203.589 28.2872 203.483 28.6026 203.326 28.8655C203.168 29.1284 202.958 29.2861 202.695 29.3913C202.432 29.4965 202.116 29.549 201.748 29.549H184.765C185.028 32.0202 185.817 33.8079 187.026 34.912C188.235 36.0162 189.813 36.542 191.706 36.542C192.705 36.542 193.598 36.4368 194.335 36.1739C195.071 35.911 195.702 35.6481 196.28 35.3327C196.858 35.0172 197.384 34.7543 197.857 34.4914C198.331 34.2285 198.856 34.1234 199.382 34.1234C200.066 34.1234 200.592 34.3862 200.96 34.912L203.536 38.0667C202.642 39.1183 201.643 39.9596 200.592 40.6431C199.54 41.274 198.488 41.7998 197.332 42.1678C196.227 42.5359 195.123 42.7988 194.019 42.9039C192.915 43.0617 191.863 43.1143 190.864 43.1143C188.814 43.1143 186.868 42.7988 185.028 42.1153C183.24 41.4317 181.663 40.4328 180.296 39.1183C178.929 37.8038 177.877 36.1213 177.088 34.1759C176.3 32.2305 175.932 29.9171 175.932 27.2882C175.932 25.3428 176.247 23.4499 176.931 21.7149C177.614 19.9798 178.561 18.4024 179.823 17.088C181.084 15.7735 182.609 14.7219 184.397 13.9333C186.237 13.1446 188.235 12.7765 190.496 12.7765ZM190.707 18.8756C189.024 18.8756 187.71 19.3488 186.763 20.3478C185.817 21.2942 185.186 22.6613 184.87 24.4489H195.859C195.859 23.7654 195.754 23.0819 195.596 22.3984C195.439 21.7149 195.123 21.1365 194.703 20.6633C194.282 20.1375 193.756 19.7169 193.125 19.4014C192.442 19.0334 191.653 18.8756 190.707 18.8756ZM208.163 42.6936V13.2497H213.368C213.789 13.2497 214.157 13.3023 214.473 13.3549C214.788 13.4075 214.998 13.5652 215.209 13.723C215.419 13.8807 215.577 14.091 215.682 14.3539C215.787 14.6168 215.892 14.9323 215.945 15.3003L216.365 17.8241C217.312 16.2467 218.363 14.9848 219.52 14.091C220.73 13.1446 222.097 12.724 223.621 12.724C224.936 12.724 226.04 13.0394 226.881 13.6704L226.303 20.1375C226.198 20.5581 226.04 20.821 225.83 20.9788C225.619 21.1365 225.304 21.1891 224.936 21.1891C224.778 21.1891 224.568 21.1891 224.358 21.1365C224.095 21.1365 223.832 21.0839 223.569 21.0839C223.306 21.0313 223.043 21.0313 222.728 20.9788C222.465 20.9262 222.202 20.9262 221.991 20.9262C220.73 20.9262 219.678 21.2942 218.889 21.9778C218.153 22.6613 217.47 23.6077 216.944 24.817V42.6936H208.163ZM248.544 19.6643C248.334 20.0324 248.071 20.2952 247.808 20.453C247.545 20.6107 247.23 20.6633 246.862 20.6633C246.441 20.6633 246.02 20.5581 245.6 20.4004C245.179 20.1901 244.706 20.0324 244.233 19.822C243.759 19.6117 243.234 19.4014 242.603 19.2437C241.972 19.0334 241.288 18.9808 240.552 18.9808C239.448 18.9808 238.554 19.1911 237.976 19.6117C237.397 20.0324 237.082 20.6107 237.082 21.3468C237.082 21.8726 237.292 22.3458 237.66 22.7139C238.081 23.0819 238.554 23.3974 239.238 23.6603C239.869 23.9232 240.605 24.186 241.446 24.4489C242.235 24.7118 243.076 24.9747 243.97 25.2902C244.811 25.6057 245.652 25.9737 246.494 26.3943C247.282 26.815 248.018 27.2882 248.702 27.9191C249.333 28.4975 249.859 29.2336 250.227 30.0748C250.647 30.9161 250.805 31.9676 250.805 33.1244C250.805 34.5966 250.542 35.911 250.016 37.1729C249.491 38.3822 248.702 39.4863 247.65 40.3276C246.599 41.2214 245.337 41.905 243.759 42.3782C242.235 42.8514 240.447 43.1143 238.449 43.1143C237.45 43.1143 236.451 43.0091 235.452 42.8514C234.453 42.6936 233.454 42.4307 232.507 42.0627C231.561 41.7472 230.72 41.3792 229.931 40.906C229.142 40.4328 228.459 39.9596 227.88 39.4338L229.931 36.1739C230.141 35.8059 230.457 35.4904 230.772 35.2801C231.14 35.0698 231.561 34.9646 232.139 34.9646C232.665 34.9646 233.086 35.0698 233.506 35.2801C233.927 35.4904 234.348 35.7533 234.821 36.0162C235.294 36.2791 235.82 36.542 236.451 36.7523C237.082 36.9626 237.923 37.0677 238.87 37.0677C239.553 37.0677 240.131 37.0152 240.605 36.8574C241.078 36.6997 241.446 36.4894 241.761 36.2791C242.024 36.0162 242.235 35.7533 242.392 35.4378C242.55 35.1223 242.603 34.8069 242.603 34.4914C242.603 33.913 242.392 33.4398 242.024 33.0192C241.604 32.6512 241.13 32.3357 240.447 32.0728C239.816 31.8099 239.08 31.547 238.239 31.2841C237.45 31.0212 236.609 30.7583 235.715 30.4429C234.873 30.1274 234.032 29.7593 233.191 29.3387C232.402 28.9181 231.666 28.3397 230.983 27.7088C230.352 27.0253 229.826 26.2366 229.405 25.2902C228.985 24.3438 228.827 23.1871 228.827 21.8726C228.827 20.6107 229.09 19.454 229.563 18.2973C230.036 17.1405 230.772 16.1416 231.771 15.3003C232.718 14.459 233.927 13.7755 235.399 13.3023C236.872 12.7765 238.554 12.5136 240.5 12.5136C241.551 12.5136 242.603 12.6188 243.549 12.7765C244.548 12.9869 245.495 13.2497 246.336 13.5652C247.23 13.8807 248.018 14.3013 248.702 14.7745C249.438 15.2477 250.069 15.7209 250.595 16.2993L248.544 19.6643ZM264.108 13.2497V42.6936H255.327V13.2497H264.108ZM265.054 5.15268C265.054 5.8362 264.897 6.51972 264.634 7.15066C264.371 7.7816 263.95 8.30738 263.477 8.78059C263.004 9.25379 262.425 9.62184 261.742 9.88473C261.111 10.1476 260.427 10.3054 259.691 10.3054C258.955 10.3054 258.324 10.1476 257.693 9.88473C257.062 9.62184 256.536 9.25379 256.011 8.78059C255.537 8.30738 255.169 7.7816 254.854 7.15066C254.591 6.51972 254.433 5.88878 254.433 5.15268C254.433 4.41658 254.591 3.78564 254.854 3.1547C255.117 2.52376 255.537 1.99798 256.011 1.52477C256.484 1.05157 257.062 0.683519 257.693 0.420627C258.324 0.157735 259.008 0 259.691 0C260.427 0 261.111 0.157735 261.742 0.420627C262.425 0.683519 263.004 1.05157 263.477 1.52477C263.95 1.99798 264.371 2.52376 264.634 3.1547C264.897 3.78564 265.054 4.46916 265.054 5.15268ZM280.776 43.1143C279.356 43.1143 278.147 42.9039 277.042 42.5359C275.991 42.1153 275.097 41.5369 274.361 40.8008C273.625 40.0647 273.099 39.1183 272.731 38.0667C272.363 37.0152 272.152 35.8059 272.152 34.4914V19.2963H269.629C269.155 19.2963 268.787 19.1385 268.472 18.8756C268.156 18.5602 267.999 18.1395 267.999 17.5612V14.1436L272.678 13.2497L274.413 6.04651C274.624 5.15268 275.307 4.67947 276.359 4.67947H280.933V13.3023H288.242V19.2963H280.933V33.913C280.933 34.5966 281.091 35.1749 281.407 35.5955C281.722 36.0162 282.248 36.2265 282.879 36.2265C283.194 36.2265 283.457 36.1739 283.667 36.1213C283.878 36.0688 284.088 35.9636 284.246 35.911C284.404 35.8059 284.561 35.7533 284.719 35.7007C284.877 35.6481 285.035 35.5955 285.245 35.5955C285.508 35.5955 285.718 35.6481 285.876 35.8059C286.034 35.911 286.191 36.1213 286.402 36.3842L289.083 40.5379C287.926 41.3792 286.665 42.0101 285.245 42.4833C283.773 42.9039 282.3 43.1143 280.776 43.1143ZM304.279 50.3175C304.016 50.8959 303.7 51.3165 303.332 51.5794C302.964 51.8423 302.333 52 301.492 52H294.92L300.598 40.0647L288.82 13.1972H296.602C297.286 13.1972 297.811 13.3549 298.179 13.6704C298.548 13.9858 298.81 14.3539 299.021 14.7745L303.858 27.4459C304.331 28.6026 304.699 29.8119 304.962 30.9687C305.173 30.3377 305.33 29.7594 305.541 29.181C305.751 28.55 306.014 27.9717 306.224 27.3933L310.588 14.7745C310.746 14.3539 311.061 13.9858 311.482 13.6704C311.903 13.3549 312.376 13.1972 312.902 13.1972H320L304.279 50.3175Z" fill="white"/>
</svg>
