<svg width="397" height="115" viewBox="0 0 397 115" fill="none" xmlns="http://www.w3.org/2000/svg">
<g clip-path="url(#clip0)">
<path d="M0 104.18V0H104.18L0 104.18Z" fill="#FFD970"/>
<g style="mix-blend-mode:multiply">
<path d="M36.66 0H0V104.18H35C35.55 104.18 36.09 104.18 36.64 104.18C66.77 104.18 91.19 80.86 91.19 52.09C91.19 23.32 66.79 0 36.66 0Z" fill="#FFD970"/>
</g>
<path d="M0 104.18V0L51.93 52.09L0 104.18Z" fill="#FF595C"/>
<path d="M104.18 104.18H0L104.18 0V104.18Z" fill="#475FEA"/>
<g style="mix-blend-mode:multiply" opacity="0.85">
<path d="M0 104.18H35C35.55 104.18 36.09 104.18 36.64 104.18C66.77 104.18 91.19 80.86 91.19 52.09C91.1842 41.4867 87.8239 31.1571 81.59 22.58L0 104.18Z" fill="#475FEA"/>
</g>
<path d="M138.48 19.45H141.39V36.77C141.369 38.1818 141.596 39.5864 142.06 40.92C142.464 42.1021 143.123 43.1809 143.99 44.08C144.886 44.9681 145.964 45.6505 147.15 46.08C148.535 46.5763 149.999 46.8169 151.47 46.79C153.211 46.794 154.943 46.5413 156.61 46.04C158.226 45.5687 159.743 44.8099 161.09 43.8L157.97 38.93C157.818 38.6713 157.621 38.4412 157.39 38.25C157.169 38.1006 156.906 38.0269 156.64 38.04C156.441 38.0331 156.243 38.0707 156.06 38.15L155.53 38.42C155.318 38.5254 155.097 38.6124 154.87 38.68C154.561 38.7676 154.241 38.808 153.92 38.8C153.6 38.8134 153.28 38.7496 152.99 38.6138C152.699 38.4781 152.445 38.2744 152.25 38.02C151.839 37.4366 151.635 36.7327 151.67 36.02V19.45H160.19V12.45H151.67V0.22999H146.3C145.793 0.156102 145.276 0.279891 144.858 0.575784C144.439 0.871677 144.15 1.31707 144.05 1.81999L142.05 12.35L136.58 13.41V17.41C136.56 17.688 136.6 17.967 136.699 18.2278C136.797 18.4886 136.951 18.7248 137.15 18.92C137.507 19.2633 137.985 19.4535 138.48 19.45ZM180.94 19.1C181.58 19.0553 182.222 19.1593 182.815 19.4039C183.409 19.6485 183.937 20.0271 184.36 20.51C185.196 21.6433 185.607 23.0344 185.52 24.44V46.29H195.8V24.44C195.813 22.6715 195.557 20.9113 195.04 19.22C194.578 17.6967 193.809 16.2842 192.78 15.07C191.775 13.9054 190.525 12.9767 189.12 12.35C187.544 11.6644 185.839 11.3235 184.12 11.35C182.339 11.312 180.57 11.6529 178.93 12.35C177.483 13.0151 176.136 13.8802 174.93 14.92V0.219995H164.62V46.29H174.9V21.79C175.753 20.9948 176.712 20.3218 177.75 19.79C178.743 19.3179 179.831 19.0818 180.93 19.1H180.94ZM205.73 42.1C207.302 43.6479 209.188 44.8413 211.26 45.6C213.434 46.399 215.734 46.7988 218.05 46.78C219.284 46.7774 220.517 46.6939 221.74 46.53C223.06 46.3589 224.36 46.0574 225.62 45.63C226.947 45.186 228.216 44.585 229.4 43.84C230.687 43.0178 231.844 42.0064 232.83 40.84L229.83 37.16C229.623 36.8638 229.343 36.6256 229.017 36.468C228.692 36.3105 228.331 36.2389 227.97 36.26C227.354 36.2623 226.748 36.4097 226.2 36.69L224.34 37.69C223.603 38.0869 222.833 38.4215 222.04 38.69C221.039 38.9931 219.996 39.1382 218.95 39.12C216.945 39.1989 214.987 38.5044 213.48 37.18C212.07 35.88 211.19 33.8 210.86 30.93H230.69C231.077 30.9406 231.463 30.8831 231.83 30.76C232.132 30.6486 232.386 30.4368 232.55 30.16C232.745 29.8007 232.867 29.4066 232.91 29C232.987 28.373 233.02 27.7415 233.01 27.11C233.047 24.845 232.66 22.5931 231.87 20.47C231.171 18.5971 230.084 16.8932 228.68 15.47C227.298 14.1036 225.637 13.0528 223.81 12.39C219.478 10.8733 214.742 10.9763 210.48 12.68C208.482 13.5182 206.677 14.7574 205.178 16.3209C203.678 17.8844 202.515 19.739 201.76 21.77C200.971 23.8561 200.571 26.0695 200.58 28.3C200.527 31.0302 200.995 33.7455 201.96 36.3C202.784 38.4917 204.066 40.4825 205.72 42.14L205.73 42.1ZM213.17 20.1C213.785 19.5233 214.511 19.0779 215.303 18.7908C216.096 18.5036 216.938 18.3809 217.78 18.43C218.75 18.4048 219.713 18.5961 220.6 18.99C221.329 19.333 221.969 19.8395 222.47 20.47C222.939 21.0856 223.279 21.7897 223.47 22.54C223.679 23.3194 223.783 24.1231 223.78 24.93H210.97C211.196 23.1479 211.96 21.4771 213.16 20.14L213.17 20.1ZM159.31 71.97C158.308 71.1383 157.185 70.4639 155.98 69.97C154.55 69.4131 153.024 69.1479 151.49 69.19C149.411 69.1629 147.355 69.629 145.49 70.55C143.68 71.4466 142.089 72.7302 140.83 74.31C139.488 76.009 138.47 77.9414 137.83 80.01C137.104 82.3231 136.747 84.7359 136.77 87.16C136.734 89.6718 137.05 92.1762 137.71 94.6C138.246 96.5784 139.126 98.447 140.31 100.12C141.342 101.56 142.694 102.741 144.26 103.57C145.803 104.373 147.521 104.782 149.26 104.76C150.36 104.771 151.457 104.654 152.53 104.41C153.505 104.186 154.451 103.85 155.35 103.41C156.213 102.986 157.028 102.47 157.78 101.87C158.546 101.254 159.267 100.586 159.94 99.87L160.73 102.49C160.889 103.022 161.226 103.484 161.685 103.797C162.144 104.11 162.696 104.256 163.25 104.21H169.62V58.17H159.3L159.31 71.97ZM159.31 93.62C158.899 94.1165 158.451 94.5811 157.97 95.01C157.535 95.4037 157.051 95.7398 156.53 96.01C155.998 96.2849 155.433 96.4932 154.85 96.63C154.193 96.7733 153.522 96.8438 152.85 96.84C152.081 96.8525 151.32 96.6811 150.63 96.34C149.918 95.9642 149.325 95.396 148.92 94.7C148.385 93.7689 148.01 92.7549 147.81 91.7C147.525 90.1938 147.395 88.6626 147.42 87.13C147.391 85.5128 147.555 83.898 147.91 82.32C148.169 81.1681 148.637 80.0734 149.29 79.09C149.811 78.3172 150.525 77.6934 151.36 77.28C152.18 76.8982 153.076 76.7068 153.98 76.72C154.95 76.7165 155.912 76.8892 156.82 77.23C157.792 77.6291 158.658 78.2487 159.35 79.04L159.31 93.62ZM186.31 56.35C185.11 55.2118 183.514 54.5844 181.86 54.6C181.054 54.5919 180.254 54.7484 179.51 55.06C178.788 55.3638 178.13 55.8015 177.57 56.35C177.01 56.9042 176.558 57.5589 176.24 58.28C175.917 59.0211 175.754 59.8217 175.76 60.63C175.755 61.4253 175.918 62.2126 176.24 62.94C176.524 63.667 176.945 64.3324 177.48 64.9C178.042 65.4483 178.699 65.8889 179.42 66.2C180.161 66.5225 180.962 66.6861 181.77 66.68C182.607 66.6861 183.437 66.5229 184.21 66.2C184.95 65.8913 185.628 65.4508 186.21 64.9C186.775 64.3625 187.236 63.7251 187.57 63.02C187.9 62.2948 188.067 61.5065 188.06 60.71C188.068 59.9005 187.901 59.0989 187.57 58.36C187.257 57.6292 186.813 56.9617 186.26 56.39L186.31 56.35ZM176.82 104.19H187.1V69.9H176.77L176.82 104.19ZM216.82 70.33C216.357 70.6331 216.006 71.0791 215.82 71.6L210.82 87.02C210.38 88.28 209.99 89.51 209.66 90.7C209.33 91.89 209.04 93.09 208.8 94.28C208.56 93.09 208.27 91.89 207.96 90.7C207.65 89.51 207.26 88.28 206.84 87.02L202.07 71.6C201.885 71.0787 201.533 70.6326 201.07 70.33C200.526 69.9683 199.883 69.7865 199.23 69.81H190.67L204 104.19H213.35L226.64 69.9H218.48C217.871 69.8701 217.269 70.0347 216.76 70.37L216.82 70.33ZM255.16 73.43C253.776 72.0637 252.116 71.01 250.29 70.34C245.956 68.8264 241.221 68.933 236.96 70.64C234.964 71.4781 233.16 72.7161 231.661 74.2777C230.161 75.8393 228.997 77.6915 228.24 79.72C227.451 81.8098 227.051 84.0263 227.06 86.26C227.008 88.9901 227.476 91.7052 228.44 94.26C229.272 96.4245 230.55 98.3903 232.19 100.03C233.765 101.575 235.65 102.767 237.72 103.53C239.896 104.321 242.195 104.717 244.51 104.7C245.744 104.697 246.977 104.614 248.2 104.45C249.52 104.283 250.82 103.985 252.08 103.56C253.405 103.112 254.674 102.511 255.86 101.77C257.149 100.95 258.306 99.9388 259.29 98.77L256.29 95.09C256.081 94.7956 255.801 94.5594 255.476 94.4036C255.15 94.2479 254.79 94.1778 254.43 94.2C253.814 94.1973 253.206 94.3449 252.66 94.63L250.8 95.63C250.061 96.0226 249.292 96.357 248.5 96.63C247.5 96.9379 246.456 97.0831 245.41 97.06C243.405 97.1441 241.444 96.4489 239.94 95.12C238.527 93.8267 237.653 91.7433 237.32 88.87H257.15C257.536 88.8834 257.922 88.8293 258.29 88.71C258.592 88.5986 258.846 88.3868 259.01 88.11C259.204 87.7501 259.326 87.3562 259.37 86.95C259.446 86.323 259.479 85.6915 259.47 85.06C259.507 82.7917 259.12 80.5365 258.33 78.41C257.617 76.5525 256.516 74.8684 255.1 73.47L255.16 73.43ZM237.38 82.9C237.598 81.1066 238.363 79.4238 239.57 78.08C240.184 77.5018 240.91 77.0554 241.702 76.7682C242.495 76.481 243.338 76.3591 244.18 76.41C245.15 76.38 246.115 76.5715 247 76.97C247.726 77.3126 248.366 77.8151 248.87 78.44C249.341 79.0582 249.682 79.7659 249.87 80.52C250.079 81.2959 250.183 82.0964 250.18 82.9H237.38ZM277.85 70.79C276.346 72.0015 275.089 73.4921 274.15 75.18L273.65 72.26C273.582 71.8744 273.479 71.4961 273.34 71.13C273.231 70.8411 273.049 70.5859 272.81 70.39C272.557 70.1894 272.264 70.0461 271.95 69.97C271.53 69.8788 271.1 69.8352 270.67 69.84H264.57V104.22H274.85V83.38C275.357 82.1188 276.131 80.9826 277.12 80.05C278.122 79.2018 279.41 78.7689 280.72 78.84C281.011 78.8384 281.301 78.855 281.59 78.89L282.54 78.99L283.43 79.07H284.13C284.498 79.0869 284.863 78.9966 285.18 78.81C285.476 78.5534 285.668 78.1979 285.72 77.81L286.39 70.25C285.283 69.4833 283.955 69.1004 282.61 69.16C280.882 69.1411 279.2 69.7205 277.85 70.8V70.79ZM311.75 86.9C310.988 86.1982 310.129 85.6089 309.2 85.15C308.252 84.6775 307.277 84.2602 306.28 83.9C305.28 83.55 304.28 83.23 303.36 82.9C302.495 82.6419 301.643 82.3382 300.81 81.99C300.146 81.7288 299.534 81.3531 299 80.88C298.778 80.6805 298.602 80.4349 298.484 80.1602C298.367 79.8856 298.311 79.5886 298.32 79.29C298.301 78.8876 298.383 78.4868 298.557 78.1237C298.732 77.7606 298.994 77.4466 299.32 77.21C300.222 76.6645 301.268 76.4064 302.32 76.47C303.137 76.4559 303.953 76.5603 304.74 76.78C305.389 76.9694 306.027 77.1964 306.65 77.46L308.22 78.14C308.68 78.3449 309.177 78.4537 309.68 78.46C310.081 78.4765 310.478 78.3832 310.83 78.19C311.179 77.9675 311.468 77.6617 311.67 77.3L313.99 73.68C313.315 73.0123 312.571 72.419 311.77 71.91C310.891 71.3511 309.96 70.8789 308.99 70.5C307.931 70.0889 306.837 69.7776 305.72 69.57C304.533 69.3475 303.328 69.237 302.12 69.24C300.085 69.1957 298.057 69.4932 296.12 70.12C294.56 70.6201 293.115 71.4257 291.87 72.49C290.779 73.4395 289.914 74.6219 289.34 75.95C288.772 77.2665 288.483 78.6863 288.49 80.12C288.455 81.4866 288.693 82.8465 289.19 84.12C289.611 85.1615 290.229 86.1121 291.01 86.92C291.763 87.6806 292.63 88.3184 293.58 88.81C294.528 89.3033 295.511 89.7277 296.52 90.08C297.52 90.44 298.52 90.75 299.45 91.08C300.324 91.329 301.182 91.6295 302.02 91.98C302.69 92.2474 303.307 92.6336 303.84 93.12C304.07 93.3358 304.251 93.5981 304.372 93.8895C304.493 94.181 304.55 94.4947 304.54 94.81C304.539 95.1853 304.461 95.5563 304.31 95.9C304.145 96.2838 303.895 96.6255 303.58 96.9C303.185 97.2111 302.733 97.4421 302.25 97.58C301.598 97.7519 300.925 97.8327 300.25 97.82C299.302 97.8465 298.355 97.7146 297.45 97.43C296.781 97.1927 296.132 96.9018 295.51 96.56L293.97 95.7C293.476 95.4334 292.922 95.2958 292.36 95.3C291.807 95.2771 291.259 95.4124 290.78 95.69C290.373 95.9404 290.03 96.2829 289.78 96.69L287.48 100.52C288.213 101.163 289.014 101.723 289.87 102.19C290.829 102.726 291.833 103.178 292.87 103.54C293.981 103.915 295.117 104.212 296.27 104.43C297.431 104.649 298.609 104.759 299.79 104.76C301.892 104.797 303.987 104.507 306 103.9C307.662 103.403 309.209 102.58 310.55 101.48C311.747 100.476 312.693 99.2053 313.31 97.77C313.945 96.2819 314.262 94.6776 314.24 93.06C314.276 91.8315 314.044 90.6098 313.56 89.48C313.139 88.5058 312.523 87.6279 311.75 86.9V86.9ZM329.12 56.35C328.543 55.7947 327.864 55.3566 327.12 55.06C326.348 54.7494 325.522 54.5931 324.69 54.6C323.88 54.5925 323.078 54.749 322.33 55.06C321.609 55.3663 320.951 55.8037 320.39 56.35C319.833 56.9046 319.385 57.5593 319.07 58.28C318.748 59.0211 318.584 59.8217 318.59 60.63C318.585 61.4253 318.748 62.2126 319.07 62.94C319.373 63.6735 319.818 64.3397 320.38 64.9C320.944 65.4462 321.601 65.8865 322.32 66.2C323.065 66.5228 323.869 66.6863 324.68 66.68C325.514 66.6851 326.341 66.5218 327.11 66.2C327.852 65.896 328.531 65.455 329.11 64.9C329.678 64.3651 330.14 63.7271 330.47 63.02C330.803 62.2955 330.973 61.5072 330.97 60.71C330.974 59.8998 330.804 59.0982 330.47 58.36C330.148 57.6241 329.69 56.9557 329.12 56.39V56.35ZM319.64 104.19H329.92V69.9H319.64V104.19ZM388.56 69.9C387.969 69.8968 387.392 70.0787 386.91 70.42C386.429 70.7209 386.055 71.1651 385.84 71.69L380.74 86.44C380.47 87.13 380.21 87.82 379.96 88.52C379.71 89.22 379.47 89.92 379.25 90.62C378.904 89.224 378.469 87.8513 377.95 86.51L372.32 71.69C372.096 71.1937 371.753 70.7608 371.32 70.43C370.787 70.0456 370.136 69.8583 369.48 69.9H360.48L374.2 101.27L367.57 115.19H375.26C376.002 115.248 376.744 115.081 377.39 114.71C377.888 114.313 378.275 113.792 378.51 113.2L396.85 69.9H388.56ZM355.32 96.29C355.099 96.1406 354.836 96.0669 354.57 96.08C354.371 96.0779 354.174 96.1153 353.99 96.19L353.46 96.46C353.248 96.5689 353.027 96.6593 352.8 96.73C352.474 96.8134 352.137 96.8504 351.8 96.84C351.48 96.8534 351.16 96.7896 350.87 96.6538C350.579 96.5181 350.325 96.3144 350.13 96.06C349.718 95.4773 349.513 94.7729 349.55 94.06V77.41H358.07V70.41H349.55V58.2H344.18C343.671 58.1233 343.152 58.2458 342.731 58.5419C342.31 58.8381 342.02 59.2851 341.92 59.79L339.92 70.32L334.48 71.38V75.38C334.465 75.6575 334.508 75.935 334.606 76.195C334.704 76.455 334.855 76.6917 335.05 76.89C335.417 77.2291 335.901 77.412 336.4 77.4H339.32V94.73C339.302 96.1376 339.525 97.5379 339.98 98.87C340.394 100.053 341.055 101.133 341.92 102.04C342.812 102.927 343.887 103.61 345.07 104.04C346.459 104.535 347.926 104.776 349.4 104.75C351.14 104.753 352.871 104.504 354.54 104.01C356.151 103.533 357.664 102.775 359.01 101.77L355.9 96.9C355.743 96.6503 355.548 96.4275 355.32 96.24V96.29Z" fill="#231F20"/>
</g>
<defs>
<clipPath id="clip0">
<rect width="397" height="115" fill="white"/>
</clipPath>
</defs>
</svg>
