<svg width="739" height="272" viewBox="0 0 739 272" fill="none" xmlns="http://www.w3.org/2000/svg">
<g clip-path="url(#clip0)">
<path d="M11.5389 251.015V253.33H6.97287V266.161H4.15487V253.33H-0.411133V251.015H11.5389Z" fill="#231F20"/>
<path d="M32.58 266.16H29.752V259.54H22.641V266.16H19.813V251.014H22.641V257.529H29.752V251.014H32.58V266.16Z" fill="#231F20"/>
<path d="M51.7888 251.015V253.257H45.0648V257.457H50.3638V259.624H45.0648V263.909H51.7888V266.161H42.2368V251.015H51.7888Z" fill="#231F20"/>
<path d="M80.0039 253.771C79.9209 253.917 79.8319 254.023 79.7369 254.089C79.6429 254.156 79.5259 254.189 79.3859 254.189C79.2399 254.189 79.0809 254.134 78.9099 254.027C78.7379 253.918 78.5339 253.798 78.2969 253.666C78.0589 253.534 77.7819 253.413 77.4639 253.304C77.1469 253.196 76.7719 253.142 76.3379 253.142C75.9469 253.142 75.6059 253.19 75.3129 253.284C75.0189 253.377 74.7729 253.508 74.5739 253.676C74.3749 253.843 74.2259 254.044 74.1289 254.278C74.0309 254.512 73.9819 254.768 73.9819 255.048C73.9819 255.404 74.0819 255.701 74.2799 255.938C74.4799 256.175 74.7429 256.377 75.0709 256.545C75.3999 256.712 75.7729 256.864 76.1909 256.997C76.6109 257.128 77.0399 257.27 77.4799 257.42C77.9199 257.57 78.3489 257.745 78.7689 257.944C79.1869 258.142 79.5609 258.395 79.8889 258.699C80.2169 259.002 80.4809 259.374 80.6789 259.813C80.8789 260.253 80.9779 260.788 80.9779 261.416C80.9779 262.1 80.8609 262.742 80.6279 263.337C80.3929 263.935 80.0509 264.455 79.6009 264.899C79.1499 265.342 78.6009 265.691 77.9509 265.946C77.3019 266.201 76.5589 266.329 75.7199 266.329C75.2389 266.329 74.7639 266.281 74.2959 266.187C73.8279 266.093 73.3799 265.959 72.9499 265.784C72.5209 265.61 72.1179 265.4 71.7409 265.155C71.3629 264.911 71.0279 264.638 70.7349 264.338L71.5629 262.988C71.6319 262.889 71.7229 262.808 71.8349 262.742C71.9459 262.675 72.0649 262.641 72.1909 262.641C72.3649 262.641 72.5539 262.712 72.7569 262.856C72.9589 262.999 73.1999 263.158 73.4789 263.333C73.7579 263.507 74.0849 263.667 74.4579 263.81C74.8319 263.953 75.2809 264.024 75.8039 264.024C76.6069 264.024 77.2289 263.834 77.6689 263.454C78.1079 263.073 78.3289 262.527 78.3289 261.814C78.3289 261.416 78.2289 261.091 78.0299 260.84C77.8309 260.588 77.5669 260.378 77.2389 260.206C76.9109 260.036 76.5369 259.891 76.1189 259.772C75.6999 259.653 75.2739 259.525 74.8409 259.384C74.4079 259.245 73.9819 259.078 73.5639 258.881C73.1439 258.686 72.7709 258.431 72.4419 258.118C72.1139 257.802 71.8509 257.41 71.6509 256.939C71.4529 256.466 71.3529 255.885 71.3529 255.196C71.3529 254.643 71.4629 254.106 71.6829 253.583C71.9019 253.058 72.2219 252.593 72.6409 252.189C73.0609 251.784 73.5769 251.458 74.1919 251.215C74.8059 250.97 75.5109 250.848 76.3069 250.848C77.2009 250.848 78.0249 250.988 78.7789 251.266C79.5329 251.546 80.1749 251.937 80.7059 252.44L80.0039 253.771Z" fill="#231F20"/>
<path d="M102.48 266.16H99.6519V259.54H92.5409V266.16H89.7129V251.014H92.5409V257.529H99.6519V251.014H102.48V266.16Z" fill="#231F20"/>
<path d="M126.58 258.588C126.58 259.698 126.397 260.727 126.03 261.672C125.663 262.618 125.145 263.437 124.475 264.128C123.804 264.819 122.998 265.359 122.055 265.746C121.113 266.134 120.065 266.328 118.913 266.328C117.768 266.328 116.724 266.134 115.782 265.746C114.839 265.359 114.031 264.819 113.357 264.128C112.683 263.437 112.161 262.618 111.791 261.672C111.421 260.727 111.237 259.698 111.237 258.588C111.237 257.479 111.421 256.45 111.791 255.504C112.161 254.558 112.683 253.739 113.357 253.047C114.031 252.356 114.839 251.816 115.782 251.43C116.724 251.041 117.768 250.848 118.913 250.848C119.681 250.848 120.404 250.938 121.081 251.114C121.759 251.292 122.38 251.545 122.946 251.868C123.512 252.193 124.019 252.588 124.47 253.052C124.92 253.517 125.302 254.035 125.617 254.608C125.931 255.18 126.17 255.801 126.334 256.473C126.498 257.143 126.58 257.849 126.58 258.588ZM123.7 258.588C123.7 257.757 123.588 257.011 123.365 256.353C123.141 255.692 122.824 255.131 122.411 254.67C122 254.209 121.499 253.857 120.909 253.613C120.318 253.368 119.654 253.245 118.913 253.245C118.173 253.245 117.508 253.368 116.918 253.613C116.328 253.857 115.825 254.209 115.41 254.67C114.994 255.131 114.675 255.692 114.451 256.353C114.228 257.011 114.117 257.757 114.117 258.588C114.117 259.419 114.228 260.164 114.451 260.824C114.675 261.484 114.994 262.042 115.41 262.5C115.825 262.957 116.328 263.309 116.918 263.552C117.508 263.797 118.173 263.918 118.913 263.918C119.654 263.918 120.318 263.797 120.909 263.552C121.499 263.309 122 262.957 122.411 262.5C122.824 262.042 123.141 261.484 123.365 260.824C123.588 260.164 123.7 259.419 123.7 258.588Z" fill="#231F20"/>
<path d="M138.164 260.242V266.16H135.347V251.015H139.966C140.992 251.015 141.873 251.122 142.61 251.335C143.347 251.547 143.951 251.846 144.422 252.231C144.893 252.615 145.241 253.074 145.464 253.608C145.687 254.142 145.799 254.731 145.799 255.372C145.799 255.883 145.724 256.364 145.574 256.818C145.424 257.273 145.207 257.684 144.925 258.054C144.642 258.423 144.293 258.748 143.877 259.029C143.462 259.307 142.989 259.531 142.458 259.699C142.814 259.901 143.122 260.191 143.38 260.568L147.171 266.16H144.626C144.144 266.16 143.795 265.972 143.579 265.594L140.395 260.745C140.276 260.564 140.145 260.436 140.002 260.358C139.859 260.282 139.647 260.242 139.368 260.242H138.164ZM138.164 258.221H139.924C140.454 258.221 140.916 258.155 141.311 258.022C141.706 257.89 142.031 257.706 142.285 257.472C142.54 257.239 142.73 256.961 142.856 256.64C142.982 256.319 143.045 255.966 143.045 255.581C143.045 254.814 142.792 254.224 142.285 253.812C141.779 253.401 141.006 253.195 139.966 253.195H138.164V258.221Z" fill="#231F20"/>
<path d="M165.28 251.015V253.33H160.714V266.161H157.896V253.33H153.33V251.015H165.28Z" fill="#231F20"/>
<path d="M183.106 251.015V253.257H176.382V257.457H181.681V259.624H176.382V263.909H183.106V266.161H173.554V251.015H183.106Z" fill="#231F20"/>
<path d="M199.947 253.771C199.864 253.917 199.774 254.023 199.68 254.089C199.585 254.156 199.468 254.189 199.329 254.189C199.182 254.189 199.024 254.134 198.852 254.027C198.681 253.918 198.477 253.798 198.24 253.666C198.002 253.534 197.724 253.413 197.407 253.304C197.09 253.196 196.714 253.142 196.281 253.142C195.89 253.142 195.548 253.19 195.255 253.284C194.961 253.377 194.715 253.508 194.516 253.676C194.318 253.843 194.169 254.044 194.072 254.278C193.973 254.512 193.925 254.768 193.925 255.048C193.925 255.404 194.024 255.701 194.223 255.938C194.422 256.175 194.686 256.377 195.014 256.545C195.342 256.712 195.716 256.864 196.134 256.997C196.553 257.128 196.983 257.27 197.423 257.42C197.863 257.57 198.292 257.745 198.711 257.944C199.13 258.142 199.503 258.395 199.831 258.699C200.159 259.002 200.423 259.374 200.622 259.813C200.822 260.253 200.921 260.788 200.921 261.416C200.921 262.1 200.804 262.742 200.57 263.337C200.336 263.935 199.994 264.455 199.544 264.899C199.093 265.342 198.544 265.691 197.894 265.946C197.244 266.201 196.501 266.329 195.663 266.329C195.181 266.329 194.707 266.281 194.239 266.187C193.771 266.093 193.322 265.959 192.893 265.784C192.464 265.61 192.061 265.4 191.683 265.155C191.306 264.911 190.971 264.638 190.678 264.338L191.505 262.988C191.575 262.889 191.666 262.808 191.778 262.742C191.889 262.675 192.008 262.641 192.134 262.641C192.308 262.641 192.497 262.712 192.699 262.856C192.902 262.999 193.142 263.158 193.422 263.333C193.701 263.507 194.028 263.667 194.401 263.81C194.775 263.953 195.223 264.024 195.747 264.024C196.55 264.024 197.172 263.834 197.612 263.454C198.051 263.073 198.271 262.527 198.271 261.814C198.271 261.416 198.172 261.091 197.972 260.84C197.774 260.588 197.51 260.378 197.182 260.206C196.853 260.036 196.48 259.891 196.061 259.772C195.642 259.653 195.216 259.525 194.784 259.384C194.351 259.245 193.925 259.078 193.506 258.881C193.087 258.686 192.713 258.431 192.385 258.118C192.057 257.802 191.793 257.41 191.594 256.939C191.395 256.466 191.296 255.885 191.296 255.196C191.296 254.643 191.406 254.106 191.626 253.583C191.845 253.058 192.165 252.593 192.584 252.189C193.003 251.784 193.52 251.458 194.134 251.215C194.748 250.97 195.454 250.848 196.25 250.848C197.143 250.848 197.968 250.988 198.722 251.266C199.475 251.546 200.118 251.937 200.649 252.44L199.947 253.771Z" fill="#231F20"/>
<path d="M220.234 251.015V253.33H215.668V266.161H212.85V253.33H208.284V251.015H220.234Z" fill="#231F20"/>
<path d="M239.831 251.015H242.187C242.432 251.015 242.636 251.074 242.8 251.189C242.964 251.304 243.074 251.458 243.13 251.655L245.706 260.714C245.762 260.938 245.816 261.18 245.869 261.442C245.921 261.704 245.975 261.982 246.031 262.275C246.087 261.982 246.148 261.704 246.214 261.442C246.281 261.18 246.352 260.938 246.43 260.714L249.403 251.655C249.459 251.494 249.569 251.347 249.734 251.215C249.897 251.081 250.098 251.015 250.335 251.015H251.164C251.407 251.015 251.606 251.075 251.76 251.194C251.914 251.313 252.029 251.466 252.106 251.655L255.07 260.714C255.216 261.147 255.349 261.647 255.468 262.211C255.559 261.661 255.66 261.161 255.772 260.714L258.348 251.655C258.39 251.48 258.496 251.329 258.667 251.203C258.839 251.078 259.043 251.015 259.28 251.015H261.49L256.788 266.161H254.242L250.933 255.813C250.884 255.68 250.838 255.536 250.797 255.383C250.755 255.229 250.713 255.069 250.671 254.902C250.636 255.069 250.596 255.229 250.55 255.383C250.505 255.536 250.462 255.68 250.419 255.813L247.078 266.161H244.523L239.831 251.015Z" fill="#231F20"/>
<path d="M285.81 266.16H283.632C283.387 266.16 283.188 266.098 283.034 265.976C282.881 265.855 282.765 265.703 282.689 265.521L281.557 262.43H275.284L274.153 265.521C274.096 265.681 273.988 265.829 273.828 265.961C273.667 266.093 273.468 266.16 273.231 266.16H271.031L276.991 251.014H279.861L285.81 266.16ZM276.007 260.441H280.835L278.992 255.403C278.901 255.179 278.806 254.916 278.709 254.612C278.611 254.308 278.513 253.979 278.415 253.623C278.318 253.979 278.221 254.311 278.128 254.618C278.033 254.924 277.94 255.195 277.85 255.424L276.007 260.441Z" fill="#231F20"/>
<path d="M302.787 260.295V266.16H299.98V260.295L294.461 251.015H296.943C297.188 251.015 297.381 251.074 297.524 251.193C297.667 251.313 297.787 251.462 297.886 251.644L300.651 256.702C300.811 257.01 300.953 257.296 301.075 257.561C301.197 257.827 301.307 258.088 301.405 258.347C301.495 258.082 301.6 257.816 301.719 257.551C301.837 257.286 301.974 257.002 302.127 256.702L304.882 251.644C304.958 251.491 305.074 251.347 305.228 251.215C305.382 251.081 305.577 251.015 305.814 251.015H308.307L302.787 260.295Z" fill="#231F20"/>
<path d="M344.975 251.015V253.33H340.409V266.161H337.591V253.33H333.025V251.015H344.975Z" fill="#231F20"/>
<path d="M371.379 258.588C371.379 259.698 371.195 260.727 370.829 261.672C370.463 262.618 369.944 263.437 369.274 264.128C368.603 264.819 367.797 265.359 366.854 265.746C365.912 266.134 364.865 266.328 363.712 266.328C362.568 266.328 361.523 266.134 360.581 265.746C359.639 265.359 358.83 264.819 358.156 264.128C357.482 263.437 356.961 262.618 356.59 261.672C356.22 260.727 356.036 259.698 356.036 258.588C356.036 257.479 356.22 256.45 356.59 255.504C356.961 254.558 357.482 253.739 358.156 253.047C358.83 252.356 359.639 251.816 360.581 251.43C361.523 251.041 362.568 250.848 363.712 250.848C364.48 250.848 365.204 250.938 365.881 251.114C366.558 251.292 367.179 251.545 367.744 251.868C368.311 252.193 368.818 252.588 369.269 253.052C369.719 253.517 370.102 254.035 370.416 254.608C370.73 255.18 370.969 255.801 371.133 256.473C371.297 257.143 371.379 257.849 371.379 258.588ZM368.499 258.588C368.499 257.757 368.388 257.011 368.164 256.353C367.94 255.692 367.623 255.131 367.211 254.67C366.799 254.209 366.298 253.857 365.708 253.613C365.118 253.368 364.453 253.245 363.712 253.245C362.972 253.245 362.307 253.368 361.717 253.613C361.127 253.857 360.624 254.209 360.209 254.67C359.793 255.131 359.474 255.692 359.251 256.353C359.027 257.011 358.916 257.757 358.916 258.588C358.916 259.419 359.027 260.164 359.251 260.824C359.474 261.484 359.793 262.042 360.209 262.5C360.624 262.957 361.127 263.309 361.717 263.552C362.307 263.797 362.972 263.918 363.712 263.918C364.453 263.918 365.118 263.797 365.708 263.552C366.298 263.309 366.799 262.957 367.211 262.5C367.623 262.042 367.94 261.484 368.164 260.824C368.388 260.164 368.499 259.419 368.499 258.588Z" fill="#231F20"/>
<path d="M416.363 266.16H414.184C413.94 266.16 413.741 266.098 413.587 265.976C413.433 265.855 413.319 265.703 413.241 265.521L412.11 262.43H405.836L404.706 265.521C404.65 265.681 404.541 265.829 404.381 265.961C404.22 266.093 404.022 266.16 403.785 266.16H401.584L407.544 251.014H410.414L416.363 266.16ZM406.56 260.441H411.387L409.544 255.403C409.455 255.179 409.359 254.916 409.262 254.612C409.164 254.308 409.067 253.979 408.968 253.623C408.871 253.979 408.775 254.311 408.68 254.618C408.585 254.924 408.495 255.195 408.403 255.424L406.56 260.441Z" fill="#231F20"/>
<path d="M445.056 251.031C445.144 251.041 445.22 251.062 445.286 251.093C445.354 251.126 445.417 251.171 445.48 251.229C445.543 251.29 445.614 251.368 445.69 251.466L453.629 261.603C453.608 261.36 453.59 261.119 453.577 260.881C453.562 260.643 453.556 260.424 453.556 260.221V251.014H456.037V266.16H454.593C454.369 266.16 454.182 266.124 454.032 266.05C453.882 265.976 453.737 265.852 453.597 265.677L445.69 255.593C445.711 255.816 445.726 256.037 445.738 256.257C445.747 256.477 445.752 256.678 445.752 256.859V266.16H443.27V251.014H444.747C444.867 251.014 444.969 251.02 445.056 251.031Z" fill="#231F20"/>
<path d="M479.435 251.015V253.257H472.711V257.457H478.012V259.624H472.711V263.909H479.435V266.161H469.883V251.015H479.435Z" fill="#231F20"/>
<path d="M490.894 251.015H493.249C493.495 251.015 493.7 251.074 493.863 251.189C494.027 251.304 494.137 251.458 494.193 251.655L496.769 260.714C496.825 260.938 496.88 261.18 496.931 261.442C496.984 261.704 497.038 261.982 497.094 262.275C497.15 261.982 497.211 261.704 497.278 261.442C497.344 261.18 497.415 260.938 497.493 260.714L500.467 251.655C500.523 251.494 500.633 251.347 500.796 251.215C500.96 251.081 501.162 251.015 501.399 251.015H502.226C502.47 251.015 502.67 251.075 502.823 251.194C502.976 251.313 503.091 251.466 503.168 251.655L506.133 260.714C506.28 261.147 506.412 261.647 506.531 262.211C506.622 261.661 506.723 261.161 506.834 260.714L509.412 251.655C509.453 251.48 509.56 251.329 509.73 251.203C509.901 251.078 510.106 251.015 510.343 251.015H512.553L507.85 266.161H505.306L501.996 255.813C501.947 255.68 501.902 255.536 501.859 255.383C501.818 255.229 501.777 255.069 501.734 254.902C501.699 255.069 501.659 255.229 501.613 255.383C501.568 255.536 501.524 255.68 501.483 255.813L498.141 266.161H495.585L490.894 251.015Z" fill="#231F20"/>
<path d="M550.854 262.589C551.008 262.589 551.144 262.649 551.263 262.766L552.373 263.971C551.759 264.732 551.002 265.316 550.106 265.721C549.208 266.125 548.131 266.328 546.874 266.328C545.75 266.328 544.74 266.136 543.842 265.752C542.945 265.368 542.178 264.833 541.543 264.15C540.908 263.465 540.42 262.649 540.082 261.698C539.743 260.749 539.575 259.712 539.575 258.588C539.575 257.449 539.755 256.407 540.119 255.461C540.482 254.516 540.993 253.7 541.654 253.016C542.314 252.332 543.101 251.8 544.014 251.418C544.929 251.038 545.942 250.848 547.052 250.848C548.156 250.848 549.134 251.029 549.991 251.393C550.845 251.756 551.573 252.231 552.174 252.817L551.232 254.125C551.175 254.209 551.104 254.283 551.017 254.347C550.929 254.409 550.809 254.441 550.656 254.441C550.55 254.441 550.442 254.41 550.331 254.352C550.218 254.292 550.097 254.219 549.964 254.132C549.831 254.044 549.678 253.948 549.503 253.843C549.329 253.739 549.126 253.643 548.896 253.556C548.665 253.468 548.399 253.395 548.095 253.335C547.791 253.276 547.44 253.245 547.041 253.245C546.364 253.245 545.746 253.366 545.183 253.608C544.621 253.848 544.137 254.198 543.732 254.655C543.328 255.112 543.013 255.671 542.79 256.331C542.566 256.991 542.455 257.743 542.455 258.588C542.455 259.44 542.575 260.196 542.816 260.86C543.057 261.524 543.383 262.082 543.794 262.536C544.207 262.991 544.692 263.337 545.25 263.578C545.809 263.819 546.41 263.94 547.052 263.94C547.436 263.94 547.784 263.918 548.095 263.877C548.405 263.836 548.691 263.769 548.954 263.678C549.214 263.587 549.463 263.47 549.697 263.327C549.931 263.184 550.164 263.007 550.393 262.798C550.463 262.735 550.537 262.685 550.613 262.646C550.69 262.608 550.771 262.589 550.854 262.589Z" fill="#231F20"/>
<path d="M578.901 258.588C578.901 259.698 578.718 260.727 578.351 261.672C577.985 262.618 577.466 263.437 576.796 264.128C576.126 264.819 575.319 265.359 574.376 265.746C573.434 266.134 572.387 266.328 571.235 266.328C570.089 266.328 569.045 266.134 568.103 265.746C567.161 265.359 566.352 264.819 565.679 264.128C565.005 263.437 564.483 262.618 564.113 261.672C563.743 260.727 563.558 259.698 563.558 258.588C563.558 257.479 563.743 256.45 564.113 255.504C564.483 254.558 565.005 253.739 565.679 253.047C566.352 252.356 567.161 251.816 568.103 251.43C569.045 251.041 570.089 250.848 571.235 250.848C572.002 250.848 572.726 250.938 573.402 251.114C574.08 251.292 574.702 251.545 575.267 251.868C575.833 252.193 576.34 252.588 576.792 253.052C577.242 253.517 577.624 254.035 577.938 254.608C578.252 255.18 578.491 255.801 578.655 256.473C578.82 257.143 578.901 257.849 578.901 258.588ZM576.023 258.588C576.023 257.757 575.91 257.011 575.688 256.353C575.463 255.692 575.145 255.131 574.734 254.67C574.322 254.209 573.821 253.857 573.231 253.613C572.641 253.368 571.976 253.245 571.236 253.245C570.495 253.245 569.831 253.368 569.241 253.613C568.65 253.857 568.148 254.209 567.732 254.67C567.317 255.131 566.997 255.692 566.775 256.353C566.55 257.011 566.44 257.757 566.44 258.588C566.44 259.419 566.55 260.164 566.775 260.824C566.997 261.484 567.317 262.042 567.732 262.5C568.148 262.957 568.65 263.309 569.241 263.552C569.831 263.797 570.495 263.918 571.236 263.918C571.976 263.918 572.641 263.797 573.231 263.552C573.821 263.309 574.322 262.957 574.734 262.5C575.145 262.042 575.463 261.484 575.688 260.824C575.909 260.164 576.023 259.419 576.023 258.588Z" fill="#231F20"/>
<path d="M593.644 251.031C593.732 251.041 593.809 251.062 593.875 251.093C593.942 251.126 594.005 251.171 594.069 251.229C594.131 251.29 594.202 251.368 594.278 251.466L602.217 261.603C602.196 261.36 602.178 261.119 602.165 260.881C602.151 260.643 602.144 260.424 602.144 260.221V251.014H604.625V266.16H603.181C602.957 266.16 602.771 266.124 602.62 266.05C602.47 265.976 602.325 265.852 602.186 265.677L594.278 255.593C594.299 255.816 594.314 256.037 594.326 256.257C594.335 256.477 594.34 256.678 594.34 256.859V266.16H591.858V251.014H593.335C593.455 251.014 593.558 251.02 593.644 251.031Z" fill="#231F20"/>
<path d="M626.537 253.771C626.453 253.917 626.363 254.023 626.269 254.089C626.176 254.156 626.058 254.189 625.918 254.189C625.771 254.189 625.613 254.134 625.442 254.027C625.27 253.918 625.066 253.798 624.829 253.666C624.592 253.534 624.314 253.413 623.996 253.304C623.679 253.196 623.304 253.142 622.87 253.142C622.478 253.142 622.138 253.19 621.844 253.284C621.552 253.377 621.306 253.508 621.105 253.676C620.906 253.843 620.758 254.044 620.66 254.278C620.562 254.512 620.515 254.768 620.515 255.048C620.515 255.404 620.613 255.701 620.812 255.938C621.012 256.175 621.275 256.377 621.602 256.545C621.932 256.712 622.305 256.864 622.724 256.997C623.142 257.128 623.572 257.27 624.013 257.42C624.452 257.57 624.882 257.745 625.301 257.944C625.72 258.142 626.093 258.395 626.422 258.699C626.749 259.002 627.013 259.374 627.212 259.813C627.41 260.253 627.511 260.788 627.511 261.416C627.511 262.1 627.392 262.742 627.159 263.337C626.926 263.935 626.583 264.455 626.133 264.899C625.683 265.342 625.133 265.691 624.483 265.946C623.835 266.201 623.09 266.329 622.253 266.329C621.77 266.329 621.297 266.281 620.828 266.187C620.36 266.093 619.912 265.959 619.482 265.784C619.054 265.61 618.649 265.4 618.272 265.155C617.895 264.911 617.559 264.638 617.267 264.338L618.095 262.988C618.165 262.889 618.255 262.808 618.367 262.742C618.478 262.675 618.598 262.641 618.724 262.641C618.897 262.641 619.086 262.712 619.288 262.856C619.491 262.999 619.731 263.158 620.012 263.333C620.29 263.507 620.617 263.667 620.99 263.81C621.364 263.953 621.812 264.024 622.336 264.024C623.14 264.024 623.761 263.834 624.201 263.454C624.641 263.073 624.86 262.527 624.86 261.814C624.86 261.416 624.761 261.091 624.562 260.84C624.363 260.588 624.099 260.378 623.771 260.206C623.443 260.036 623.07 259.891 622.651 259.772C622.231 259.653 621.807 259.525 621.373 259.384C620.94 259.245 620.515 259.078 620.096 258.881C619.676 258.686 619.302 258.431 618.975 258.118C618.645 257.802 618.383 257.41 618.183 256.939C617.984 256.466 617.885 255.885 617.885 255.196C617.885 254.643 617.995 254.106 618.215 253.583C618.434 253.058 618.755 252.593 619.173 252.189C619.592 251.784 620.109 251.458 620.723 251.215C621.338 250.97 622.043 250.848 622.839 250.848C623.733 250.848 624.557 250.988 625.31 251.266C626.065 251.546 626.708 251.937 627.238 252.44L626.537 253.771Z" fill="#231F20"/>
<path d="M646.53 263.887C647.075 263.887 647.562 263.797 647.992 263.615C648.421 263.434 648.782 263.179 649.075 262.85C649.369 262.523 649.594 262.125 649.752 261.657C649.908 261.189 649.986 260.665 649.986 260.085V251.015H652.804V260.085C652.804 260.987 652.66 261.819 652.37 262.583C652.08 263.349 651.664 264.008 651.123 264.563C650.582 265.118 649.924 265.552 649.149 265.862C648.373 266.173 647.501 266.328 646.53 266.328C645.552 266.328 644.676 266.173 643.901 265.862C643.127 265.552 642.468 265.118 641.926 264.563C641.385 264.008 640.97 263.349 640.681 262.583C640.391 261.819 640.246 260.987 640.246 260.085V251.015H643.063V260.075C643.063 260.656 643.141 261.179 643.3 261.647C643.457 262.114 643.682 262.514 643.98 262.845C644.276 263.177 644.64 263.434 645.069 263.615C645.499 263.797 645.986 263.887 646.53 263.887Z" fill="#231F20"/>
<path d="M674.394 260.572C674.496 260.813 674.595 261.056 674.693 261.3C674.79 261.043 674.892 260.793 674.997 260.551C675.101 260.31 675.212 260.079 675.331 259.855L679.804 251.466C679.86 251.361 679.919 251.277 679.982 251.215C680.044 251.152 680.113 251.106 680.187 251.078C680.259 251.05 680.341 251.032 680.433 251.025C680.523 251.018 680.631 251.014 680.756 251.014H682.882V266.16H680.401V256.377C680.401 256.196 680.407 255.997 680.416 255.781C680.427 255.563 680.443 255.343 680.464 255.121L675.886 263.709C675.67 264.122 675.339 264.327 674.892 264.327H674.495C674.046 264.327 673.715 264.122 673.499 263.709L668.87 255.09C668.89 255.32 668.908 255.545 668.921 255.764C668.935 255.985 668.943 256.188 668.943 256.377V266.16H666.46V251.014H668.586C668.711 251.014 668.821 251.018 668.912 251.025C669.001 251.032 669.084 251.05 669.158 251.078C669.23 251.106 669.296 251.152 669.357 251.215C669.415 251.277 669.474 251.361 669.529 251.466L674.064 259.875C674.183 260.099 674.293 260.331 674.394 260.572Z" fill="#231F20"/>
<path d="M706.281 251.015V253.257H699.556V257.457H704.857V259.624H699.556V263.909H706.281V266.161H696.729V251.015H706.281Z" fill="#231F20"/>
<path d="M722.065 260.242V266.16H719.248V251.015H723.867C724.893 251.015 725.775 251.122 726.511 251.335C727.249 251.547 727.852 251.846 728.324 252.231C728.794 252.615 729.142 253.074 729.366 253.608C729.589 254.142 729.701 254.731 729.701 255.372C729.701 255.883 729.626 256.364 729.476 256.818C729.326 257.273 729.11 257.684 728.826 258.054C728.544 258.423 728.195 258.748 727.779 259.029C727.364 259.307 726.89 259.531 726.36 259.699C726.716 259.901 727.024 260.191 727.282 260.568L731.073 266.16H728.527C728.046 266.16 727.696 265.972 727.48 265.594L724.295 260.745C724.178 260.564 724.046 260.436 723.903 260.358C723.76 260.282 723.549 260.242 723.27 260.242H722.065ZM722.065 258.221H723.825C724.356 258.221 724.818 258.155 725.213 258.022C725.608 257.89 725.931 257.706 726.187 257.472C726.442 257.239 726.631 256.961 726.757 256.64C726.882 256.319 726.946 255.966 726.946 255.581C726.946 254.814 726.693 254.224 726.187 253.812C725.68 253.401 724.907 253.195 723.867 253.195H722.065V258.221Z" fill="#231F20"/>
<path d="M278.768 85.9521C275.749 85.9521 273.091 85.5141 270.793 84.6391C268.49 83.7631 266.554 82.5201 264.986 80.9101C263.417 79.3011 262.227 77.3561 261.411 75.0741C260.597 72.7921 260.188 70.2451 260.188 67.4341V35.4991H254.812C253.834 35.4991 252.997 35.1841 252.307 34.5531C251.614 33.9221 251.267 32.9941 251.267 31.7711V24.3781L261.351 22.4211L265.079 3.01605C265.567 1.06005 266.951 0.0810547 269.233 0.0810547H279.133V22.5441H294.837V35.4991H279.133V66.1501C279.133 67.6191 279.489 68.831 280.205 69.787C280.916 70.744 281.946 71.2231 283.287 71.2231C283.98 71.2231 284.564 71.1521 285.029 71.0091C285.498 70.8681 285.904 70.7031 286.251 70.5211C286.598 70.3361 286.926 70.1741 287.231 70.0311C287.537 69.8901 287.893 69.8191 288.298 69.8191C288.868 69.8191 289.329 69.9511 289.675 70.2151C290.022 70.4801 290.377 70.8971 290.743 71.4671L296.488 80.4501C294.044 82.2851 291.294 83.6601 288.239 84.5771C285.184 85.4941 282.024 85.9521 278.768 85.9521Z" fill="#231F20"/>
<path d="M303.022 84.974V0.0620117H321.969V27.161C324.249 25.207 326.725 23.627 329.392 22.425C332.06 21.224 335.251 20.622 338.959 20.622C342.42 20.622 345.484 21.224 348.156 22.425C350.824 23.627 353.077 25.298 354.91 27.437C356.743 29.575 358.125 32.122 359.064 35.075C359.999 38.03 360.468 41.237 360.468 44.701V84.974H341.526V44.701C341.526 41.604 340.811 39.19 339.383 37.459C337.96 35.726 335.863 34.863 333.09 34.863C331.011 34.863 329.059 35.309 327.222 36.205C325.389 37.104 323.638 38.306 321.969 39.812V84.974H303.022V84.974Z" fill="#231F20"/>
<path d="M400.619 20.621C404.814 20.621 408.654 21.273 412.137 22.577C415.621 23.882 418.617 25.776 421.121 28.262C423.629 30.746 425.585 33.793 426.989 37.397C428.393 41.002 429.095 45.088 429.095 49.65C429.095 51.077 429.037 52.238 428.914 53.134C428.791 54.03 428.567 54.743 428.243 55.272C427.915 55.803 427.477 56.168 426.929 56.374C426.378 56.576 425.675 56.679 424.818 56.679H388.275C388.886 61.975 390.496 65.815 393.104 68.198C395.708 70.582 399.068 71.772 403.186 71.772C405.384 71.772 407.281 71.508 408.868 70.979C410.46 70.45 411.873 69.86 413.118 69.208C414.358 68.555 415.498 67.965 416.538 67.434C417.577 66.905 418.667 66.64 419.807 66.64C421.316 66.64 422.457 67.19 423.232 68.289L428.731 75.074C426.775 77.315 424.668 79.137 422.406 80.544C420.144 81.948 417.824 83.049 415.439 83.843C413.053 84.638 410.673 85.188 408.289 85.493C405.904 85.799 403.633 85.952 401.476 85.952C397.035 85.952 392.867 85.227 388.977 83.781C385.088 82.336 381.681 80.186 378.772 77.333C375.858 74.483 373.555 70.938 371.864 66.702C370.172 62.464 369.329 57.534 369.329 51.912C369.329 47.676 370.053 43.66 371.499 39.873C372.944 36.084 375.024 32.762 377.732 29.91C380.441 27.06 383.719 24.798 387.573 23.127C391.421 21.458 395.771 20.621 400.619 20.621ZM400.984 33.699C397.358 33.699 394.527 34.73 392.489 36.786C390.455 38.843 389.109 41.807 388.458 45.678H412.11C412.11 44.171 411.914 42.705 411.526 41.278C411.138 39.853 410.509 38.578 409.633 37.459C408.758 36.337 407.605 35.432 406.182 34.739C404.755 34.046 403.022 33.699 400.984 33.699Z" fill="#231F20"/>
<path d="M300.43 191.779C298.064 191.779 296.518 190.722 295.784 188.602L294.32 183.774C293.057 185.117 291.73 186.34 290.344 187.44C288.962 188.54 287.462 189.488 285.852 190.281C284.242 191.077 282.514 191.689 280.659 192.114C278.807 192.543 276.801 192.758 274.639 192.758C271.338 192.758 268.285 192.024 265.474 190.558C262.663 189.092 260.239 186.974 258.201 184.201C256.165 181.431 254.567 178.04 253.404 174.025C252.243 170.015 251.662 165.439 251.662 160.307C251.662 155.58 252.314 151.191 253.618 147.138C254.922 143.084 256.767 139.579 259.149 136.625C261.532 133.672 264.393 131.36 267.736 129.689C271.074 128.018 274.763 127.183 278.794 127.183C282.054 127.183 284.817 127.662 287.075 128.62C289.336 129.577 291.384 130.829 293.217 132.377V106.868H312.163V191.779H300.43V191.779ZM281.242 178.211C282.624 178.211 283.878 178.081 285 177.815C286.117 177.55 287.147 177.174 288.087 176.684C289.021 176.196 289.906 175.585 290.745 174.851C291.58 174.119 292.405 173.262 293.217 172.283V145.396C291.753 143.807 290.194 142.696 288.543 142.065C286.892 141.433 285.15 141.116 283.317 141.116C281.566 141.116 279.956 141.463 278.488 142.156C277.024 142.849 275.747 143.959 274.671 145.486C273.591 147.015 272.747 149 272.136 151.444C271.525 153.889 271.22 156.844 271.22 160.307C271.22 163.647 271.461 166.458 271.949 168.74C272.442 171.023 273.121 172.865 273.996 174.272C274.872 175.676 275.925 176.684 277.147 177.295C278.369 177.906 279.733 178.211 281.242 178.211Z" fill="#231F20"/>
<path d="M346.327 111.485C346.327 112.993 346.021 114.408 345.41 115.733C344.794 117.055 343.96 118.218 342.902 119.214C341.844 120.213 340.608 121.009 339.204 121.6C337.799 122.19 336.304 122.484 334.712 122.484C333.162 122.484 331.716 122.19 330.376 121.6C329.031 121.009 327.836 120.213 326.801 119.214C325.761 118.218 324.945 117.055 324.352 115.733C323.764 114.408 323.468 112.993 323.468 111.485C323.468 109.938 323.764 108.49 324.352 107.146C324.945 105.801 325.761 104.621 326.801 103.601C327.836 102.582 329.031 101.789 330.376 101.219C331.716 100.649 333.162 100.361 334.712 100.361C336.304 100.361 337.799 100.649 339.204 101.219C340.608 101.789 341.844 102.582 342.902 103.601C343.96 104.621 344.794 105.801 345.41 107.146C346.021 108.49 346.327 109.938 346.327 111.485ZM344.371 191.779H325.424V128.405H344.371V191.779Z" fill="#231F20"/>
<path d="M392.77 191.779H375.539L350.969 128.405H366.738C368.083 128.405 369.213 128.722 370.13 129.353C371.046 129.985 371.666 130.769 371.995 131.704L380.795 160.122C381.567 162.445 382.25 164.707 382.843 166.907C383.431 169.107 383.952 171.307 384.398 173.508C384.85 171.307 385.378 169.107 385.99 166.907C386.601 164.707 387.312 162.445 388.128 160.122L397.293 131.704C397.623 130.769 398.233 129.985 399.126 129.353C400.025 128.722 401.083 128.405 402.305 128.405H417.339L392.77 191.779Z" fill="#231F20"/>
<path d="M449.3 127.427C453.495 127.427 457.334 128.079 460.818 129.383C464.302 130.688 467.298 132.582 469.801 135.068C472.309 137.553 474.266 140.599 475.67 144.203C477.074 147.808 477.776 151.894 477.776 156.456C477.776 157.883 477.717 159.044 477.594 159.94C477.471 160.836 477.247 161.549 476.924 162.078C476.596 162.609 476.157 162.975 475.61 163.18C475.059 163.383 474.356 163.485 473.499 163.485H436.956C437.566 168.781 439.177 172.621 441.785 175.004C444.389 177.389 447.749 178.578 451.867 178.578C454.064 178.578 455.962 178.315 457.549 177.785C459.14 177.256 460.554 176.666 461.799 176.014C463.039 175.361 464.179 174.771 465.219 174.239C466.258 173.711 467.348 173.446 468.487 173.446C469.997 173.446 471.137 173.996 471.912 175.095L477.412 181.88C475.455 184.121 473.349 185.943 471.087 187.35C468.825 188.754 466.504 189.856 464.119 190.649C461.734 191.444 459.354 191.994 456.97 192.299C454.585 192.605 452.313 192.758 450.157 192.758C445.716 192.758 441.548 192.032 437.658 190.587C433.768 189.142 430.362 186.991 427.453 184.14C424.539 181.289 422.236 177.744 420.545 173.508C418.852 169.27 418.009 164.34 418.009 158.718C418.009 154.482 418.734 150.466 420.18 146.68C421.625 142.89 423.704 139.568 426.413 136.716C429.122 133.866 432.4 131.604 436.254 129.933C440.102 128.264 444.452 127.427 449.3 127.427ZM449.664 140.505C446.039 140.505 443.207 141.535 441.169 143.592C439.136 145.649 437.79 148.612 437.139 152.484H460.791C460.791 150.977 460.595 149.511 460.207 148.084C459.819 146.659 459.19 145.384 458.314 144.265C457.439 143.143 456.285 142.238 454.862 141.545C453.435 140.852 451.703 140.505 449.664 140.505Z" fill="#231F20"/>
<path d="M487.247 191.779V128.405H498.492C499.432 128.405 500.216 128.487 500.846 128.649C501.479 128.813 502.008 129.069 502.436 129.413C502.86 129.759 503.189 130.217 503.412 130.787C503.636 131.36 503.832 132.053 503.992 132.867L504.908 138.246C506.905 134.823 509.177 132.124 511.726 130.147C514.269 128.17 517.192 127.183 520.494 127.183C523.344 127.183 525.67 127.856 527.462 129.201L526.239 143.133C526.034 144.03 525.697 144.64 525.231 144.966C524.763 145.293 524.119 145.455 523.303 145.455C522.979 145.455 522.551 145.436 522.021 145.395C521.493 145.354 520.941 145.301 520.371 145.243C519.801 145.181 519.222 145.12 518.629 145.058C518.041 144.997 517.498 144.966 517.011 144.966C514.238 144.966 512.031 145.71 510.38 147.196C508.729 148.685 507.334 150.733 506.194 153.339V191.779H487.247V191.779Z" fill="#231F20"/>
<path d="M574.146 142.279C573.658 143.051 573.138 143.603 572.586 143.927C572.04 144.256 571.337 144.418 570.48 144.418C569.582 144.418 568.688 144.223 567.79 143.836C566.896 143.451 565.929 143.031 564.889 142.584C563.85 142.134 562.677 141.717 561.374 141.33C560.07 140.945 558.583 140.751 556.914 140.751C554.511 140.751 552.665 141.21 551.382 142.126C550.097 143.043 549.459 144.314 549.459 145.945C549.459 147.126 549.874 148.104 550.708 148.877C551.547 149.652 552.655 150.336 554.042 150.925C555.427 151.517 556.996 152.078 558.747 152.607C560.499 153.135 562.291 153.726 564.124 154.379C565.957 155.03 567.749 155.795 569.504 156.67C571.255 157.546 572.824 158.626 574.209 159.91C575.591 161.193 576.705 162.751 577.539 164.584C578.374 166.417 578.792 168.617 578.792 171.184C578.792 174.321 578.223 177.215 577.079 179.862C575.938 182.511 574.237 184.794 571.975 186.706C569.718 188.622 566.923 190.108 563.603 191.168C560.284 192.226 556.462 192.758 552.144 192.758C549.988 192.758 547.826 192.552 545.669 192.146C543.507 191.738 541.419 191.188 539.404 190.496C537.388 189.802 535.523 188.979 533.813 188.022C532.103 187.064 530.635 186.034 529.413 184.934L533.813 177.967C534.301 177.153 534.921 176.512 535.678 176.043C536.431 175.576 537.397 175.341 538.579 175.341C539.677 175.341 540.667 175.585 541.542 176.072C542.417 176.562 543.367 177.092 544.383 177.662C545.405 178.234 546.595 178.762 547.959 179.251C549.327 179.741 551.045 179.985 553.125 179.985C554.593 179.985 555.834 179.832 556.85 179.527C557.872 179.221 558.683 178.803 559.294 178.272C559.91 177.744 560.357 177.153 560.639 176.501C560.926 175.849 561.068 175.176 561.068 174.483C561.068 173.222 560.639 172.182 559.787 171.367C558.929 170.552 557.808 169.85 556.426 169.259C555.04 168.67 553.462 168.12 551.688 167.609C549.915 167.1 548.114 166.519 546.28 165.867C544.447 165.216 542.641 164.43 540.873 163.514C539.098 162.597 537.521 161.437 536.134 160.03C534.749 158.626 533.631 156.905 532.774 154.866C531.917 152.83 531.493 150.366 531.493 147.472C531.493 144.784 532.007 142.226 533.047 139.802C534.086 137.379 535.646 135.25 537.726 133.416C539.8 131.583 542.409 130.126 545.546 129.048C548.683 127.967 552.349 127.427 556.544 127.427C558.83 127.427 561.037 127.632 563.179 128.038C565.318 128.446 567.325 129.016 569.199 129.75C571.068 130.482 572.783 131.348 574.329 132.347C575.878 133.346 577.243 134.436 578.423 135.617L574.146 142.279Z" fill="#231F20"/>
<path d="M609.655 111.485C609.655 112.993 609.35 114.408 608.738 115.733C608.123 117.055 607.288 118.218 606.23 119.214C605.173 120.213 603.937 121.009 602.532 121.6C601.128 122.19 599.632 122.484 598.041 122.484C596.49 122.484 595.045 122.19 593.704 121.6C592.359 121.009 591.164 120.213 590.129 119.214C589.09 118.218 588.273 117.055 587.681 115.733C587.093 114.408 586.796 112.993 586.796 111.485C586.796 109.938 587.093 108.49 587.681 107.146C588.273 105.801 589.09 104.621 590.129 103.601C591.164 102.582 592.359 101.789 593.704 101.219C595.045 100.649 596.49 100.361 598.041 100.361C599.632 100.361 601.128 100.649 602.532 101.219C603.937 101.789 605.173 102.582 606.23 103.601C607.288 104.621 608.123 105.801 608.738 107.146C609.35 108.49 609.655 109.938 609.655 111.485ZM607.698 191.779H588.752V128.405H607.698V191.779Z" fill="#231F20"/>
<path d="M697.219 208.218C696.645 209.482 695.951 210.409 695.14 211C694.323 211.59 693.02 211.887 691.228 211.887H677.05L689.272 186.219L663.973 128.405H680.717C682.185 128.405 683.316 128.732 684.11 129.384C684.903 130.036 685.482 130.811 685.851 131.705L696.239 159.024C697.219 161.549 698.013 164.075 698.624 166.602C699.03 165.298 699.467 164.005 699.937 162.721C700.407 161.438 700.886 160.163 701.373 158.9L710.785 131.705C711.15 130.77 711.802 129.986 712.741 129.354C713.676 128.722 714.698 128.405 715.796 128.405H731.073L697.219 208.218Z" fill="#231F20"/>
<path d="M643.613 192.792C640.594 192.792 637.935 192.355 635.637 191.479C633.335 190.604 631.399 189.36 629.831 187.751C628.261 186.142 627.072 184.196 626.256 181.914C625.441 179.632 625.033 177.085 625.033 174.274V142.34H619.657C618.679 142.34 617.842 142.024 617.151 141.394C616.459 140.762 616.112 139.834 616.112 138.611V131.218L626.196 129.261L629.924 109.856C630.412 107.9 631.796 106.922 634.078 106.922H643.977V129.385H659.682V142.34H643.977V172.99C643.977 174.459 644.333 175.672 645.05 176.627C645.76 177.585 646.791 178.063 648.132 178.063C648.825 178.063 649.408 177.992 649.874 177.849C650.343 177.708 650.749 177.543 651.095 177.361C651.442 177.177 651.77 177.015 652.076 176.871C652.382 176.73 652.737 176.659 653.143 176.659C653.713 176.659 654.174 176.791 654.52 177.056C654.867 177.32 655.222 177.737 655.588 178.308L661.333 187.29C658.888 189.126 656.139 190.501 653.084 191.417C650.029 192.334 646.869 192.792 643.613 192.792Z" fill="#231F20"/>
<path d="M0 192V0H192L0 192Z" fill="#FFD970"/>
<g style="mix-blend-mode:multiply">
<path d="M67.563 0H0V192H64.5037C65.5173 192 66.5126 192 67.5262 192C123.055 192 168.06 149.022 168.06 96C168.06 42.9779 123.092 0 67.563 0Z" fill="#FFD970"/>
</g>
<path d="M0 192V0L95.7051 96L0 192Z" fill="#FF595C"/>
<path d="M192 192H0L192 0V192Z" fill="#475FEA"/>
<g style="mix-blend-mode:multiply" opacity="0.85">
<path d="M0 192H64.5037C65.5173 192 66.5126 192 67.5262 192C123.055 192 168.06 149.022 168.06 95.9999C168.049 76.4585 161.856 57.4214 150.367 41.614L0 192Z" fill="#475FEA"/>
</g>
</g>
<defs>
<clipPath id="clip0">
<rect width="739" height="272" fill="white"/>
</clipPath>
</defs>
</svg>
