<svg width="277" height="79" viewBox="0 0 277 79" fill="none" xmlns="http://www.w3.org/2000/svg">
<path d="M11.06 37.4056C9.83109 37.4056 8.78426 37.2231 7.82846 36.9038C6.91817 36.5388 6.14443 36.0371 5.50723 35.3984C4.87003 34.7598 4.41489 33.9387 4.09629 33.0264C3.77769 32.114 3.59563 31.0649 3.59563 29.9244V16.7413H1.41094C1.00131 16.7413 0.682714 16.6044 0.409629 16.3763C0.136543 16.1026 0 15.7377 0 15.2359V12.2708L4.05077 11.4954L5.55274 5.2459C5.7348 4.47042 6.32649 4.05987 7.23677 4.05987H11.1965V11.541H17.523V16.7413H11.1965V29.4227C11.1965 30.0157 11.3331 30.5175 11.6061 30.8824C11.8792 31.2473 12.3344 31.4298 12.8805 31.4298C13.1536 31.4298 13.3812 31.3842 13.5633 31.3386C13.7453 31.2929 13.9274 31.2017 14.0639 31.1561C14.2005 31.0649 14.337 31.0192 14.4735 30.9736C14.6101 30.928 14.7466 30.8824 14.9287 30.8824C15.1563 30.8824 15.3383 30.928 15.4749 31.0649C15.6114 31.1561 15.7479 31.3386 15.93 31.5666L18.2512 35.1703C17.2499 35.9002 16.1576 36.4476 14.9287 36.8582C13.6543 37.2231 12.3799 37.4056 11.06 37.4056ZM20.8 37.0406V0.13685H28.4009V13.7306C29.3112 12.9551 30.3125 12.3165 31.3594 11.8147C32.4517 11.3129 33.7261 11.0848 35.2281 11.0848C36.639 11.0848 37.8679 11.3129 38.9147 11.8147C40.0071 12.2708 40.9174 12.9551 41.6456 13.8218C42.3738 14.6885 42.92 15.6921 43.3296 16.8781C43.6937 18.0641 43.8758 19.3414 43.8758 20.7555V36.995H36.2749V20.8011C36.2749 19.5695 36.0018 18.5659 35.4101 17.8817C34.8184 17.1974 33.9992 16.8325 32.8613 16.8325C32.0421 16.8325 31.2228 17.015 30.4946 17.3799C29.7664 17.7448 29.0381 18.2466 28.4009 18.8396V37.0406H20.8ZM60.0789 11.0848C61.7629 11.0848 63.3104 11.3585 64.7213 11.8603C66.1323 12.4077 67.3156 13.1376 68.317 14.1411C69.3183 15.1447 70.1375 16.3763 70.6837 17.8361C71.2754 19.2958 71.5485 20.938 71.5485 22.7627C71.5485 23.3557 71.503 23.8118 71.4574 24.1768C71.4119 24.5417 71.3209 24.8154 71.1844 25.0435C71.0478 25.2716 70.8658 25.4084 70.6382 25.4996C70.4106 25.5909 70.1375 25.6365 69.8189 25.6365H55.1178C55.3454 27.7805 56.0281 29.3314 57.0749 30.2894C58.1218 31.2473 59.4872 31.7035 61.1257 31.7035C61.9905 31.7035 62.7642 31.6123 63.4014 31.3842C64.0386 31.1561 64.5848 30.928 65.0854 30.6543C65.5861 30.3806 66.0412 30.1525 66.4509 29.9244C66.8605 29.6964 67.3156 29.6051 67.7708 29.6051C68.3625 29.6051 68.8176 29.8332 69.1362 30.2894L71.3664 33.0264C70.5927 33.9387 69.7279 34.6686 68.8176 35.2616C67.9073 35.809 66.997 36.2651 65.9957 36.5845C65.0399 36.9038 64.0841 37.1319 63.1283 37.2231C62.1725 37.3599 61.2622 37.4056 60.3975 37.4056C58.6224 37.4056 56.9384 37.1319 55.3454 36.5388C53.7979 35.9458 52.4325 35.0791 51.2491 33.9387C50.0657 32.7983 49.1554 31.3386 48.4727 29.6507C47.79 27.9629 47.4714 25.9558 47.4714 23.675C47.4714 21.9872 47.7445 20.345 48.3362 18.8396C48.9279 17.3343 49.7471 15.9658 50.8395 14.8254C51.9318 13.685 53.2517 12.7726 54.7992 12.0884C56.3922 11.4041 58.1218 11.0848 60.0789 11.0848ZM60.2154 16.3763C58.759 16.3763 57.6211 16.7869 56.8018 17.6536C55.9826 18.4747 55.4364 19.6607 55.1633 21.2117H64.6758C64.6758 20.6187 64.5848 20.0257 64.4482 19.4326C64.3117 18.8396 64.0386 18.3378 63.6745 17.9273C63.3104 17.4711 62.8552 17.1062 62.3091 16.8325C61.7174 16.5132 61.0347 16.3763 60.2154 16.3763ZM105.093 37.0406C104.137 37.0406 103.5 36.6301 103.226 35.7634L102.635 33.8018C102.134 34.3492 101.588 34.851 101.042 35.2616C100.496 35.6721 99.8584 36.0827 99.2212 36.402C98.584 36.7213 97.9013 36.9494 97.1275 37.1319C96.3993 37.3143 95.58 37.4056 94.7153 37.4056C93.3953 37.4056 92.1665 37.1319 91.0286 36.5388C89.8907 35.9458 88.9349 35.0791 88.1157 33.9843C87.2964 32.8895 86.6592 31.521 86.1586 29.8788C85.7034 28.2366 85.4759 26.412 85.4759 24.3592C85.4759 22.4433 85.7489 20.7099 86.2496 19.0677C86.7958 17.4255 87.524 16.0114 88.4798 14.8254C89.4356 13.6393 90.619 12.6814 91.9389 11.9971C93.3043 11.3129 94.7608 10.9936 96.3993 10.9936C97.7192 10.9936 98.8115 11.1761 99.7218 11.5866C100.632 11.9515 101.451 12.4533 102.225 13.0919V0.13685H109.826V36.995H105.093V37.0406ZM97.3551 31.5666C97.9013 31.5666 98.4019 31.521 98.8571 31.4298C99.3122 31.2929 99.7218 31.1561 100.131 30.9736C100.541 30.7912 100.86 30.5175 101.178 30.2438C101.542 29.9701 101.861 29.6051 102.18 29.1946V18.3378C101.588 17.6992 100.951 17.243 100.268 17.015C99.6308 16.7413 98.9026 16.6044 98.1743 16.6044C97.4916 16.6044 96.8089 16.7413 96.2172 17.015C95.6255 17.2887 95.1249 17.7448 94.6697 18.3835C94.2601 18.9765 93.896 19.7976 93.6684 20.7555C93.4409 21.7591 93.3043 22.9451 93.3043 24.3136C93.3043 25.6821 93.3953 26.7769 93.5774 27.7349C93.7595 28.6472 94.0325 29.4227 94.3967 29.9701C94.7608 30.5175 95.1704 30.928 95.6711 31.1561C96.2172 31.4298 96.7634 31.5666 97.3551 31.5666ZM122.752 11.4954V37.0406H115.151V11.4954H122.752ZM123.526 4.47042C123.526 5.06344 123.389 5.65645 123.162 6.20385C122.934 6.75125 122.57 7.20741 122.16 7.61796C121.751 8.02851 121.25 8.34783 120.658 8.57591C120.112 8.80399 119.521 8.94084 118.883 8.94084C118.246 8.94084 117.7 8.80399 117.154 8.57591C116.608 8.34783 116.107 8.02851 115.697 7.61796C115.288 7.20741 114.969 6.75125 114.696 6.20385C114.468 5.65645 114.332 5.10905 114.332 4.47042C114.332 3.83179 114.468 3.28439 114.696 2.73699C114.924 2.18959 115.288 1.73343 115.697 1.32288C116.107 0.912331 116.608 0.593015 117.154 0.364932C117.7 0.13685 118.292 0 118.883 0C119.521 0 120.112 0.13685 120.658 0.364932C121.25 0.593015 121.751 0.912331 122.16 1.32288C122.57 1.73343 122.934 2.18959 123.162 2.73699C123.389 3.28439 123.526 3.87741 123.526 4.47042ZM142.187 37.0406H135.268L125.392 11.4954H131.718C132.265 11.4954 132.72 11.6322 133.084 11.9059C133.448 12.134 133.721 12.4533 133.858 12.8639L137.408 24.3136C137.726 25.2716 137.999 26.1839 138.227 27.0506C138.455 27.9173 138.682 28.8296 138.864 29.6964C139.046 28.8296 139.274 27.9173 139.501 27.0506C139.729 26.1839 140.047 25.2716 140.366 24.3136L144.053 12.8639C144.189 12.4989 144.417 12.1796 144.781 11.9059C145.145 11.6322 145.555 11.4954 146.055 11.4954H152.109L142.187 37.0406ZM164.898 11.0848C166.582 11.0848 168.13 11.3585 169.541 11.8603C170.952 12.4077 172.135 13.1376 173.136 14.1411C174.138 15.1447 174.957 16.3763 175.503 17.8361C176.095 19.2958 176.368 20.938 176.368 22.7627C176.368 23.3557 176.322 23.8118 176.277 24.1768C176.231 24.5417 176.14 24.8154 176.004 25.0435C175.867 25.2716 175.685 25.4084 175.458 25.4996C175.23 25.5909 174.957 25.6365 174.638 25.6365H159.937C160.165 27.7805 160.848 29.3314 161.894 30.2894C162.941 31.2473 164.307 31.7035 165.945 31.7035C166.81 31.7035 167.584 31.6123 168.221 31.3842C168.858 31.1561 169.404 30.928 169.905 30.6543C170.406 30.3806 170.861 30.1525 171.27 29.9244C171.68 29.6964 172.135 29.6051 172.59 29.6051C173.182 29.6051 173.637 29.8332 173.956 30.2894L176.186 33.0264C175.412 33.9387 174.547 34.6686 173.637 35.2616C172.727 35.809 171.816 36.2651 170.815 36.5845C169.859 36.9038 168.904 37.1319 167.948 37.2231C166.992 37.3599 166.082 37.4056 165.217 37.4056C163.442 37.4056 161.758 37.1319 160.165 36.5388C158.617 35.9458 157.252 35.0791 156.069 33.9387C154.885 32.7983 153.975 31.3386 153.292 29.6507C152.609 27.9629 152.291 25.9558 152.291 23.675C152.291 21.9872 152.564 20.345 153.156 18.8396C153.747 17.3343 154.567 15.9658 155.659 14.8254C156.751 13.685 158.071 12.7726 159.619 12.0884C161.212 11.4041 162.941 11.0848 164.898 11.0848ZM165.08 16.3763C163.624 16.3763 162.486 16.7869 161.667 17.6536C160.848 18.4747 160.301 19.6607 160.028 21.2117H169.541C169.541 20.6187 169.45 20.0257 169.313 19.4326C169.177 18.8396 168.904 18.3378 168.539 17.9273C168.175 17.4711 167.72 17.1062 167.174 16.8325C166.582 16.5132 165.9 16.3763 165.08 16.3763ZM180.191 37.0406V11.4954H184.697C185.061 11.4954 185.38 11.541 185.653 11.5866C185.926 11.6322 186.108 11.7691 186.29 11.9059C186.472 12.0428 186.609 12.2252 186.7 12.4533C186.791 12.6814 186.882 12.9551 186.927 13.2744L187.291 15.464C188.111 14.0955 189.021 13.0007 190.022 12.2252C191.069 11.4041 192.252 11.0392 193.572 11.0392C194.71 11.0392 195.666 11.3129 196.394 11.8603L195.894 17.4711C195.803 17.8361 195.666 18.0641 195.484 18.201C195.302 18.3378 195.029 18.3835 194.71 18.3835C194.574 18.3835 194.392 18.3835 194.21 18.3378C193.982 18.3378 193.754 18.2922 193.527 18.2922C193.299 18.2466 193.072 18.2466 192.799 18.201C192.571 18.1554 192.343 18.1554 192.161 18.1554C191.069 18.1554 190.159 18.4747 189.476 19.0677C188.839 19.6607 188.247 20.4818 187.792 21.531V37.0406H180.191ZM215.146 17.0606C214.964 17.3799 214.736 17.608 214.509 17.7448C214.281 17.8817 214.008 17.9273 213.69 17.9273C213.326 17.9273 212.961 17.8361 212.597 17.6992C212.233 17.5167 211.824 17.3799 211.414 17.1974C211.004 17.015 210.549 16.8325 210.003 16.6957C209.457 16.5132 208.865 16.4676 208.228 16.4676C207.272 16.4676 206.498 16.65 205.998 17.015C205.497 17.3799 205.224 17.8817 205.224 18.5203C205.224 18.9765 205.406 19.387 205.725 19.7063C206.089 20.0257 206.498 20.2994 207.09 20.5274C207.636 20.7555 208.273 20.9836 209.002 21.2117C209.684 21.4398 210.413 21.6679 211.186 21.9416C211.915 22.2153 212.643 22.5346 213.371 22.8995C214.054 23.2644 214.691 23.675 215.283 24.2224C215.829 24.7242 216.284 25.3628 216.603 26.0927C216.967 26.8225 217.103 27.7349 217.103 28.7384C217.103 30.0157 216.876 31.1561 216.42 32.2509C215.965 33.3001 215.283 34.258 214.372 34.9879C213.462 35.7634 212.37 36.3564 211.004 36.7669C209.684 37.1775 208.137 37.4056 206.407 37.4056C205.543 37.4056 204.678 37.3143 203.813 37.1775C202.948 37.0406 202.083 36.8125 201.264 36.4932C200.445 36.2195 199.717 35.9002 199.034 35.4897C198.351 35.0791 197.76 34.6686 197.259 34.2124L199.034 31.3842C199.216 31.0649 199.489 30.7912 199.762 30.6087C200.081 30.4262 200.445 30.335 200.946 30.335C201.401 30.335 201.765 30.4262 202.129 30.6087C202.493 30.7912 202.857 31.0192 203.267 31.2473C203.676 31.4754 204.132 31.7035 204.678 31.886C205.224 32.0684 205.952 32.1597 206.771 32.1597C207.363 32.1597 207.864 32.114 208.273 31.9772C208.683 31.8403 209.002 31.6579 209.275 31.4754C209.502 31.2473 209.684 31.0192 209.821 30.7455C209.957 30.4718 210.003 30.1981 210.003 29.9244C210.003 29.4227 209.821 29.0121 209.502 28.6472C209.138 28.3279 208.729 28.0542 208.137 27.8261C207.591 27.598 206.954 27.3699 206.225 27.1418C205.543 26.9138 204.814 26.6857 204.041 26.412C203.312 26.1383 202.584 25.819 201.856 25.454C201.173 25.0891 200.536 24.5873 199.944 24.0399C199.398 23.4469 198.943 22.7627 198.579 21.9416C198.215 21.1205 198.078 20.1169 198.078 18.9765C198.078 17.8817 198.306 16.8781 198.715 15.8746C199.125 14.871 199.762 14.0043 200.627 13.2744C201.446 12.5445 202.493 11.9515 203.768 11.541C205.042 11.0848 206.498 10.8567 208.182 10.8567C209.093 10.8567 210.003 10.948 210.822 11.0848C211.687 11.2673 212.506 11.4954 213.234 11.7691C214.008 12.0428 214.691 12.4077 215.283 12.8182C215.92 13.2288 216.466 13.6393 216.921 14.1411L215.146 17.0606ZM228.618 11.4954V37.0406H221.017V11.4954H228.618ZM229.438 4.47042C229.438 5.06344 229.301 5.65645 229.073 6.20385C228.846 6.75125 228.482 7.20741 228.072 7.61796C227.663 8.02851 227.162 8.34783 226.57 8.57591C226.024 8.80399 225.432 8.94084 224.795 8.94084C224.158 8.94084 223.612 8.80399 223.066 8.57591C222.519 8.34783 222.064 8.02851 221.609 7.61796C221.199 7.20741 220.881 6.75125 220.608 6.20385C220.38 5.65645 220.244 5.10905 220.244 4.47042C220.244 3.83179 220.38 3.28439 220.608 2.73699C220.835 2.18959 221.199 1.73343 221.609 1.32288C222.019 0.912331 222.519 0.593015 223.066 0.364932C223.612 0.13685 224.203 0 224.795 0C225.432 0 226.024 0.13685 226.57 0.364932C227.162 0.593015 227.663 0.912331 228.072 1.32288C228.482 1.73343 228.846 2.18959 229.073 2.73699C229.301 3.28439 229.438 3.87741 229.438 4.47042ZM243.046 37.4056C241.817 37.4056 240.771 37.2231 239.815 36.9038C238.905 36.5388 238.131 36.0371 237.494 35.3984C236.856 34.7598 236.401 33.9387 236.083 33.0264C235.764 32.114 235.582 31.0649 235.582 29.9244V16.7413H233.397C232.988 16.7413 232.669 16.6044 232.396 16.3763C232.123 16.1026 231.986 15.7377 231.986 15.2359V12.2708L236.037 11.4954L237.539 5.2459C237.721 4.47042 238.313 4.05987 239.223 4.05987H243.183V11.541H249.509V16.7413H243.183V29.4227C243.183 30.0157 243.319 30.5175 243.593 30.8824C243.866 31.2473 244.321 31.4298 244.867 31.4298C245.14 31.4298 245.368 31.3842 245.55 31.3386C245.732 31.2929 245.914 31.2017 246.05 31.1561C246.187 31.0649 246.323 31.0192 246.46 30.9736C246.596 30.928 246.733 30.8824 246.915 30.8824C247.143 30.8824 247.325 30.928 247.461 31.0649C247.598 31.1561 247.734 31.3386 247.916 31.5666L250.238 35.1703C249.236 35.9002 248.144 36.4476 246.915 36.8582C245.641 37.2231 244.366 37.4056 243.046 37.4056ZM263.391 43.655C263.164 44.1568 262.891 44.5217 262.572 44.7498C262.253 44.9779 261.707 45.1148 260.979 45.1148H255.29L260.205 34.7598L250.01 11.4497H256.746C257.338 11.4497 257.793 11.5866 258.112 11.8603C258.43 12.134 258.658 12.4533 258.84 12.8182L263.027 23.8118C263.437 24.8154 263.755 25.8646 263.983 26.8681C264.165 26.3207 264.302 25.819 264.484 25.3172C264.666 24.7698 264.893 24.268 265.075 23.7662L268.853 12.8182C268.99 12.4533 269.263 12.134 269.627 11.8603C269.991 11.5866 270.4 11.4497 270.856 11.4497H277L263.391 43.655Z" fill="white"/>
<path d="M6.78 63.3C6.41 63.57 6.015 63.7683 5.595 63.895C5.17833 64.0183 4.73667 64.08 4.27 64.08C3.67333 64.08 3.13333 63.9883 2.65 63.805C2.16667 63.6183 1.75333 63.36 1.41 63.03C1.06667 62.7 0.801667 62.3083 0.615 61.855C0.428333 61.4017 0.335 60.9067 0.335 60.37C0.335 59.8267 0.423333 59.3283 0.6 58.875C0.78 58.4217 1.035 58.0317 1.365 57.705C1.695 57.3783 2.09333 57.1233 2.56 56.94C3.03 56.7567 3.555 56.665 4.135 56.665C4.435 56.665 4.715 56.69 4.975 56.74C5.235 56.7867 5.475 56.8533 5.695 56.94C5.915 57.0233 6.11667 57.1233 6.3 57.24C6.48333 57.3567 6.65 57.485 6.8 57.625L6.365 58.295C6.29833 58.4017 6.21167 58.4667 6.105 58.49C5.99833 58.5133 5.88167 58.4867 5.755 58.41C5.635 58.3367 5.51667 58.2717 5.4 58.215C5.28667 58.155 5.165 58.1033 5.035 58.06C4.905 58.0167 4.76333 57.9833 4.61 57.96C4.45667 57.9367 4.28 57.925 4.08 57.925C3.74333 57.925 3.43833 57.9833 3.165 58.1C2.89167 58.2167 2.65833 58.3817 2.465 58.595C2.275 58.8083 2.12833 59.065 2.025 59.365C1.92167 59.665 1.87 60 1.87 60.37C1.87 60.77 1.92667 61.1283 2.04 61.445C2.15333 61.7583 2.31333 62.0233 2.52 62.24C2.72667 62.4567 2.97333 62.6217 3.26 62.735C3.55 62.8483 3.87167 62.905 4.225 62.905C4.465 62.905 4.67833 62.8817 4.865 62.835C5.055 62.785 5.24 62.7183 5.42 62.635V61.415H4.6C4.50333 61.415 4.42667 61.39 4.37 61.34C4.31667 61.2867 4.29 61.22 4.29 61.14V60.305H6.78V63.3ZM20.4061 61.235V64H18.9061V56.745H21.1861C21.6928 56.745 22.1261 56.7983 22.4861 56.905C22.8461 57.0083 23.1411 57.1533 23.3711 57.34C23.6011 57.5267 23.7694 57.75 23.8761 58.01C23.9828 58.2667 24.0361 58.55 24.0361 58.86C24.0361 59.1 24.0011 59.3283 23.9311 59.545C23.8644 59.7583 23.7661 59.9533 23.6361 60.13C23.5061 60.3067 23.3461 60.4633 23.1561 60.6C22.9661 60.7367 22.7478 60.8467 22.5011 60.93C22.5978 60.9833 22.6878 61.0483 22.7711 61.125C22.8578 61.1983 22.9344 61.2867 23.0011 61.39L24.6911 64H23.3361C23.0828 64 22.8994 63.9033 22.7861 63.71L21.4061 61.485C21.3494 61.3983 21.2861 61.335 21.2161 61.295C21.1494 61.255 21.0494 61.235 20.9161 61.235H20.4061ZM20.4061 60.18H21.1761C21.4194 60.18 21.6294 60.15 21.8061 60.09C21.9828 60.0267 22.1278 59.9417 22.2411 59.835C22.3544 59.725 22.4378 59.5967 22.4911 59.45C22.5444 59.3033 22.5711 59.1433 22.5711 58.97C22.5711 58.6267 22.4561 58.36 22.2261 58.17C21.9994 57.98 21.6528 57.885 21.1861 57.885H20.4061V60.18ZM43.193 60.37C43.193 60.9 43.103 61.3917 42.923 61.845C42.7464 62.2983 42.4947 62.69 42.168 63.02C41.8447 63.35 41.4547 63.61 40.998 63.8C40.5414 63.9867 40.0347 64.08 39.478 64.08C38.9214 64.08 38.4147 63.9867 37.958 63.8C37.5014 63.61 37.1097 63.35 36.783 63.02C36.4564 62.69 36.203 62.2983 36.023 61.845C35.8464 61.3917 35.758 60.9 35.758 60.37C35.758 59.84 35.8464 59.35 36.023 58.9C36.203 58.4467 36.4564 58.055 36.783 57.725C37.1097 57.395 37.5014 57.1367 37.958 56.95C38.4147 56.76 38.9214 56.665 39.478 56.665C40.0347 56.665 40.5414 56.76 40.998 56.95C41.4547 57.1367 41.8447 57.3967 42.168 57.73C42.4947 58.06 42.7464 58.4517 42.923 58.905C43.103 59.355 43.193 59.8433 43.193 60.37ZM41.658 60.37C41.658 59.99 41.608 59.65 41.508 59.35C41.408 59.0467 41.263 58.79 41.073 58.58C40.8864 58.3667 40.658 58.205 40.388 58.095C40.1214 57.9817 39.818 57.925 39.478 57.925C39.138 57.925 38.833 57.9817 38.563 58.095C38.293 58.205 38.063 58.3667 37.873 58.58C37.6864 58.79 37.543 59.0467 37.443 59.35C37.343 59.65 37.293 59.99 37.293 60.37C37.293 60.7533 37.343 61.0967 37.443 61.4C37.543 61.7 37.6864 61.955 37.873 62.165C38.063 62.375 38.293 62.5367 38.563 62.65C38.833 62.76 39.138 62.815 39.478 62.815C39.818 62.815 40.1214 62.76 40.388 62.65C40.658 62.5367 40.8864 62.375 41.073 62.165C41.263 61.955 41.408 61.7 41.508 61.4C41.608 61.0967 41.658 60.7533 41.658 60.37ZM58.1585 62.8C58.4018 62.8 58.6202 62.76 58.8135 62.68C59.0068 62.5967 59.1702 62.48 59.3035 62.33C59.4368 62.18 59.5385 61.9983 59.6085 61.785C59.6785 61.5717 59.7135 61.3317 59.7135 61.065V56.745H61.2135V61.065C61.2135 61.505 61.1418 61.91 60.9985 62.28C60.8585 62.6467 60.6568 62.9633 60.3935 63.23C60.1302 63.4967 59.8102 63.705 59.4335 63.855C59.0568 64.005 58.6318 64.08 58.1585 64.08C57.6852 64.08 57.2585 64.005 56.8785 63.855C56.5018 63.705 56.1818 63.4967 55.9185 63.23C55.6552 62.9633 55.4518 62.6467 55.3085 62.28C55.1685 61.91 55.0985 61.505 55.0985 61.065V56.745H56.5985V61.065C56.5985 61.3317 56.6335 61.5717 56.7035 61.785C56.7735 61.9983 56.8752 62.18 57.0085 62.33C57.1418 62.48 57.3052 62.5967 57.4985 62.68C57.6918 62.76 57.9118 62.8 58.1585 62.8ZM75.0397 61.505V64H73.5397V56.745H75.9897C76.4864 56.745 76.9147 56.8033 77.2747 56.92C77.638 57.0367 77.9364 57.2 78.1697 57.41C78.403 57.6167 78.5747 57.8633 78.6847 58.15C78.798 58.4367 78.8547 58.7483 78.8547 59.085C78.8547 59.4417 78.7964 59.7683 78.6797 60.065C78.563 60.3617 78.3864 60.6167 78.1497 60.83C77.913 61.0433 77.6147 61.21 77.2547 61.33C76.8947 61.4467 76.473 61.505 75.9897 61.505H75.0397ZM75.0397 60.355H75.9897C76.4597 60.355 76.803 60.2417 77.0197 60.015C77.2397 59.7883 77.3497 59.4783 77.3497 59.085C77.3497 58.905 77.3214 58.7417 77.2647 58.595C77.2114 58.445 77.128 58.3183 77.0147 58.215C76.9047 58.1083 76.7647 58.0267 76.5947 57.97C76.4247 57.9133 76.223 57.885 75.9897 57.885H75.0397V60.355ZM110.709 60.37C110.709 60.9 110.619 61.3917 110.439 61.845C110.262 62.2983 110.011 62.69 109.684 63.02C109.361 63.35 108.971 63.61 108.514 63.8C108.057 63.9867 107.551 64.08 106.994 64.08C106.437 64.08 105.931 63.9867 105.474 63.8C105.017 63.61 104.626 63.35 104.299 63.02C103.972 62.69 103.719 62.2983 103.539 61.845C103.362 61.3917 103.274 60.9 103.274 60.37C103.274 59.84 103.362 59.35 103.539 58.9C103.719 58.4467 103.972 58.055 104.299 57.725C104.626 57.395 105.017 57.1367 105.474 56.95C105.931 56.76 106.437 56.665 106.994 56.665C107.551 56.665 108.057 56.76 108.514 56.95C108.971 57.1367 109.361 57.3967 109.684 57.73C110.011 58.06 110.262 58.4517 110.439 58.905C110.619 59.355 110.709 59.8433 110.709 60.37ZM109.174 60.37C109.174 59.99 109.124 59.65 109.024 59.35C108.924 59.0467 108.779 58.79 108.589 58.58C108.402 58.3667 108.174 58.205 107.904 58.095C107.637 57.9817 107.334 57.925 106.994 57.925C106.654 57.925 106.349 57.9817 106.079 58.095C105.809 58.205 105.579 58.3667 105.389 58.58C105.202 58.79 105.059 59.0467 104.959 59.35C104.859 59.65 104.809 59.99 104.809 60.37C104.809 60.7533 104.859 61.0967 104.959 61.4C105.059 61.7 105.202 61.955 105.389 62.165C105.579 62.375 105.809 62.5367 106.079 62.65C106.349 62.76 106.654 62.815 106.994 62.815C107.334 62.815 107.637 62.76 107.904 62.65C108.174 62.5367 108.402 62.375 108.589 62.165C108.779 61.955 108.924 61.7 109.024 61.4C109.124 61.0967 109.174 60.7533 109.174 60.37ZM127.325 56.745V57.92H124.215V59.925H126.825V61.105H124.215V64H122.705V56.745H127.325ZM158.306 64H157.141C157.011 64 156.904 63.97 156.821 63.91C156.741 63.8467 156.681 63.7667 156.641 63.67L156.151 62.285H153.261L152.771 63.67C152.737 63.7533 152.679 63.83 152.596 63.9C152.512 63.9667 152.407 64 152.281 64H151.106L153.941 56.745H155.476L158.306 64ZM153.626 61.245H155.786L155.001 59.025C154.954 58.9083 154.904 58.7717 154.851 58.615C154.801 58.4583 154.751 58.29 154.701 58.11C154.654 58.2933 154.606 58.465 154.556 58.625C154.506 58.7817 154.457 58.9183 154.411 59.035L153.626 61.245ZM175.673 63.3C175.303 63.57 174.908 63.7683 174.488 63.895C174.071 64.0183 173.629 64.08 173.163 64.08C172.566 64.08 172.026 63.9883 171.543 63.805C171.059 63.6183 170.646 63.36 170.303 63.03C169.959 62.7 169.694 62.3083 169.508 61.855C169.321 61.4017 169.228 60.9067 169.228 60.37C169.228 59.8267 169.316 59.3283 169.493 58.875C169.673 58.4217 169.928 58.0317 170.258 57.705C170.588 57.3783 170.986 57.1233 171.453 56.94C171.923 56.7567 172.448 56.665 173.028 56.665C173.328 56.665 173.608 56.69 173.868 56.74C174.128 56.7867 174.368 56.8533 174.588 56.94C174.808 57.0233 175.009 57.1233 175.193 57.24C175.376 57.3567 175.543 57.485 175.693 57.625L175.258 58.295C175.191 58.4017 175.104 58.4667 174.998 58.49C174.891 58.5133 174.774 58.4867 174.648 58.41C174.528 58.3367 174.409 58.2717 174.293 58.215C174.179 58.155 174.058 58.1033 173.928 58.06C173.798 58.0167 173.656 57.9833 173.503 57.96C173.349 57.9367 173.173 57.925 172.973 57.925C172.636 57.925 172.331 57.9833 172.058 58.1C171.784 58.2167 171.551 58.3817 171.358 58.595C171.168 58.8083 171.021 59.065 170.918 59.365C170.814 59.665 170.763 60 170.763 60.37C170.763 60.77 170.819 61.1283 170.933 61.445C171.046 61.7583 171.206 62.0233 171.413 62.24C171.619 62.4567 171.866 62.6217 172.153 62.735C172.443 62.8483 172.764 62.905 173.118 62.905C173.358 62.905 173.571 62.8817 173.758 62.835C173.948 62.785 174.133 62.7183 174.313 62.635V61.415H173.493C173.396 61.415 173.319 61.39 173.263 61.34C173.209 61.2867 173.183 61.22 173.183 61.14V60.305H175.673V63.3ZM192.419 56.745V57.92H189.309V59.785H191.729V60.92H189.309V62.825H192.419V64H187.799V56.745H192.419ZM205.231 56.745C205.294 56.745 205.348 56.7483 205.391 56.755C205.438 56.7583 205.479 56.77 205.516 56.79C205.553 56.8067 205.588 56.83 205.621 56.86C205.654 56.89 205.691 56.93 205.731 56.98L209.371 61.605C209.358 61.4783 209.348 61.355 209.341 61.235C209.334 61.115 209.331 61.0017 209.331 60.895V56.745H210.656V64H209.881C209.764 64 209.666 63.9817 209.586 63.945C209.506 63.905 209.428 63.8383 209.351 63.745L205.736 59.15C205.746 59.2667 205.753 59.3817 205.756 59.495C205.763 59.605 205.766 59.7083 205.766 59.805V64H204.441V56.745H205.231ZM228.015 62.215C228.099 62.215 228.169 62.245 228.225 62.305L228.82 62.94C228.527 63.3133 228.162 63.5967 227.725 63.79C227.292 63.9833 226.775 64.08 226.175 64.08C225.632 64.08 225.144 63.9883 224.71 63.805C224.277 63.6183 223.909 63.36 223.605 63.03C223.302 62.7 223.069 62.3083 222.905 61.855C222.742 61.4017 222.66 60.9067 222.66 60.37C222.66 60.01 222.699 59.6683 222.775 59.345C222.855 59.0183 222.97 58.7183 223.12 58.445C223.27 58.1717 223.45 57.925 223.66 57.705C223.874 57.485 224.114 57.2983 224.38 57.145C224.647 56.9883 224.937 56.87 225.25 56.79C225.567 56.7067 225.904 56.665 226.26 56.665C226.527 56.665 226.779 56.6883 227.015 56.735C227.255 56.7817 227.479 56.8467 227.685 56.93C227.892 57.0133 228.082 57.115 228.255 57.235C228.432 57.3517 228.59 57.48 228.73 57.62L228.225 58.31C228.195 58.3533 228.157 58.3917 228.11 58.425C228.064 58.4583 228 58.475 227.92 58.475C227.84 58.475 227.759 58.4467 227.675 58.39C227.595 58.3333 227.495 58.27 227.375 58.2C227.259 58.13 227.11 58.0667 226.93 58.01C226.754 57.9533 226.529 57.925 226.255 57.925C225.952 57.925 225.674 57.98 225.42 58.09C225.167 58.2 224.949 58.36 224.765 58.57C224.585 58.7767 224.445 59.0317 224.345 59.335C224.245 59.6383 224.195 59.9833 224.195 60.37C224.195 60.76 224.249 61.1083 224.355 61.415C224.465 61.7183 224.614 61.975 224.8 62.185C224.99 62.395 225.21 62.555 225.46 62.665C225.714 62.7717 225.984 62.825 226.27 62.825C226.44 62.825 226.594 62.8167 226.73 62.8C226.87 62.7833 226.999 62.755 227.115 62.715C227.235 62.675 227.347 62.6233 227.45 62.56C227.557 62.4967 227.664 62.4167 227.77 62.32C227.807 62.29 227.845 62.265 227.885 62.245C227.925 62.225 227.969 62.215 228.015 62.215ZM242.077 64H240.567V56.745H242.077V64ZM259.114 56.745V57.92H256.004V59.785H258.424V60.92H256.004V62.825H259.114V64H254.494V56.745H259.114ZM275.067 58.135C275.02 58.2117 274.972 58.2683 274.922 58.305C274.875 58.3383 274.813 58.355 274.737 58.355C274.663 58.355 274.583 58.33 274.497 58.28C274.413 58.2267 274.315 58.17 274.202 58.11C274.088 58.05 273.958 57.995 273.812 57.945C273.665 57.8917 273.493 57.865 273.297 57.865C272.95 57.865 272.69 57.9433 272.517 58.1C272.343 58.2533 272.257 58.455 272.257 58.705C272.257 58.865 272.303 58.9983 272.397 59.105C272.493 59.2083 272.618 59.2983 272.772 59.375C272.928 59.4517 273.105 59.52 273.302 59.58C273.498 59.64 273.7 59.7067 273.907 59.78C274.113 59.85 274.315 59.9333 274.512 60.03C274.708 60.1267 274.883 60.2483 275.037 60.395C275.193 60.5417 275.318 60.7217 275.412 60.935C275.508 61.145 275.557 61.4017 275.557 61.705C275.557 62.035 275.498 62.345 275.382 62.635C275.268 62.9217 275.103 63.1733 274.887 63.39C274.67 63.6033 274.402 63.7717 274.082 63.895C273.765 64.0183 273.405 64.08 273.002 64.08C272.772 64.08 272.542 64.0567 272.312 64.01C272.085 63.9633 271.865 63.8983 271.652 63.815C271.442 63.7317 271.243 63.6317 271.057 63.515C270.87 63.3983 270.707 63.2683 270.567 63.125L271.007 62.415C271.043 62.3617 271.092 62.3183 271.152 62.285C271.212 62.2483 271.275 62.23 271.342 62.23C271.432 62.23 271.527 62.2633 271.627 62.33C271.727 62.3967 271.842 62.47 271.972 62.55C272.102 62.63 272.252 62.7033 272.422 62.77C272.595 62.8367 272.802 62.87 273.042 62.87C273.392 62.87 273.662 62.79 273.852 62.63C274.045 62.47 274.142 62.2317 274.142 61.915C274.142 61.7317 274.093 61.5833 273.997 61.47C273.903 61.3567 273.78 61.2617 273.627 61.185C273.473 61.1083 273.298 61.0433 273.102 60.99C272.905 60.9333 272.703 60.8717 272.497 60.805C272.29 60.7383 272.088 60.6583 271.892 60.565C271.695 60.4717 271.52 60.3483 271.367 60.195C271.213 60.0417 271.088 59.8517 270.992 59.625C270.898 59.3983 270.852 59.1167 270.852 58.78C270.852 58.51 270.905 58.2483 271.012 57.995C271.118 57.7417 271.275 57.5167 271.482 57.32C271.688 57.1233 271.942 56.965 272.242 56.845C272.545 56.725 272.892 56.665 273.282 56.665C273.718 56.665 274.122 56.7333 274.492 56.87C274.865 57.0033 275.18 57.19 275.437 57.43L275.067 58.135Z" fill="#F5F5F5"/>
</svg>
