<svg xmlns="http://www.w3.org/2000/svg" viewBox="0 0 731.48 266.67"><defs><style>.cls-1{isolation:isolate;}.cls-2{fill:#231f20;}.cls-3,.cls-4{fill:#ffd970;}.cls-4,.cls-7{mix-blend-mode:multiply;}.cls-5{fill:#ff595c;}.cls-6,.cls-7{fill:#475fea;}.cls-7{opacity:0.85;}</style></defs><g class="cls-1"><g id="Layer_18" data-name="Layer 18"><path class="cls-2" d="M46.54,517v2.31H42v12.83H39.16V519.33H34.59V517Z" transform="translate(-34.59 -265.66)"/><path class="cls-2" d="M67.58,532.16H64.75v-6.62H57.64v6.62H54.81V517h2.83v6.51h7.11V517h2.83Z" transform="translate(-34.59 -265.66)"/><path class="cls-2" d="M86.79,517v2.24H80.06v4.2h5.3v2.16h-5.3v4.29h6.73v2.25H77.24V517Z" transform="translate(-34.59 -265.66)"/><path class="cls-2" d="M115,519.77a1,1,0,0,1-.26.32.58.58,0,0,1-.35.1,1,1,0,0,1-.48-.16l-.61-.37a5.57,5.57,0,0,0-.84-.36,3.68,3.68,0,0,0-1.12-.16,3.56,3.56,0,0,0-1,.14,2.28,2.28,0,0,0-.74.4,1.56,1.56,0,0,0-.44.6,1.92,1.92,0,0,0-.15.77,1.35,1.35,0,0,0,.3.89,2.48,2.48,0,0,0,.79.61,9.31,9.31,0,0,0,1.12.45l1.29.42a12,12,0,0,1,1.29.52,4.34,4.34,0,0,1,1.12.76,3.34,3.34,0,0,1,.79,1.11,3.89,3.89,0,0,1,.3,1.61,5.32,5.32,0,0,1-.35,1.92,4.66,4.66,0,0,1-1,1.56A5,5,0,0,1,113,532a6.17,6.17,0,0,1-2.23.38,7.43,7.43,0,0,1-1.42-.14,7.54,7.54,0,0,1-1.35-.41,6.61,6.61,0,0,1-1.21-.63,5.36,5.36,0,0,1-1-.81l.82-1.35a.85.85,0,0,1,.28-.25.64.64,0,0,1,.35-.1,1,1,0,0,1,.57.22c.2.14.44.3.72.47a5.26,5.26,0,0,0,1,.48,3.81,3.81,0,0,0,1.34.21,2.77,2.77,0,0,0,1.87-.57,2,2,0,0,0,.66-1.64,1.52,1.52,0,0,0-.3-1,2.39,2.39,0,0,0-.79-.63,5.45,5.45,0,0,0-1.12-.44l-1.28-.39a10.59,10.59,0,0,1-1.28-.5,4.1,4.1,0,0,1-1.12-.76,3.54,3.54,0,0,1-.79-1.18,4.47,4.47,0,0,1-.3-1.75,4.17,4.17,0,0,1,1.29-3,4.77,4.77,0,0,1,1.55-1,5.82,5.82,0,0,1,2.12-.36,7,7,0,0,1,2.47.42,5.67,5.67,0,0,1,1.93,1.17Z" transform="translate(-34.59 -265.66)"/><path class="cls-2" d="M137.48,532.16h-2.83v-6.62h-7.11v6.62h-2.83V517h2.83v6.51h7.11V517h2.83Z" transform="translate(-34.59 -265.66)"/><path class="cls-2" d="M161.58,524.59a8.35,8.35,0,0,1-.55,3.08,7,7,0,0,1-4,4.08,8.79,8.79,0,0,1-6.28,0,7.11,7.11,0,0,1-4-4.08,8.35,8.35,0,0,1-.55-3.08,8.44,8.44,0,0,1,.55-3.09,7.13,7.13,0,0,1,4-4.07,8.12,8.12,0,0,1,3.13-.58,8.9,8.9,0,0,1,2.17.26,7.56,7.56,0,0,1,1.87.76,7,7,0,0,1,1.52,1.18,7.67,7.67,0,0,1,1.15,1.56,7.55,7.55,0,0,1,.71,1.86A8.61,8.61,0,0,1,161.58,524.59Zm-2.88,0a6.8,6.8,0,0,0-.34-2.24,4.75,4.75,0,0,0-1-1.68,4.13,4.13,0,0,0-1.5-1.06,5.71,5.71,0,0,0-4,0,4.26,4.26,0,0,0-1.51,1.06,4.77,4.77,0,0,0-1,1.68,7.73,7.73,0,0,0,0,4.47,4.77,4.77,0,0,0,1,1.68,4.11,4.11,0,0,0,1.51,1,5.56,5.56,0,0,0,4,0,4,4,0,0,0,1.5-1,4.75,4.75,0,0,0,1-1.68A6.74,6.74,0,0,0,158.7,524.59Z" transform="translate(-34.59 -265.66)"/><path class="cls-2" d="M173.16,526.24v5.92h-2.81V517H175a9.35,9.35,0,0,1,2.64.32,5,5,0,0,1,1.81.89,3.42,3.42,0,0,1,1,1.38,4.38,4.38,0,0,1,.34,1.76,4.63,4.63,0,0,1-.23,1.45,4.24,4.24,0,0,1-.64,1.23,4.68,4.68,0,0,1-1.05,1,5.64,5.64,0,0,1-1.42.67,2.81,2.81,0,0,1,.92.87l3.79,5.59h-2.54a1.11,1.11,0,0,1-1-.57l-3.18-4.84a1.06,1.06,0,0,0-.4-.39,1.3,1.3,0,0,0-.63-.12Zm0-2h1.76a4.43,4.43,0,0,0,1.39-.2,2.59,2.59,0,0,0,1-.55,2.28,2.28,0,0,0,.57-.83,3,3,0,0,0,.18-1.06,2.16,2.16,0,0,0-.75-1.77,3.65,3.65,0,0,0-2.32-.62h-1.81Z" transform="translate(-34.59 -265.66)"/><path class="cls-2" d="M200.28,517v2.31h-4.57v12.83H192.9V519.33h-4.57V517Z" transform="translate(-34.59 -265.66)"/><path class="cls-2" d="M218.11,517v2.24h-6.73v4.2h5.3v2.16h-5.3v4.29h6.73v2.25h-9.56V517Z" transform="translate(-34.59 -265.66)"/><path class="cls-2" d="M235,519.77a1.13,1.13,0,0,1-.27.32.56.56,0,0,1-.35.1,1,1,0,0,1-.48-.16l-.61-.37a5.9,5.9,0,0,0-.83-.36,3.8,3.8,0,0,0-1.13-.16,3.44,3.44,0,0,0-1,.14,2.18,2.18,0,0,0-.74.4,1.49,1.49,0,0,0-.45.6,1.92,1.92,0,0,0-.15.77,1.35,1.35,0,0,0,.3.89,2.6,2.6,0,0,0,.79.61,10,10,0,0,0,1.12.45l1.29.42a12,12,0,0,1,1.29.52,4.34,4.34,0,0,1,1.12.76,3.34,3.34,0,0,1,.79,1.11,3.89,3.89,0,0,1,.3,1.61,5.32,5.32,0,0,1-.35,1.92,4.52,4.52,0,0,1-1,1.56,5,5,0,0,1-1.65,1.05,6.17,6.17,0,0,1-2.23.38,7.23,7.23,0,0,1-2.77-.55,6.61,6.61,0,0,1-1.21-.63,5.71,5.71,0,0,1-1-.81l.83-1.35a.93.93,0,0,1,.27-.25.64.64,0,0,1,.35-.1,1,1,0,0,1,.57.22c.2.14.44.3.72.47a5.26,5.26,0,0,0,1,.48,3.87,3.87,0,0,0,1.35.21,2.76,2.76,0,0,0,1.86-.57,2,2,0,0,0,.66-1.64,1.52,1.52,0,0,0-.3-1,2.39,2.39,0,0,0-.79-.63,5.45,5.45,0,0,0-1.12-.44l-1.28-.39a9.84,9.84,0,0,1-1.27-.5,4,4,0,0,1-1.12-.76,3.57,3.57,0,0,1-.8-1.18,4.67,4.67,0,0,1-.29-1.75,4.21,4.21,0,0,1,1.28-3,4.77,4.77,0,0,1,1.55-1,5.82,5.82,0,0,1,2.12-.36,7,7,0,0,1,2.47.42,5.58,5.58,0,0,1,1.93,1.17Z" transform="translate(-34.59 -265.66)"/><path class="cls-2" d="M255.23,517v2.31h-4.56v12.83h-2.82V519.33h-4.57V517Z" transform="translate(-34.59 -265.66)"/><path class="cls-2" d="M274.83,517h2.36a1,1,0,0,1,.61.17.86.86,0,0,1,.33.46l2.58,9.06c.05.23.11.47.16.73s.1.54.16.83c.06-.29.12-.57.18-.83s.14-.5.22-.73l3-9.06a1.11,1.11,0,0,1,.33-.44,1,1,0,0,1,.61-.19h.82a.93.93,0,0,1,.6.17,1.23,1.23,0,0,1,.35.46l3,9.06a13.38,13.38,0,0,1,.4,1.5q.13-.83.3-1.5l2.58-9.06a.81.81,0,0,1,.32-.45,1,1,0,0,1,.61-.18h2.21l-4.7,15.14h-2.55l-3.31-10.35a3.68,3.68,0,0,1-.13-.43c-.05-.15-.09-.31-.13-.48a3.37,3.37,0,0,1-.12.48l-.13.43-3.34,10.35h-2.56Z" transform="translate(-34.59 -265.66)"/><path class="cls-2" d="M320.81,532.16h-2.18a1,1,0,0,1-.6-.18,1.2,1.2,0,0,1-.34-.46l-1.13-3.09h-6.28l-1.13,3.09a.94.94,0,0,1-.32.44.92.92,0,0,1-.6.2H306L312,517h2.87Zm-9.8-5.72h4.82l-1.84-5c-.09-.22-.18-.48-.28-.79s-.2-.63-.29-1c-.1.36-.2.69-.29,1s-.19.57-.28.8Z" transform="translate(-34.59 -265.66)"/><path class="cls-2" d="M337.79,526.29v5.87H335v-5.87L329.46,517h2.48a.85.85,0,0,1,.58.17,1.49,1.49,0,0,1,.37.45l2.76,5.06c.16.31.3.6.43.86s.23.53.33.79c.09-.27.19-.53.31-.8s.25-.55.41-.85l2.75-5.06a1.51,1.51,0,0,1,.35-.43.86.86,0,0,1,.58-.19h2.5Z" transform="translate(-34.59 -265.66)"/><path class="cls-2" d="M380,517v2.31h-4.56v12.83h-2.82V519.33H368V517Z" transform="translate(-34.59 -265.66)"/><path class="cls-2" d="M406.38,524.59a8.35,8.35,0,0,1-.55,3.08,7.28,7.28,0,0,1-1.56,2.46,7.05,7.05,0,0,1-2.42,1.62,8.76,8.76,0,0,1-6.27,0,7.11,7.11,0,0,1-4-4.08,8.35,8.35,0,0,1-.55-3.08,8.44,8.44,0,0,1,.55-3.09,7.13,7.13,0,0,1,4-4.07,8.12,8.12,0,0,1,3.13-.58,8.9,8.9,0,0,1,2.17.26,7.34,7.34,0,0,1,1.86.76,6.79,6.79,0,0,1,1.53,1.18,7.67,7.67,0,0,1,1.15,1.56,7.55,7.55,0,0,1,.71,1.86A8.61,8.61,0,0,1,406.38,524.59Zm-2.88,0a6.8,6.8,0,0,0-.34-2.24,4.75,4.75,0,0,0-1-1.68,4.13,4.13,0,0,0-1.5-1.06,5.71,5.71,0,0,0-4,0,4.17,4.17,0,0,0-1.51,1.06,4.62,4.62,0,0,0-1,1.68,7.73,7.73,0,0,0,0,4.47,4.62,4.62,0,0,0,1,1.68,4,4,0,0,0,1.51,1,5.56,5.56,0,0,0,4,0,4,4,0,0,0,1.5-1,4.75,4.75,0,0,0,1-1.68A6.74,6.74,0,0,0,403.5,524.59Z" transform="translate(-34.59 -265.66)"/><path class="cls-2" d="M451.36,532.16h-2.18a.92.92,0,0,1-.59-.18,1.13,1.13,0,0,1-.35-.46l-1.13-3.09h-6.27l-1.13,3.09a1,1,0,0,1-.33.44.92.92,0,0,1-.59.2h-2.21l6-15.14h2.87Zm-9.8-5.72h4.83l-1.84-5a7.57,7.57,0,0,1-.29-.79c-.1-.3-.19-.63-.29-1-.1.36-.19.69-.29,1s-.19.57-.28.8Z" transform="translate(-34.59 -265.66)"/><path class="cls-2" d="M480.06,517a.86.86,0,0,1,.23.06,1.15,1.15,0,0,1,.19.14l.21.24,7.94,10.13c0-.24,0-.48-.05-.72s0-.46,0-.66V517H491v15.14h-1.45a1.33,1.33,0,0,1-.56-.11,1.31,1.31,0,0,1-.43-.37l-7.91-10.09c0,.23,0,.45.05.67s0,.42,0,.6v9.3h-2.48V517h1.79Z" transform="translate(-34.59 -265.66)"/><path class="cls-2" d="M514.43,517v2.24h-6.72v4.2H513v2.16h-5.3v4.29h6.72v2.25h-9.55V517Z" transform="translate(-34.59 -265.66)"/><path class="cls-2" d="M525.89,517h2.36a1,1,0,0,1,.61.17.77.77,0,0,1,.33.46l2.58,9.06c.05.23.11.47.16.73s.11.54.16.83c.06-.29.12-.57.19-.83a7,7,0,0,1,.21-.73l3-9.06a1,1,0,0,1,.33-.44.92.92,0,0,1,.6-.19h.83a.92.92,0,0,1,.59.17,1.13,1.13,0,0,1,.35.46l3,9.06a13.38,13.38,0,0,1,.4,1.5q.13-.83.3-1.5l2.58-9.06a.81.81,0,0,1,.32-.45,1,1,0,0,1,.61-.18h2.21l-4.7,15.14h-2.54L537,521.81a3.62,3.62,0,0,1-.14-.43c0-.15-.08-.31-.13-.48a3.37,3.37,0,0,1-.12.48c0,.16-.09.3-.13.43l-3.34,10.35h-2.55Z" transform="translate(-34.59 -265.66)"/><path class="cls-2" d="M585.85,528.59a.55.55,0,0,1,.41.18l1.11,1.2a6.06,6.06,0,0,1-2.26,1.75,7.94,7.94,0,0,1-3.24.61,7.55,7.55,0,0,1-3-.58,6.7,6.7,0,0,1-2.3-1.6,7.07,7.07,0,0,1-1.46-2.45,9.18,9.18,0,0,1-.51-3.11,8.75,8.75,0,0,1,.55-3.13,7.12,7.12,0,0,1,1.53-2.44,6.9,6.9,0,0,1,2.36-1.6,7.88,7.88,0,0,1,3-.57,7.56,7.56,0,0,1,2.94.54,7.11,7.11,0,0,1,2.18,1.43l-.94,1.31a1.45,1.45,0,0,1-.21.22.64.64,0,0,1-.36.09.68.68,0,0,1-.33-.09l-.37-.22-.46-.29a3.36,3.36,0,0,0-.6-.28,4.92,4.92,0,0,0-.81-.23,6.41,6.41,0,0,0-1.05-.08,4.67,4.67,0,0,0-1.86.36,4.06,4.06,0,0,0-1.45,1,4.75,4.75,0,0,0-.94,1.67,7.11,7.11,0,0,0-.34,2.26,6.4,6.4,0,0,0,.37,2.27,5.11,5.11,0,0,0,1,1.68,4.29,4.29,0,0,0,1.46,1,4.52,4.52,0,0,0,1.8.36,8.1,8.1,0,0,0,1-.06,4.34,4.34,0,0,0,.86-.2,4.26,4.26,0,0,0,.75-.35,5.31,5.31,0,0,0,.69-.53.72.72,0,0,1,.22-.15A.53.53,0,0,1,585.85,528.59Z" transform="translate(-34.59 -265.66)"/><path class="cls-2" d="M613.9,524.59a8.35,8.35,0,0,1-.55,3.08,7,7,0,0,1-4,4.08,8.79,8.79,0,0,1-6.28,0,7.15,7.15,0,0,1-2.42-1.62,7.3,7.3,0,0,1-1.57-2.46,8.35,8.35,0,0,1-.55-3.08,8.44,8.44,0,0,1,.55-3.09,7.36,7.36,0,0,1,1.57-2.45,7.15,7.15,0,0,1,2.42-1.62,8.15,8.15,0,0,1,3.13-.58,8.84,8.84,0,0,1,2.17.26,7.56,7.56,0,0,1,1.87.76,7,7,0,0,1,1.52,1.18,7.67,7.67,0,0,1,1.15,1.56,8,8,0,0,1,.72,1.86A9.12,9.12,0,0,1,613.9,524.59Zm-2.88,0a7.08,7.08,0,0,0-.33-2.24,4.93,4.93,0,0,0-1-1.68,4.13,4.13,0,0,0-1.5-1.06,5.71,5.71,0,0,0-4,0,4.26,4.26,0,0,0-1.51,1.06,4.93,4.93,0,0,0-1,1.68,7.73,7.73,0,0,0,0,4.47,4.93,4.93,0,0,0,1,1.68,4.11,4.11,0,0,0,1.51,1,5.56,5.56,0,0,0,4,0,4,4,0,0,0,1.5-1,4.93,4.93,0,0,0,1-1.68A7,7,0,0,0,611,524.59Z" transform="translate(-34.59 -265.66)"/><path class="cls-2" d="M628.64,517a.7.7,0,0,1,.23.06.9.9,0,0,1,.2.14l.21.24,7.94,10.13-.06-.72c0-.24,0-.46,0-.66V517h2.49v15.14h-1.45a1.33,1.33,0,0,1-.56-.11,1.22,1.22,0,0,1-.43-.37l-7.91-10.09c0,.23,0,.45.05.67s0,.42,0,.6v9.3h-2.48V517h1.78Z" transform="translate(-34.59 -265.66)"/><path class="cls-2" d="M661.54,519.77a1.13,1.13,0,0,1-.27.32.56.56,0,0,1-.35.1,1,1,0,0,1-.48-.16l-.61-.37a5.9,5.9,0,0,0-.83-.36,3.8,3.8,0,0,0-1.13-.16,3.56,3.56,0,0,0-1,.14,2.22,2.22,0,0,0-.73.4,1.49,1.49,0,0,0-.45.6,1.92,1.92,0,0,0-.15.77,1.35,1.35,0,0,0,.3.89,2.6,2.6,0,0,0,.79.61,9.31,9.31,0,0,0,1.12.45l1.29.42a12,12,0,0,1,1.29.52,4.34,4.34,0,0,1,1.12.76,3.34,3.34,0,0,1,.79,1.11,3.89,3.89,0,0,1,.3,1.61,5.32,5.32,0,0,1-.35,1.92,4.52,4.52,0,0,1-1,1.56,5,5,0,0,1-1.65,1.05,6.17,6.17,0,0,1-2.23.38,7.23,7.23,0,0,1-2.77-.55,6.61,6.61,0,0,1-1.21-.63,5.71,5.71,0,0,1-1-.81l.82-1.35a1,1,0,0,1,.28-.25.64.64,0,0,1,.35-.1,1,1,0,0,1,.57.22c.2.14.44.3.72.47a5.26,5.26,0,0,0,1,.48,3.83,3.83,0,0,0,1.35.21,2.76,2.76,0,0,0,1.86-.57,2,2,0,0,0,.66-1.64,1.52,1.52,0,0,0-.3-1,2.39,2.39,0,0,0-.79-.63,5.45,5.45,0,0,0-1.12-.44l-1.28-.39a9.84,9.84,0,0,1-1.27-.5,4.15,4.15,0,0,1-1.13-.76,3.7,3.7,0,0,1-.79-1.18,4.48,4.48,0,0,1-.29-1.75,4.14,4.14,0,0,1,.33-1.61,4,4,0,0,1,.95-1.39,4.77,4.77,0,0,1,1.55-1,5.82,5.82,0,0,1,2.12-.36,7,7,0,0,1,2.47.42,5.58,5.58,0,0,1,1.93,1.17Z" transform="translate(-34.59 -265.66)"/><path class="cls-2" d="M681.53,529.89a3.55,3.55,0,0,0,1.46-.28,2.9,2.9,0,0,0,1.08-.76,3.4,3.4,0,0,0,.68-1.19,4.9,4.9,0,0,0,.24-1.58V517h2.81v9.06a6.94,6.94,0,0,1-.43,2.5,5.58,5.58,0,0,1-3.22,3.28,7.57,7.57,0,0,1-5.25,0,5.58,5.58,0,0,1-3.22-3.28,6.94,6.94,0,0,1-.43-2.5V517h2.81v9.05a4.9,4.9,0,0,0,.24,1.58,3.54,3.54,0,0,0,.68,1.2,3,3,0,0,0,1.09.76A3.59,3.59,0,0,0,681.53,529.89Z" transform="translate(-34.59 -265.66)"/><path class="cls-2" d="M709.39,526.57c.11.24.21.49.3.73.1-.26.2-.51.31-.75a7.32,7.32,0,0,1,.33-.69l4.47-8.39a1.46,1.46,0,0,1,.18-.26.67.67,0,0,1,.21-.13.6.6,0,0,1,.24-.05h2.45v15.14H715.4v-9.78c0-.18,0-.38,0-.6s0-.44,0-.66l-4.57,8.59a1.07,1.07,0,0,1-1,.62h-.4a1.07,1.07,0,0,1-1-.62l-4.63-8.62c0,.23,0,.45,0,.67s0,.43,0,.62v9.78h-2.48V517h2.45a.66.66,0,0,1,.25.05.63.63,0,0,1,.2.13,1.46,1.46,0,0,1,.17.26l4.53,8.41A7.32,7.32,0,0,1,709.39,526.57Z" transform="translate(-34.59 -265.66)"/><path class="cls-2" d="M741.28,517v2.24h-6.72v4.2h5.3v2.16h-5.3v4.29h6.72v2.25h-9.55V517Z" transform="translate(-34.59 -265.66)"/><path class="cls-2" d="M757.06,526.24v5.92h-2.81V517h4.62a9.35,9.35,0,0,1,2.64.32,5,5,0,0,1,1.81.89,3.54,3.54,0,0,1,1,1.38,4.56,4.56,0,0,1,.33,1.76,4.94,4.94,0,0,1-.22,1.45,4.52,4.52,0,0,1-.65,1.23,4.68,4.68,0,0,1-1.05,1,5.64,5.64,0,0,1-1.42.67,2.71,2.71,0,0,1,.92.87l3.79,5.59h-2.54a1.12,1.12,0,0,1-1-.57l-3.18-4.84a1.06,1.06,0,0,0-.4-.39,1.3,1.3,0,0,0-.63-.12Zm0-2h1.76a4.39,4.39,0,0,0,1.39-.2,2.59,2.59,0,0,0,1-.55,2.28,2.28,0,0,0,.57-.83,3,3,0,0,0,.19-1.06,2.16,2.16,0,0,0-.76-1.77,3.65,3.65,0,0,0-2.32-.62h-1.81Z" transform="translate(-34.59 -265.66)"/><polygon class="cls-3" points="0 192.03 0 0 192.03 0 0 192.03"/><path class="cls-4" d="M102.16,265.66H34.59v192H99.12c1,0,2-.05,3-.08l0,.08c55.53,0,100.54-43,100.54-96S157.69,265.66,102.16,265.66Z" transform="translate(-34.59 -265.66)"/><polygon class="cls-5" points="0 192.03 0 0 95.71 96.02 0 192.03"/><polygon class="cls-6" points="192.03 192.03 0 192.03 192.03 0 192.03 192.03"/><path class="cls-7" d="M34.59,457.69H99.12c1,0,2-.05,3-.08l0,.08c55.53,0,100.54-43,100.54-96A92.55,92.55,0,0,0,185,307.27Z" transform="translate(-34.59 -265.66)"/><path class="cls-2" d="M313.77,352a22.48,22.48,0,0,1-8-1.31,15.42,15.42,0,0,1-9.38-9.57,22.68,22.68,0,0,1-1.22-7.64V301.5h-5.38a3.42,3.42,0,0,1-3.54-3.73v-7.39l10.08-2,3.73-19.4q.74-2.94,4.15-2.94h9.9v22.46h15.71v13H314.13v30.65a6,6,0,0,0,1.07,3.64,3.65,3.65,0,0,0,3.09,1.43A6.18,6.18,0,0,0,320,337a7,7,0,0,0,1.22-.49l1-.49a2.55,2.55,0,0,1,1.07-.21,2.2,2.2,0,0,1,1.38.4,4.81,4.81,0,0,1,1.06,1.25l5.75,9a26.2,26.2,0,0,1-8.25,4.13A33.07,33.07,0,0,1,313.77,352Z" transform="translate(-34.59 -265.66)"/><path class="cls-2" d="M338,351V266.06h19v27.1a31.36,31.36,0,0,1,7.42-4.74,23.22,23.22,0,0,1,9.57-1.8,22.28,22.28,0,0,1,9.2,1.8,19.23,19.23,0,0,1,6.75,5,21.48,21.48,0,0,1,4.15,7.63,31.66,31.66,0,0,1,1.41,9.63V351H376.53V310.7a11,11,0,0,0-2.15-7.24,7.67,7.67,0,0,0-6.29-2.6,13.17,13.17,0,0,0-5.87,1.35,22.85,22.85,0,0,0-5.25,3.6V351Z" transform="translate(-34.59 -265.66)"/><path class="cls-2" d="M435.62,286.62a32.54,32.54,0,0,1,11.52,2,25,25,0,0,1,9,5.68A26,26,0,0,1,462,303.4a33.62,33.62,0,0,1,2.11,12.25,25.12,25.12,0,0,1-.19,3.48,5.4,5.4,0,0,1-.67,2.14,2.51,2.51,0,0,1-1.31,1.1,6,6,0,0,1-2.11.31H423.28q.92,7.95,4.82,11.52a14.39,14.39,0,0,0,10.09,3.57,18.07,18.07,0,0,0,5.68-.79,29.25,29.25,0,0,0,4.25-1.77l3.42-1.78a7.23,7.23,0,0,1,3.27-.79,3.9,3.9,0,0,1,3.42,1.65l5.5,6.78a27.68,27.68,0,0,1-6.32,5.47,32.74,32.74,0,0,1-7,3.3,37.1,37.1,0,0,1-7.15,1.65,53,53,0,0,1-6.81.46,35.51,35.51,0,0,1-12.5-2.17,28.52,28.52,0,0,1-10.21-6.45,30.54,30.54,0,0,1-6.91-10.63,39.77,39.77,0,0,1-2.53-14.79,33.43,33.43,0,0,1,2.17-12,29.21,29.21,0,0,1,16.07-16.74A32.49,32.49,0,0,1,435.62,286.62ZM436,299.7q-5.43,0-8.49,3.09t-4,8.89h23.65a17,17,0,0,0-.58-4.4,10.63,10.63,0,0,0-1.9-3.82,9.52,9.52,0,0,0-3.45-2.72A11.84,11.84,0,0,0,436,299.7Z" transform="translate(-34.59 -265.66)"/><path class="cls-2" d="M335.43,457.78a4.46,4.46,0,0,1-4.65-3.18l-1.46-4.83a36,36,0,0,1-4,3.67,24.51,24.51,0,0,1-4.49,2.84,23.12,23.12,0,0,1-5.19,1.83,26.58,26.58,0,0,1-6,.65,19.64,19.64,0,0,1-9.17-2.2,21.21,21.21,0,0,1-7.27-6.36A32.2,32.2,0,0,1,288.4,440a49.52,49.52,0,0,1-1.74-13.72,42.57,42.57,0,0,1,2-13.17,32.33,32.33,0,0,1,5.53-10.52,25.59,25.59,0,0,1,8.59-6.93,24.32,24.32,0,0,1,11.05-2.51,21.14,21.14,0,0,1,8.28,1.44,23.94,23.94,0,0,1,6.15,3.76V372.87h18.94v84.91Zm-19.19-13.57a16.12,16.12,0,0,0,3.76-.4,13,13,0,0,0,3.09-1.13,13.57,13.57,0,0,0,2.66-1.83,22.58,22.58,0,0,0,2.47-2.57V411.4a12.68,12.68,0,0,0-4.68-3.34,14.51,14.51,0,0,0-5.22-.94,11.08,11.08,0,0,0-4.83,1,9.78,9.78,0,0,0-3.82,3.33,17.63,17.63,0,0,0-2.53,5.95,37.13,37.13,0,0,0-.92,8.87,41,41,0,0,0,.73,8.43,17.35,17.35,0,0,0,2.05,5.53,7.88,7.88,0,0,0,3.15,3A8.88,8.88,0,0,0,316.24,444.21Z" transform="translate(-34.59 -265.66)"/><path class="cls-2" d="M381.33,377.49a10,10,0,0,1-.92,4.24,11.15,11.15,0,0,1-2.51,3.48,12.2,12.2,0,0,1-3.7,2.39,11.45,11.45,0,0,1-4.49.88,10.61,10.61,0,0,1-4.33-.88,12.13,12.13,0,0,1-3.58-2.39,11,11,0,0,1-2.45-3.48,10.29,10.29,0,0,1-.88-4.24,10.66,10.66,0,0,1,.88-4.34,11.4,11.4,0,0,1,6-5.93,10.94,10.94,0,0,1,4.33-.86,11.81,11.81,0,0,1,4.49.86,11.47,11.47,0,0,1,6.21,5.93A10.36,10.36,0,0,1,381.33,377.49Zm-2,16.92v63.37H360.42V394.41Z" transform="translate(-34.59 -265.66)"/><path class="cls-2" d="M427.77,457.78H410.54L386,394.41h15.77a5.86,5.86,0,0,1,3.39.94A4.72,4.72,0,0,1,407,397.7l8.81,28.42q1.15,3.5,2,6.79t1.56,6.6q.68-3.3,1.59-6.6t2.14-6.79l9.16-28.42a4.84,4.84,0,0,1,1.84-2.35,5.35,5.35,0,0,1,3.17-.94h15Z" transform="translate(-34.59 -265.66)"/><path class="cls-2" d="M484.3,393.43a32.77,32.77,0,0,1,11.52,1.95,25,25,0,0,1,9,5.69,25.79,25.79,0,0,1,5.87,9.13,33.67,33.67,0,0,1,2.11,12.26,25.32,25.32,0,0,1-.19,3.48,5.4,5.4,0,0,1-.67,2.14,2.56,2.56,0,0,1-1.31,1.1,6.25,6.25,0,0,1-2.11.3H472q.92,7.95,4.82,11.52a14.35,14.35,0,0,0,10.09,3.58,18.06,18.06,0,0,0,5.68-.8A27.18,27.18,0,0,0,496.8,442l3.42-1.77a7.1,7.1,0,0,1,3.27-.79,3.92,3.92,0,0,1,3.42,1.64l5.5,6.79a28.18,28.18,0,0,1-6.32,5.47,33,33,0,0,1-7,3.3A38.64,38.64,0,0,1,492,458.3a54.85,54.85,0,0,1-6.81.46,35.74,35.74,0,0,1-12.5-2.17,28.8,28.8,0,0,1-10.21-6.45,30.64,30.64,0,0,1-6.91-10.63A39.77,39.77,0,0,1,453,424.72a33.39,33.39,0,0,1,2.17-12,29.26,29.26,0,0,1,16.07-16.75A32.49,32.49,0,0,1,484.3,393.43Zm.36,13.08q-5.43,0-8.49,3.08t-4,8.89h23.65a17.09,17.09,0,0,0-.58-4.4,10.71,10.71,0,0,0-1.9-3.82,9.63,9.63,0,0,0-3.45-2.72A11.85,11.85,0,0,0,484.66,406.51Z" transform="translate(-34.59 -265.66)"/><path class="cls-2" d="M522.25,457.78V394.41h11.24a9.8,9.8,0,0,1,2.36.24,4.2,4.2,0,0,1,1.59.76,3.32,3.32,0,0,1,1,1.38,11.51,11.51,0,0,1,.58,2.08l.92,5.38a27.64,27.64,0,0,1,6.82-8.1,13.85,13.85,0,0,1,8.76-3,11.35,11.35,0,0,1,7,2l-1.22,13.93a3,3,0,0,1-1,1.84,3.38,3.38,0,0,1-1.93.48c-.32,0-.75,0-1.28-.05l-1.65-.16-1.74-.18A16.12,16.12,0,0,0,552,411a9.52,9.52,0,0,0-6.63,2.23,17.63,17.63,0,0,0-4.19,6.14v38.44Z" transform="translate(-34.59 -265.66)"/><path class="cls-2" d="M609.15,408.28a5,5,0,0,1-1.56,1.65,4,4,0,0,1-2.11.49,6.86,6.86,0,0,1-2.69-.58l-2.9-1.26a33.78,33.78,0,0,0-3.52-1.25,15.92,15.92,0,0,0-4.46-.58,9.41,9.41,0,0,0-5.53,1.38,4.42,4.42,0,0,0-1.92,3.82,3.81,3.81,0,0,0,1.25,2.93,11.48,11.48,0,0,0,3.33,2,44.46,44.46,0,0,0,4.71,1.69q2.63.79,5.37,1.77a46.21,46.21,0,0,1,5.38,2.29,20.3,20.3,0,0,1,4.71,3.24,14.59,14.59,0,0,1,3.33,4.67,16,16,0,0,1,1.25,6.6,21.72,21.72,0,0,1-1.71,8.68,18.47,18.47,0,0,1-5.1,6.85,24.25,24.25,0,0,1-8.38,4.46,37.69,37.69,0,0,1-11.46,1.59,35.51,35.51,0,0,1-6.47-.61,45.78,45.78,0,0,1-6.27-1.65,34.75,34.75,0,0,1-5.59-2.48,25.21,25.21,0,0,1-4.4-3.08l4.4-7a5.58,5.58,0,0,1,1.87-1.93,5.48,5.48,0,0,1,2.9-.7,5.93,5.93,0,0,1,3,.73l2.84,1.59a24.68,24.68,0,0,0,3.58,1.59,15.51,15.51,0,0,0,5.17.74,13.3,13.3,0,0,0,3.72-.46,6.59,6.59,0,0,0,2.44-1.26,4.9,4.9,0,0,0,1.78-3.79,4.12,4.12,0,0,0-1.28-3.11,11.18,11.18,0,0,0-3.36-2.11,41.82,41.82,0,0,0-4.74-1.65c-1.77-.51-3.58-1.09-5.41-1.74a42.83,42.83,0,0,1-5.41-2.36,18.47,18.47,0,0,1-4.74-3.48,16.34,16.34,0,0,1-3.36-5.16,20.74,20.74,0,0,1,.28-15.07,17.79,17.79,0,0,1,4.68-6.38,22.74,22.74,0,0,1,7.82-4.37,33.76,33.76,0,0,1,11-1.62,35.16,35.16,0,0,1,6.63.61,34.52,34.52,0,0,1,6,1.71,28.66,28.66,0,0,1,5.13,2.6,24.65,24.65,0,0,1,4.09,3.27Z" transform="translate(-34.59 -265.66)"/><path class="cls-2" d="M644.65,377.49a10,10,0,0,1-.91,4.24,11.15,11.15,0,0,1-2.51,3.48,12.2,12.2,0,0,1-3.7,2.39,11.45,11.45,0,0,1-4.49.88,10.66,10.66,0,0,1-4.34-.88,12.09,12.09,0,0,1-3.57-2.39,10.82,10.82,0,0,1-2.45-3.48,10.29,10.29,0,0,1-.88-4.24,10.66,10.66,0,0,1,.88-4.34,11.43,11.43,0,0,1,6-5.93,11,11,0,0,1,4.34-.86,11.81,11.81,0,0,1,4.49.86,11.47,11.47,0,0,1,6.21,5.93A10.36,10.36,0,0,1,644.65,377.49Zm-1.95,16.92v63.37h-19V394.41Z" transform="translate(-34.59 -265.66)"/><path class="cls-2" d="M732.22,474.22a6.92,6.92,0,0,1-2.08,2.78,6.78,6.78,0,0,1-3.91.89H712.05l12.22-25.67L699,394.41h16.75a5.23,5.23,0,0,1,3.39,1,6,6,0,0,1,1.74,2.32L731.24,425a60.17,60.17,0,0,1,2.38,7.58c.41-1.3.85-2.6,1.32-3.88s.95-2.56,1.43-3.82l9.41-27.2a5.12,5.12,0,0,1,2-2.35,5.38,5.38,0,0,1,3.06-.94h15.27Z" transform="translate(-34.59 -265.66)"/><path class="cls-2" d="M678.61,458.79a22.42,22.42,0,0,1-8-1.31,15.36,15.36,0,0,1-9.38-9.57,22.43,22.43,0,0,1-1.23-7.64V408.34h-5.37a3.42,3.42,0,0,1-3.55-3.73v-7.39l10.09-2,3.72-19.4q.74-2.94,4.16-2.94H679v22.46h15.7v13H679V439a5.89,5.89,0,0,0,1.07,3.64,3.62,3.62,0,0,0,3.08,1.43,6.08,6.08,0,0,0,1.74-.21,7.16,7.16,0,0,0,1.23-.49c.34-.18.67-.35,1-.49a2.51,2.51,0,0,1,1.06-.21,2.2,2.2,0,0,1,1.38.4,4.82,4.82,0,0,1,1.07,1.25l5.74,9a26,26,0,0,1-8.25,4.13A33,33,0,0,1,678.61,458.79Z" transform="translate(-34.59 -265.66)"/></g></g></svg>