<svg width="516" height="178" viewBox="0 0 516 178" fill="none" xmlns="http://www.w3.org/2000/svg">
<g clip-path="url(#clip0)">
<path d="M152.3 39.2401L90.39 3.09006C86.919 1.06601 82.973 -0.000488281 78.955 -0.000488281C74.937 -0.000488281 70.991 1.06601 67.52 3.09006L5.62 39.2401C3.90991 40.2391 2.49127 41.6685 1.50527 43.3861C0.519272 45.1037 0.000295228 47.0496 0 49.0301V128.12C0.000295228 130.101 0.519272 132.046 1.50527 133.764C2.49127 135.482 3.90991 136.911 5.62 137.91L67.52 174.06C70.9896 176.088 74.9362 177.157 78.955 177.157C82.9738 177.157 86.9204 176.088 90.39 174.06L152.3 137.91C154.01 136.911 155.429 135.482 156.415 133.764C157.401 132.046 157.92 130.101 157.92 128.12V49.0301C157.92 47.0496 157.401 45.1037 156.415 43.3861C155.429 41.6685 154.01 40.2391 152.3 39.2401V39.2401Z" fill="white"/>
<path d="M73.8004 158.82V141.44C73.6587 138.819 72.8979 136.269 71.5803 133.999C70.2627 131.729 68.4259 129.803 66.2204 128.38L51.0204 119.65C46.8204 117.24 43.4104 119.17 43.3904 123.97V141.35C43.5322 143.972 44.2929 146.524 45.6104 148.796C46.9279 151.067 48.7647 152.995 50.9704 154.42L66.1704 163.15C70.3704 165.57 73.7904 163.63 73.8004 158.82ZM35.8004 136.99L35.8604 119.57C35.8604 114.77 32.4804 108.93 28.2904 106.57L13.0604 97.8101C8.86043 95.4001 5.45043 97.3401 5.44043 102.13V119.52C5.44043 124.32 8.82043 130.17 13.0104 132.58L28.2204 141.32C32.3604 143.73 35.7804 141.79 35.7904 136.99H35.8004ZM73.9304 115.36V97.9802C73.9304 93.1802 70.5504 87.3302 66.3604 84.9202L51.1504 76.1901C46.9504 73.7701 43.5404 75.7102 43.5304 80.5102V97.8902C43.5304 102.7 46.9104 108.54 51.1004 110.95L66.3104 119.69C70.4904 122.1 73.9104 120.17 73.9204 115.36H73.9304ZM35.9204 93.5702V76.1801C35.7788 73.5605 35.0179 71.0119 33.7002 68.7433C32.3826 66.4748 30.5457 64.5511 28.3404 63.1301L13.1404 54.3902C8.94043 51.9802 5.52043 53.9102 5.51043 58.7102L5.46043 76.1002C5.60207 78.7198 6.36295 81.2685 7.68061 83.537C8.99827 85.8055 10.8351 87.7292 13.0404 89.1501L28.2404 97.8902C32.4904 100.26 35.8604 98.3302 35.9204 93.5702Z" fill="#828282"/>
<path d="M24.5704 52.1802C32.9704 57.0102 46.5704 57.0102 54.8804 52.1802C63.1904 47.3502 63.1804 39.5402 54.7804 34.7102C46.3804 29.8802 32.7804 29.8902 24.4804 34.7102C16.1804 39.5302 16.1804 47.3602 24.5704 52.1802ZM62.5704 74.0202C70.9704 78.8402 84.5704 78.8402 92.8804 74.0202C101.19 69.2002 101.18 61.3802 92.7804 56.5502C84.3804 51.7202 70.7804 51.7302 62.4704 56.5502C54.1604 61.3702 54.1904 69.2002 62.5804 74.0202H62.5704ZM62.3304 30.3402C70.7204 35.1702 84.3304 35.1702 92.6304 30.3402C100.93 25.5102 100.93 17.6902 92.5304 12.8702C84.1304 8.05022 70.5304 8.04022 62.2304 12.8702C53.9304 17.7002 53.9404 25.5702 62.3404 30.3402H62.3304ZM100.33 52.1802C108.73 57.0102 122.33 57.0102 130.64 52.1802C138.95 47.3502 138.94 39.5402 130.54 34.7102C122.14 29.8802 108.54 29.8902 100.23 34.7102C91.9204 39.5302 91.9504 47.3602 100.34 52.1802H100.33Z" fill="#E7E7E7"/>
<path d="M148.86 129.63C151.79 127.95 153.6 123.28 152.13 121.22L138.28 101.85C137.55 100.85 136.28 100.85 134.98 101.57C133.469 102.525 132.316 103.952 131.7 105.63L118 140.83C116.54 144.57 118.38 147.14 121.31 145.46L148.86 129.63ZM148.74 86.1699C151.66 84.4899 153.48 79.8199 152.01 77.7599L138.16 58.3899C137.42 57.3899 136.16 57.3899 134.86 58.1099C133.346 59.0637 132.189 60.491 131.57 62.1699L117.86 97.3699C116.4 101.11 118.24 103.68 121.17 102L148.74 86.1699ZM110.86 151.47C113.79 149.79 115.61 145.12 114.14 143.06L100.28 123.69C99.5501 122.69 98.2802 122.69 96.9902 123.41C95.4761 124.364 94.3195 125.791 93.7001 127.47L80.0001 162.67C78.5501 166.41 80.3901 168.98 83.3101 167.3L110.86 151.47ZM110.74 108.01C113.67 106.33 115.48 101.65 114.01 99.5999L100.16 80.2299C99.4202 79.2299 98.1601 79.2299 96.8601 79.9499C95.3463 80.9014 94.1922 82.3298 93.5801 84.0099L79.8601 119.21C78.4001 122.95 80.2401 125.52 83.1701 123.84L110.74 108.01Z" fill="#ADADAD"/>
<path d="M234.74 76.4398C234.74 70.9605 232.563 65.7055 228.688 61.831C224.814 57.9565 219.559 55.7798 214.08 55.7798H186.6V126H193.4V97.0898H212.12L226.86 126H234.79L219.66 96.3198C223.998 95.1047 227.819 92.5043 230.542 88.9151C233.264 85.3259 234.739 80.9448 234.74 76.4398V76.4398ZM214.08 90.8598H193.4V62.0098H214.08C221.72 62.0098 227.94 68.4798 227.94 76.4398C227.94 84.3998 221.72 90.8598 214.08 90.8598ZM306.63 101.67C306.63 112.13 297.77 120.67 286.84 120.67C275.91 120.67 267.02 112.16 267.02 101.67V55.7998H260.23V101.67C260.23 115.74 272.15 127.15 286.85 127.15C301.55 127.15 313.44 115.74 313.44 101.67V55.7998H306.66L306.63 101.67ZM378.22 90.2099C384.3 87.7499 388.49 81.8298 388.49 74.3098C388.526 71.8757 388.075 69.4588 387.164 67.2012C386.254 64.9435 384.901 62.8904 383.186 61.1625C381.472 59.4346 379.429 58.0666 377.178 57.1389C374.927 56.2111 372.514 55.7423 370.08 55.7598H343.47V125.98H370.08C381.66 125.98 391.08 117.98 391.08 107.44C391.04 99.5098 385.75 92.7899 378.22 90.2099V90.2099ZM350.22 61.9899H370.04C376.44 61.9899 381.65 67.1998 381.65 74.3098C381.65 81.4198 376.44 87.7598 370.04 87.7598H350.26L350.22 61.9899ZM370.04 119.75H350.26V93.9899H370.08C373.649 94.0255 377.064 95.4496 379.601 97.9604C382.138 100.471 383.597 103.871 383.67 107.44C383.67 114.57 377.58 119.75 370.08 119.75H370.04ZM416.48 125.98H423.28V55.7598H416.48V125.98ZM515.58 90.8698C515.578 83.2247 513.158 75.776 508.667 69.5892C504.175 63.4024 497.842 58.7944 490.574 56.4244C483.305 54.0544 475.473 54.0439 468.199 56.3942C460.924 58.7445 454.578 63.3353 450.07 69.5099C445.562 75.6846 443.122 83.1267 443.1 90.7718C443.077 98.417 445.473 105.873 449.944 112.075C454.416 118.276 460.734 122.904 467.995 125.298C475.255 127.691 483.087 127.727 490.37 125.4L503.16 142.97H511.66L496.86 122.57C502.535 119.446 507.269 114.857 510.569 109.282C513.868 103.706 515.613 97.3484 515.62 90.8698H515.58ZM479.34 120.32C462.79 120.32 450.46 107.42 450.46 90.8698C450.46 74.3198 462.79 61.4198 479.34 61.4198C495.89 61.4198 508.22 74.3198 508.22 90.8698C508.22 107.42 495.93 120.32 479.38 120.32H479.34Z" fill="#242424"/>
</g>
<defs>
<clipPath id="clip0">
<rect width="515.63" height="177.16" fill="white"/>
</clipPath>
</defs>
</svg>
