<svg id="Layer_1" data-name="Layer 1" xmlns="http://www.w3.org/2000/svg" viewBox="0 0 515.63 177.16"><defs><style>.cls-1{fill:#fff;}.cls-2{fill:#004a99;}.cls-3{fill:#f2ba52;}.cls-4{fill:#eb5f5f;}.cls-5{fill:#183842;}</style></defs><path class="cls-1" d="M189.44,371.67l-61.91-36.15a22.7,22.7,0,0,0-22.87,0l-61.9,36.15a11.34,11.34,0,0,0-5.62,9.79v79.09a11.34,11.34,0,0,0,5.62,9.79l61.9,36.15a22.66,22.66,0,0,0,22.87,0l61.91-36.15a11.34,11.34,0,0,0,5.62-9.79V381.46A11.34,11.34,0,0,0,189.44,371.67Z" transform="translate(-37.14 -332.43)"/><path class="cls-2" d="M110.94,491.25l0-17.38a16.61,16.61,0,0,0-7.58-13.06l-15.2-8.73c-4.2-2.41-7.61-.48-7.63,4.32l0,17.38a16.63,16.63,0,0,0,7.58,13.07l15.2,8.73C107.51,498,110.93,496.06,110.94,491.25Zm-38-21.83L73,452c0-4.8-3.38-10.64-7.57-13L50.2,430.24c-4.2-2.41-7.61-.47-7.62,4.32l0,17.39c0,4.8,3.38,10.65,7.57,13.06l15.21,8.74C69.5,476.16,72.92,474.22,72.93,469.42Zm38.13-21.63,0-17.38c0-4.8-3.38-10.65-7.57-13.06l-15.21-8.73c-4.2-2.42-7.61-.48-7.62,4.32l0,17.38c0,4.81,3.38,10.65,7.57,13.06l15.21,8.74C107.63,454.53,111.05,452.6,111.06,447.79ZM73.06,426l0-17.39a16.59,16.59,0,0,0-7.58-13.05l-15.2-8.74c-4.2-2.41-7.62-.48-7.63,4.32l-.05,17.39a16.59,16.59,0,0,0,7.58,13.05l15.2,8.74C69.63,432.69,73,430.76,73.06,426Z" transform="translate(-37.14 -332.43)"/><path class="cls-3" d="M61.71,384.61c8.4,4.83,22,4.83,30.31,0s8.3-12.64-.1-17.47-22-4.82-30.3,0S53.32,379.79,61.71,384.61Zm38,21.84c8.4,4.82,22,4.82,30.31,0s8.3-12.64-.1-17.47-22-4.82-30.31,0S91.33,401.63,99.72,406.45Zm-.24-43.68c8.39,4.83,22,4.83,30.3,0s8.3-12.65-.1-17.47-22-4.83-30.3,0S91.08,358,99.48,362.77Zm38,21.84c8.4,4.83,22,4.83,30.31,0s8.3-12.64-.1-17.47-22-4.82-30.31,0S129.09,379.79,137.48,384.61Z" transform="translate(-37.14 -332.43)"/><path class="cls-4" d="M186,462.06c2.93-1.68,4.74-6.35,3.27-8.41l-13.85-19.37c-.73-1-2-1-3.3-.28a8.11,8.11,0,0,0-3.28,4.06l-13.7,35.2c-1.46,3.74.38,6.31,3.31,4.63Zm-.12-43.46c2.92-1.68,4.74-6.35,3.27-8.41l-13.85-19.37c-.74-1-2-1-3.3-.28a8.12,8.12,0,0,0-3.29,4.06L155,429.8c-1.46,3.74.38,6.31,3.31,4.63ZM148,483.9c2.93-1.68,4.75-6.35,3.28-8.41l-13.86-19.37c-.73-1-2-1-3.29-.28a8.12,8.12,0,0,0-3.29,4.06l-13.7,35.2c-1.45,3.74.39,6.31,3.31,4.63Zm-.12-43.46c2.93-1.68,4.74-6.36,3.27-8.41l-13.85-19.37c-.74-1-2-1-3.3-.28a8.05,8.05,0,0,0-3.28,4.06L117,451.64c-1.46,3.74.38,6.31,3.31,4.63Z" transform="translate(-37.14 -332.43)"/><path class="cls-5" d="M271.88,408.87a20.66,20.66,0,0,0-20.66-20.66H223.74v70.22h6.8V429.52h18.72L264,458.43h7.93L256.8,428.75A20.65,20.65,0,0,0,271.88,408.87Zm-20.66,14.42H230.54V394.44h20.68c7.64,0,13.86,6.47,13.86,14.43S258.86,423.29,251.22,423.29Zm92.55,10.81c0,10.46-8.86,19-19.79,19s-19.82-8.51-19.82-19l0-45.87h-6.79l0,45.87c0,14.07,11.92,25.48,26.62,25.48s26.59-11.41,26.59-25.48l0-45.87H343.8Zm71.59-11.46c6.08-2.46,10.27-8.38,10.27-15.9a18.28,18.28,0,0,0-18.41-18.55H380.61v70.22h26.61c11.58,0,21-8,21-18.54C428.18,431.94,422.89,425.22,415.36,422.64Zm-28-28.22h19.82c6.4,0,11.61,5.21,11.61,12.32s-5.21,13.45-11.61,13.45H387.4Zm19.82,57.76H387.4V426.42h19.82a13.73,13.73,0,0,1,13.59,13.45C420.81,447,414.72,452.18,407.22,452.18Zm46.44,6.23h6.8V388.19h-6.8Zm99.1-35.11a36.24,36.24,0,1,0-25.21,34.53L540.3,475.4h8.5L534,455A36.23,36.23,0,0,0,552.76,423.3Zm-36.24,29.45c-16.55,0-28.88-12.9-28.88-29.45s12.33-29.45,28.88-29.45,28.88,12.9,28.88,29.45S533.07,452.75,516.52,452.75Z" transform="translate(-37.14 -332.43)"/></svg>